<?xml version="1.0" encoding="UTF-8" standalone="no"?><!DOCTYPE svg PUBLIC "-//W3C//DTD SVG 1.1//EN" "http://www.w3.org/Graphics/SVG/1.1/DTD/svg11.dtd"><svg width="100%" height="100%" viewBox="0 0 36 35" version="1.1" xmlns="http://www.w3.org/2000/svg" xmlns:xlink="http://www.w3.org/1999/xlink" xml:space="preserve" xmlns:serif="http://www.serif.com/" style="fill-rule:evenodd;clip-rule:evenodd;stroke-linejoin:round;stroke-miterlimit:2;"><g><path d="M10.488,11.153c0.004,-0.009 0.008,-0.018 0.011,-0.027c0.054,0.1 0.1,0.188 0.129,0.245l-0.14,-0.218Zm0.14,0.218l0.037,0.058l-0.009,-0.003l-0.028,-0.055Zm0.028,0.055l0.006,0.011l-0.008,-0.012l0.002,0.001Zm0.006,0.011l0.649,-0.445c2.103,-4.581 5.373,-8.025 9.282,-10.803c0.216,-0.153 0.502,-0.167 0.732,-0.034l10.665,6.157c0.244,0.141 0.377,0.418 0.332,0.696c-0.64,3.939 -1.782,8.32 -4.695,13.364c-0.012,0.021 -0.025,0.041 -0.038,0.06l-0.002,0.002c-2.564,3.548 -7.259,4.861 -11.281,3.187c-0.322,-0.134 -0.694,-0.008 -0.869,0.294l-1.804,3.126c-0.185,0.32 -0.087,0.728 0.223,0.93c2.167,1.412 3.794,2.949 4.46,4.126c0.469,0.829 0.494,1.549 0.203,2.053c-0.291,0.504 -0.927,0.842 -1.88,0.85c-1.58,0.013 -4.24,-0.857 -6.978,-2.437c-2.737,-1.58 -4.819,-3.448 -5.597,-4.824c-0.47,-0.829 -0.496,-1.549 -0.206,-2.054c0.291,-0.503 0.928,-0.841 1.881,-0.849c1.351,-0.011 3.495,0.627 5.803,1.799c0.329,0.168 0.732,0.048 0.917,-0.272l1.812,-3.137c0.173,-0.3 0.099,-0.682 -0.174,-0.896c-3.4,-2.66 -4.578,-7.337 -2.801,-11.304l-0.634,0.411Zm5.18,10.442l0.038,0.024c3.605,2.08 8.152,1.072 10.572,-2.213c0.016,-0.022 0.03,-0.044 0.043,-0.066c2.554,-4.443 3.682,-8.351 4.326,-11.89c0.052,-0.289 -0.082,-0.579 -0.337,-0.726l-9.064,-5.232c-0.24,-0.139 -0.541,-0.121 -0.764,0.046c-1.696,1.27 -3.254,2.684 -4.621,4.284c-0.162,0.191 -0.21,0.454 -0.124,0.689c0.085,0.235 0.29,0.406 0.537,0.448c0.652,0.111 1.393,0.291 2.121,0.592c1.438,0.595 2.815,1.64 3.454,3.435c0.49,1.382 1.21,2.133 1.918,2.518c0.976,0.533 1.885,0.365 1.885,0.365l0.026,-0.005c0.366,-0.076 0.725,0.16 0.801,0.525c0.076,0.366 -0.158,0.725 -0.523,0.802l-0.012,0.002c-0,0 -1.369,0.296 -2.826,-0.498c-0.924,-0.505 -1.905,-1.451 -2.547,-3.255c-0.493,-1.388 -1.581,-2.175 -2.693,-2.635c-1.394,-0.576 -2.841,-0.652 -3.386,-0.657c-0.24,-0.003 -0.464,0.119 -0.593,0.321c-0.568,0.89 -1.083,1.83 -1.539,2.827l-0.003,0.006c-1.665,3.723 -0.291,8.178 3.296,10.284l0.015,0.009Zm-2.599,7.307c-0.327,-0.232 -0.655,-0.204 -0.983,0.233l-0.029,0.051c-0,-0 -0.126,0.218 -0.002,0.003c-0.187,0.324 -0.601,0.435 -0.926,0.248c-0.323,-0.187 -0.436,-0.601 -0.248,-0.926c-0.124,0.215 -0.121,0.164 -0.006,0.003l0.006,-0.003l0.029,-0.05c0.034,-0.058 0.06,-0.122 0.076,-0.19c0.074,-0.314 -0.076,-0.637 -0.364,-0.782c-1.685,-0.849 -3.259,-1.387 -4.434,-1.541l-0.002,-0c-0.119,-0.015 -0.252,-0.022 -0.38,-0.025c-0.253,-0.004 -0.487,0.129 -0.614,0.347c-0.126,0.218 -0.124,0.488 0.005,0.705c0.066,0.111 0.138,0.222 0.21,0.318l0.003,0.004c0.895,1.168 2.615,2.574 4.754,3.808c2.14,1.236 4.221,2.025 5.68,2.214c0.121,0.015 0.259,0.024 0.394,0.024c0.25,0 0.481,-0.134 0.604,-0.352c0.124,-0.217 0.121,-0.484 -0.007,-0.699c-0.068,-0.113 -0.142,-0.226 -0.216,-0.322c-0.719,-0.941 -1.972,-2.034 -3.55,-3.068Z"/></g><path d="M5.703,0.587l0.995,2.687l2.687,0.994c0.314,0.116 0.522,0.416 0.522,0.751c-0,0.334 -0.209,0.634 -0.523,0.75l-2.686,0.993l-0.995,2.687c-0.116,0.314 -0.415,0.523 -0.75,0.522c-0.335,-0 -0.634,-0.208 -0.75,-0.522l-0.994,-2.687l-2.686,-0.993c-0.314,-0.116 -0.523,-0.416 -0.523,-0.75c-0,-0.335 0.208,-0.635 0.522,-0.751l2.687,-0.994l0.994,-2.687c0.116,-0.314 0.415,-0.522 0.75,-0.523c0.335,-0 0.634,0.209 0.75,0.523Z"/><path d="M31.796,25.616l0.995,2.687l2.687,0.994c0.314,0.116 0.522,0.416 0.522,0.751c0,0.334 -0.209,0.634 -0.523,0.75l-2.686,0.993l-0.995,2.687c-0.116,0.314 -0.415,0.523 -0.75,0.522c-0.335,-0 -0.634,-0.208 -0.75,-0.522l-0.994,-2.687l-2.686,-0.993c-0.314,-0.116 -0.523,-0.416 -0.523,-0.75c0,-0.335 0.208,-0.635 0.522,-0.751l2.687,-0.994l0.994,-2.687c0.116,-0.314 0.415,-0.522 0.75,-0.523c0.335,-0 0.634,0.209 0.75,0.523Z"/></svg>