<?xml version="1.0" encoding="UTF-8" standalone="no"?><!DOCTYPE svg PUBLIC "-//W3C//DTD SVG 1.1//EN" "http://www.w3.org/Graphics/SVG/1.1/DTD/svg11.dtd"><svg width="100%" height="100%" viewBox="0 0 36 35" version="1.1" xmlns="http://www.w3.org/2000/svg" xmlns:xlink="http://www.w3.org/1999/xlink" xml:space="preserve" xmlns:serif="http://www.serif.com/" style="fill-rule:evenodd;clip-rule:evenodd;stroke-linecap:round;stroke-linejoin:round;stroke-miterlimit:1.5;"><g><path d="M5.671,17.718c1.192,-2.609 3.057,-4.571 5.285,-6.154l6.215,3.588c-0.366,2.255 -1.019,4.764 -2.688,7.654c-1.516,2.098 -4.409,2.751 -6.699,1.429c-2.291,-1.323 -3.172,-4.154 -2.113,-6.517Z" style="fill:none;stroke:#000;stroke-width:1.6px;"/><path d="M7.114,15.652c-0,0 3.249,-0.14 4.074,2.179c0.825,2.319 2.684,1.931 2.684,1.931" style="fill:none;stroke:#000;stroke-width:1.6px;"/><path d="M5.941,27.364c2.168,1.252 3.619,2.806 3.236,3.468c-0.382,0.662 -2.453,0.183 -4.622,-1.069c-2.168,-1.252 -3.618,-2.806 -3.236,-3.468c0.382,-0.662 2.453,-0.183 4.622,1.069Z" style="fill:none;stroke:#000;stroke-width:1.6px;"/><path d="M7.756,24.219l-2.244,3.888" style="fill:none;stroke:#000;stroke-width:1.6px;"/></g><g><path d="M30.329,17.718c-1.192,-2.609 -3.057,-4.571 -5.285,-6.154l-6.215,3.588c0.366,2.255 1.019,4.764 2.688,7.654c1.516,2.098 4.409,2.751 6.699,1.429c2.291,-1.323 3.172,-4.154 2.113,-6.517Z" style="fill:none;stroke:#000;stroke-width:1.6px;"/><path d="M28.886,15.652c0,0 -3.249,-0.14 -4.074,2.179c-0.825,2.319 -2.684,1.931 -2.684,1.931" style="fill:none;stroke:#000;stroke-width:1.6px;"/><path d="M30.059,27.364c-2.168,1.252 -3.619,2.806 -3.236,3.468c0.382,0.662 2.453,0.183 4.622,-1.069c2.168,-1.252 3.618,-2.806 3.236,-3.468c-0.382,-0.662 -2.453,-0.183 -4.622,1.069Z" style="fill:none;stroke:#000;stroke-width:1.6px;"/><path d="M28.244,24.219l2.244,3.888" style="fill:none;stroke:#000;stroke-width:1.6px;"/></g><path d="M6.315,2.687l1.122,3.032l3.032,1.122l-3.032,1.121l-1.122,3.032l-1.121,-3.032l-3.032,-1.121l3.032,-1.122l1.121,-3.032Z" style="fill:none;stroke:#000;stroke-width:1.6px;"/><path d="M29.685,2.687l1.121,3.032l3.032,1.122l-3.032,1.121l-1.121,3.032l-1.122,-3.032l-3.032,-1.121l3.032,-1.122l1.122,-3.032Z" style="fill:none;stroke:#000;stroke-width:1.6px;"/><path d="M16.003,10.025l-1.194,-2.418" style="fill:none;stroke:#000;stroke-width:1.6px;"/><path d="M19.997,10.025l1.194,-2.418" style="fill:none;stroke:#000;stroke-width:1.6px;"/><path d="M13.56,5.08l-1.182,-2.393" style="fill:none;stroke:#000;stroke-width:1.6px;"/><path d="M22.44,5.08l1.182,-2.393" style="fill:none;stroke:#000;stroke-width:1.6px;"/></svg>