<?xml version="1.0" encoding="UTF-8" standalone="no"?><!DOCTYPE svg PUBLIC "-//W3C//DTD SVG 1.1//EN" "http://www.w3.org/Graphics/SVG/1.1/DTD/svg11.dtd"><svg width="100%" height="100%" viewBox="0 0 188 188" version="1.1" xmlns="http://www.w3.org/2000/svg" xmlns:xlink="http://www.w3.org/1999/xlink" xml:space="preserve" xmlns:serif="http://www.serif.com/" style="fill-rule:evenodd;clip-rule:evenodd;stroke-linejoin:round;stroke-miterlimit:2;"><path d="M93.652,0c51.687,0 93.651,41.964 93.651,93.652c0,51.687 -41.964,93.651 -93.651,93.651c-51.688,0 -93.652,-41.964 -93.652,-93.651c0,-51.688 41.964,-93.652 93.652,-93.652Zm-14.581,93.652l-29.972,29.972c-4.027,4.026 -4.027,10.554 -0,14.581c4.026,4.026 10.554,4.026 14.581,-0l29.972,-29.972l29.972,29.972c4.026,4.026 10.554,4.026 14.581,-0c4.026,-4.027 4.026,-10.555 -0,-14.581l-29.972,-29.972l29.972,-29.972c4.026,-4.027 4.026,-10.555 -0,-14.581c-4.027,-4.027 -10.555,-4.027 -14.581,-0l-29.972,29.972l-29.972,-29.972c-4.027,-4.027 -10.555,-4.027 -14.581,-0c-4.027,4.026 -4.027,10.554 -0,14.581l29.972,29.972Z"/></svg>