<svg width="35" height="29" viewBox="0 0 35 29" fill="none" xmlns="http://www.w3.org/2000/svg">
<path d="M34.5513 12.3465C34.8504 12.6747 35 13.0644 35 13.5156C35 13.9668 34.8504 14.3564 34.5513 14.6846L28.7587 20.4682C28.4596 20.7963 28.0789 20.9604 27.6165 20.9604C27.1542 20.9604 26.7735 20.7963 26.4744 20.4682L24.1492 18.1711C23.8228 17.843 23.6597 17.4533 23.6597 17.0021C23.6597 16.5509 23.8228 16.1612 24.1492 15.8331C24.4755 15.5323 24.8631 15.3819 25.3118 15.3819C25.7605 15.3819 26.148 15.5323 26.4744 15.8331L27.6165 16.9816L32.2261 12.3465C32.5524 12.0457 32.94 11.8953 33.3887 11.8953C33.8374 11.8953 34.2249 12.0457 34.5513 12.3465ZM15.2156 28.5898L11.1364 24.8571C9.17832 23.0797 7.49903 21.4936 6.09848 20.099C4.69794 18.7044 3.54215 17.3918 2.63112 16.1612C1.72009 14.9307 1.05381 13.7412 0.632284 12.5926C0.210761 11.4441 0 10.2409 0 8.98303C0 6.41254 0.856643 4.27275 2.56993 2.56365C4.28322 0.85455 6.41803 0 8.97436 0C10.3885 0 11.7347 0.293965 13.0128 0.881895C14.291 1.46983 15.3924 2.3107 16.317 3.40453C17.2416 2.3107 18.343 1.46983 19.6212 0.881895C20.8994 0.293965 22.2455 0 23.6597 0C25.9713 0 27.9089 0.704149 29.4726 2.11245C31.0363 3.52074 32.0085 5.16832 32.3893 7.05516C31.8454 6.8364 31.2743 6.69967 30.676 6.64498C30.0777 6.59029 29.4658 6.56294 28.8403 6.56294C26.5287 6.56294 24.4075 7.49953 22.4767 9.3727C20.5458 11.2459 19.5804 13.5908 19.5804 16.4074C19.5804 17.7199 19.866 19.053 20.4371 20.4066C21.0082 21.7603 21.8104 22.8609 22.8438 23.7086C22.3271 24.1735 21.654 24.7683 20.8246 25.4929C19.9951 26.2176 19.2813 26.8534 18.683 27.4003L17.3776 28.5898C17.0785 28.8633 16.7181 29 16.2966 29C15.8751 29 15.5148 28.8633 15.2156 28.5898Z" fill="#D03200"/>
</svg>
