<svg width="35" height="29" viewBox="0 0 35 29" fill="none" xmlns="http://www.w3.org/2000/svg">
<path d="M27.0455 22.5556V17.7222H22.2727V14.5H27.0455V9.66667H30.2273V14.5H35V17.7222H30.2273V22.5556H27.0455ZM15.9091 29L10.858 24.4083C8.94886 22.663 7.31182 21.1056 5.94682 19.7361C4.58076 18.3667 3.45386 17.0778 2.56614 15.8694C1.67735 14.6611 1.02773 13.4931 0.617273 12.3653C0.205758 11.2375 0 10.056 0 8.82083C0 6.29676 0.835227 4.19533 2.50568 2.51656C4.17614 0.838852 6.25758 0 8.75 0C10.1288 0 11.4413 0.288389 12.6875 0.865167C13.9337 1.44302 15.0076 2.26898 15.9091 3.34306C16.8106 2.26898 17.8845 1.44302 19.1307 0.865167C20.3769 0.288389 21.6894 0 23.0682 0C25.322 0 27.2109 0.691167 28.735 2.0735C30.2602 3.45691 31.2083 5.075 31.5795 6.92778C31.1023 6.73982 30.625 6.59857 30.1477 6.50406C29.6705 6.41061 29.2064 6.36389 28.7557 6.36389C26.0777 6.36389 23.7973 7.31015 21.9148 9.20267C20.0322 11.0963 19.0909 13.3991 19.0909 16.1111C19.0909 17.5074 19.3693 18.8296 19.9261 20.0777C20.483 21.3268 21.2652 22.3944 22.2727 23.2806C21.7689 23.737 21.1124 24.3213 20.3032 25.0334C19.495 25.7445 18.7992 26.3685 18.2159 26.9056L15.9091 29Z" fill="#3D447D"/>
</svg>
