<svg width="36" height="35" viewBox="0 0 36 35" fill="none" xmlns="http://www.w3.org/2000/svg">
<path d="M2.37806 34.8899C1.67942 35.1285 1.06811 34.9794 0.544131 34.4426C0.020153 33.9058 -0.125397 33.2796 0.107483 32.5639L5.74025 16.4161C6.1769 15.1637 7.02109 14.3961 8.27281 14.1134C9.52454 13.8295 10.6016 14.1498 11.504 15.0742L19.451 23.2152C20.3534 24.1396 20.6661 25.243 20.3889 26.5253C20.113 27.8075 19.3637 28.6723 18.1411 29.1196L2.37806 34.8899ZM19.8877 18.2948C19.6257 18.0264 19.4947 17.7133 19.4947 17.3555C19.4947 16.9976 19.6257 16.6845 19.8877 16.4161L28.7516 7.33582C29.6831 6.38157 30.8039 5.90444 32.1138 5.90444C33.4238 5.90444 34.5445 6.38157 35.476 7.33582L35.6507 7.51475C35.8836 7.75331 36 8.05151 36 8.40936C36 8.7672 35.869 9.08032 35.607 9.3487C35.345 9.61709 35.0394 9.75128 34.6901 9.75128C34.3407 9.75128 34.0351 9.61709 33.7731 9.3487L33.6421 9.21451C33.2346 8.79702 32.7251 8.58828 32.1138 8.58828C31.5025 8.58828 30.9931 8.79702 30.5856 9.21451L21.6779 18.3396C21.445 18.5781 21.1539 18.6974 20.8046 18.6974C20.4553 18.6974 20.1497 18.5632 19.8877 18.2948ZM12.9013 11.1379C12.6393 10.8695 12.5083 10.5564 12.5083 10.1986C12.5083 9.84074 12.6393 9.52763 12.9013 9.25924L13.0323 9.12505C13.4398 8.70756 13.6436 8.20062 13.6436 7.60421C13.6436 7.0078 13.4398 6.50085 13.0323 6.08337L12.7703 5.81498C12.5374 5.57642 12.421 5.27822 12.421 4.92037C12.421 4.56253 12.552 4.24941 12.814 3.98103C13.0759 3.71264 13.3816 3.57845 13.7309 3.57845C14.0802 3.57845 14.3859 3.71264 14.6479 3.98103L14.8662 4.20468C15.7977 5.15893 16.2635 6.29211 16.2635 7.60421C16.2635 8.91631 15.7977 10.0495 14.8662 11.0037L14.6915 11.1827C14.4587 11.4212 14.1676 11.5405 13.8183 11.5405C13.4689 11.5405 13.1633 11.4063 12.9013 11.1379ZM16.3945 14.7164C16.1325 14.448 16.0015 14.1349 16.0015 13.777C16.0015 13.4192 16.1325 13.1061 16.3945 12.8377L21.7653 7.33582C22.1728 6.91834 22.3766 6.39648 22.3766 5.77025C22.3766 5.14402 22.1728 4.62217 21.7653 4.20468L19.844 2.23653C19.6111 1.99797 19.4947 1.69976 19.4947 1.34192C19.4947 0.984074 19.6257 0.67096 19.8877 0.402576C20.1497 0.134192 20.4553 0 20.8046 0C21.1539 0 21.4596 0.134192 21.7216 0.402576L23.5992 2.32599C24.5307 3.28025 24.9965 4.42833 24.9965 5.77025C24.9965 7.11217 24.5307 8.26026 23.5992 9.21451L18.1847 14.7611C17.9519 14.9997 17.6608 15.119 17.3114 15.119C16.9621 15.119 16.6565 14.9848 16.3945 14.7164ZM23.3809 21.8733C23.1189 21.6049 22.9879 21.2918 22.9879 20.9339C22.9879 20.5761 23.1189 20.263 23.3809 19.9946L25.2584 18.0712C26.19 17.1169 27.3107 16.6398 28.6206 16.6398C29.9306 16.6398 31.0513 17.1169 31.9828 18.0712L33.9041 20.0393C34.137 20.2779 34.2534 20.5761 34.2534 20.9339C34.2534 21.2918 34.1224 21.6049 33.8604 21.8733C33.5984 22.1417 33.2928 22.2759 32.9435 22.2759C32.5941 22.2759 32.2885 22.1417 32.0265 21.8733L30.1489 19.9499C29.7414 19.5324 29.2319 19.3236 28.6206 19.3236C28.0093 19.3236 27.4999 19.5324 27.0924 19.9499L25.1711 21.918C24.9382 22.1566 24.6471 22.2759 24.2978 22.2759C23.9485 22.2759 23.6428 22.1417 23.3809 21.8733Z" fill="#3D447D"/>
</svg>
