<svg width="42" height="42" viewBox="0 0 42 42" fill="none" xmlns="http://www.w3.org/2000/svg">
<g clip-path="url(#clip0_335_13)">
<path d="M31.5 21.385V15.75L22.75 11.375V8.75H26.25V5.25H22.75V1.75H19.25V5.25H15.75V8.75H19.25V11.375L10.5 15.75V21.385L3.5 24.5V38.5H17.5V33.25C17.5 31.325 19.075 29.75 21 29.75C22.925 29.75 24.5 31.325 24.5 33.25V38.5H38.5V24.5L31.5 21.385ZM21 23.625C19.5475 23.625 18.375 22.4525 18.375 21C18.375 19.5475 19.5475 18.375 21 18.375C22.4525 18.375 23.625 19.5475 23.625 21C23.625 22.4525 22.4525 23.625 21 23.625Z" fill="#3D447D"/>
</g>
<defs>
<clipPath id="clip0_335_13">
<rect width="42" height="42" fill="white"/>
</clipPath>
</defs>
</svg>
