<?xml version="1.0" encoding="UTF-8" standalone="no"?><!DOCTYPE svg PUBLIC "-//W3C//DTD SVG 1.1//EN" "http://www.w3.org/Graphics/SVG/1.1/DTD/svg11.dtd"><svg width="100%" height="100%" viewBox="0 0 178 131" version="1.1" xmlns="http://www.w3.org/2000/svg" xmlns:xlink="http://www.w3.org/1999/xlink" xml:space="preserve" xmlns:serif="http://www.serif.com/" style="fill-rule:evenodd;clip-rule:evenodd;stroke-linecap:round;stroke-linejoin:round;stroke-miterlimit:1.5;"><path d="M119.798,126.414l-97.783,-0c0,-0 21.118,-19.821 40.425,-38.036c5.697,-5.232 12.852,-8.125 20.069,-9.351" style="fill:none;stroke:#fff;stroke-width:5.6px;"/><path d="M24.377,129.198l-12.331,0c-6.653,0 -12.046,-5.393 -12.046,-12.045l-0,-103.913c0,-3.194 1.269,-6.258 3.528,-8.517c2.259,-2.259 5.323,-3.528 8.518,-3.528l9.284,-0l131.331,102.438l-0,-102.438l12.331,-0c6.652,-0 12.045,5.393 12.045,12.045l0,103.913c0,3.194 -1.269,6.258 -3.528,8.517c-2.259,2.259 -5.323,3.528 -8.517,3.528c-4.073,0 -7.608,0 -7.608,0l-133.007,-103.605l-0,103.605Z" style="fill:#fff;fill-rule:nonzero;"/><path d="M107.011,52.661l47.826,-48.025" style="fill:none;stroke:#fff;stroke-width:5.6px;"/><path d="M60.453,4.116l92.208,-0" style="fill:none;stroke:#fff;stroke-width:5.6px;"/></svg>