<?xml version="1.0" encoding="UTF-8" standalone="no"?><!DOCTYPE svg PUBLIC "-//W3C//DTD SVG 1.1//EN" "http://www.w3.org/Graphics/SVG/1.1/DTD/svg11.dtd"><svg width="100%" height="100%" viewBox="0 0 866 438" version="1.1" xmlns="http://www.w3.org/2000/svg" xmlns:xlink="http://www.w3.org/1999/xlink" xml:space="preserve" xmlns:serif="http://www.serif.com/" style="fill-rule:evenodd;clip-rule:evenodd;stroke-linecap:round;stroke-linejoin:round;stroke-miterlimit:1.5;"><path d="M135.158,383.455l-0,49.371l595.287,0l-0,-214.241" style="fill:none;stroke:#656a8d;stroke-width:8.69px;"/><path d="M730.445,122.152l-0,-117.809l-595.287,0l-0,280.304" style="fill:none;stroke:#656a8d;stroke-width:8.69px;"/><path d="M270.642,257.143c0,0 160.746,-116.176 87.739,-149.126c-73.008,-32.95 -181.519,76.089 -129.671,161.3c-0,0 -120.521,102.839 -192.72,83.456c-72.2,-19.382 26.166,-125.985 26.166,-125.985c-0,0 9.691,-13.083 -6.784,-13.083c-16.475,0 -125.985,167.173 17.929,147.306c67.275,-9.287 164.265,-78.983 164.265,-78.983c-0,-0 22.696,28.397 72.051,28.397c63.506,0 141.987,-92.76 171.545,-148.969c0,-0 23.744,-4.846 43.611,-11.145c-0,0 -70.261,92.694 -43.611,129.449c26.651,36.755 73.436,39.259 104.2,13.98c30.763,-25.278 113.528,-93.642 142.886,-114.592c24.065,-17.173 119.686,-76.56 119.686,-23.743c0,-0 -1.705,11.156 -8.156,17.607c-6.45,6.45 -1.488,23.32 15.134,15.63c16.622,-7.691 17.367,-66.49 -23.321,-66.49c-40.687,0 -58.302,10.896 -144.887,69.829c-83.157,56.599 -142.258,114.257 -161.931,103.589c-19.673,-10.668 6.128,-44.044 20.766,-70.152c14.637,-26.108 66.737,-83.17 65.249,-100.04c-1.489,-16.871 -23.073,-11.413 -23.073,-11.413c-0,0 -25.802,10.988 -51.852,18.767c-26.05,7.779 -45.897,11.253 -45.897,11.253c-0,-0 8.528,-14.142 13.986,-30.02c5.425,-15.782 1.551,-39.447 -13.986,-39.447c-15.537,0 -61.631,40.462 -58.983,69.467c3.164,21.434 33.005,16.691 31.379,19.3c-0.896,1.438 -86.771,131.923 -159.028,131.923c-35.353,-0 -32.692,-38.065 -32.692,-38.065Zm2.278,-17.637c1.108,1.107 105.97,-80.124 81.861,-117.398c-5.585,-8.635 -62.478,34.441 -81.861,117.398Zm199.605,-93.703c0,-0 -11.19,4.787 -21.828,-1.818c-10.027,-6.226 9.92,-45.908 34.927,-56.348c4.962,-1.191 22.577,2.543 -13.099,58.166Z" style="fill:#656a8d;"/></svg>