<?xml version="1.0" encoding="UTF-8" standalone="no"?><!DOCTYPE svg PUBLIC "-//W3C//DTD SVG 1.1//EN" "http://www.w3.org/Graphics/SVG/1.1/DTD/svg11.dtd"><svg width="100%" height="100%" viewBox="0 0 85 40" version="1.1" xmlns="http://www.w3.org/2000/svg" xmlns:xlink="http://www.w3.org/1999/xlink" xml:space="preserve" xmlns:serif="http://www.serif.com/" style="fill-rule:evenodd;clip-rule:evenodd;stroke-linejoin:round;stroke-miterlimit:2;"><path d="M5.565,5.791c-3.452,3.547 -5.565,8.441 -5.565,13.793c0,5.351 2.114,10.246 5.566,13.792c3.395,3.505 8.157,5.73 13.404,5.788l0.003,0.001l0.225,0c5.324,-0.001 10.16,-2.241 13.604,-5.79c3.448,-3.544 5.566,-8.439 5.565,-13.79l0,-5.414c0.005,-3.096 2.508,-5.568 5.553,-5.575c3.042,0.008 5.544,2.478 5.549,5.575l0,11.525c0,7.807 6.336,14.163 14.2,14.169l1.28,0l0,-8.591l-1.276,-0.002c-3.046,-0.006 -5.479,-2.479 -5.485,-5.577l0,-11.524c0.005,-3.096 2.505,-5.568 5.554,-5.575c3.041,0.006 5.54,2.478 5.548,5.575l0,11.525c0,7.808 6.337,14.163 14.198,14.169l1.281,0l0,-8.591l-1.277,-0.002c-3.044,-0.006 -5.546,-2.479 -5.551,-5.577l0,-11.524c0,-7.809 -6.338,-14.162 -14.199,-14.168c-3.865,0.002 -7.356,1.543 -9.913,4.03c-2.556,-2.487 -6.047,-4.028 -9.91,-4.03c-7.261,0.006 -13.331,5.423 -14.202,12.399l0,7.183c-0,3.091 -1.207,5.834 -3.136,7.822c-1.942,1.983 -4.517,3.159 -7.398,3.165c-2.878,-0.006 -5.451,-1.182 -7.395,-3.166c-1.925,-1.986 -3.133,-4.73 -3.134,-7.822c0.001,-3.094 1.209,-5.833 3.138,-7.822c1.939,-1.986 4.513,-3.159 7.394,-3.165c1.985,0.004 3.809,0.562 5.399,1.554l1.488,0.932l0.434,-1.692c0.481,-1.872 1.263,-3.635 2.282,-5.227l0.73,-1.138l-1.186,-0.655c-2.702,-1.497 -5.813,-2.361 -9.103,-2.367c-0.017,-0.001 -0.033,-0.001 -0.051,-0.001c-5.328,0 -10.169,2.237 -13.612,5.79Z" style="fill:#bf9983;fill-rule:nonzero;"/></svg>