<?xml version="1.0" encoding="UTF-8" standalone="no"?>
<!DOCTYPE svg PUBLIC "-//W3C//DTD SVG 1.1//EN" "http://www.w3.org/Graphics/SVG/1.1/DTD/svg11.dtd">
<svg width="100%" height="100%" viewBox="0 0 34 34" version="1.1" xmlns="http://www.w3.org/2000/svg" xmlns:xlink="http://www.w3.org/1999/xlink" xml:space="preserve" xmlns:serif="http://www.serif.com/" style="fill-rule:evenodd;clip-rule:evenodd;stroke-linejoin:round;stroke-miterlimit:2;">
    <rect x="0" y="0.454" width="33.452" height="33.452" style="fill:none;"/>
    <g transform="matrix(1.10042,0,0,1.10042,-1.65677,0.00615582)">
        <g transform="matrix(0.434846,0,0,0.434846,1.24601,-1.38375)">
            <path d="M33.894,69.385C16.814,69.385 2.946,55.615 2.946,38.655C2.946,21.695 16.814,7.925 33.894,7.925C50.975,7.925 64.843,21.695 64.843,38.655" style="fill:rgb(72,79,140);"/>
        </g>
        <g transform="matrix(0.434846,0,0,0.434846,1.24601,-1.38375)">
            <path d="M37.543,46.385C37.912,46.39 38.253,46.374 38.521,46.328C39.461,46.166 40.148,45.746 40.583,45.305C41.026,44.855 41.457,44.113 41.591,43.103C41.776,41.725 41.315,39.26 41.315,39.259C40.568,35.519 41.65,31.487 44.567,28.59C49.208,23.981 56.746,23.981 61.387,28.59C63.656,30.844 64.83,33.783 64.866,36.739C64.867,36.856 64.867,48.209 64.867,58.205C64.867,60.84 66.454,64.447 68.846,66.862C69.288,67.294 69.422,67.949 69.187,68.519C68.952,69.089 68.393,69.46 67.773,69.46C52.671,69.468 31.997,69.468 31.905,69.467C28.928,69.432 25.968,68.266 23.699,66.012C19.057,61.403 19.057,53.92 23.699,49.311C26.629,46.401 30.713,45.33 34.495,46.094L37.543,46.385Z" style="fill:rgb(208,50,0);"/>
        </g>
    </g>
</svg>
