<svg width="45" height="49" viewBox="0 0 45 49" fill="none" xmlns="http://www.w3.org/2000/svg">
<path d="M20.1367 12.4688H24.8633V24.5001H42.4805C43.1073 24.5001 43.7084 24.2511 44.1516 23.8079C44.5948 23.3647 44.8438 22.7636 44.8438 22.1368V14.8321C44.8438 14.2053 44.5948 13.6042 44.1516 13.161C43.7084 12.7178 43.1073 12.4688 42.4805 12.4688H36.0545C36.9247 10.6766 37.1274 8.63283 36.6261 6.70461C36.1248 4.7764 34.9525 3.09009 33.3196 1.94859C31.6867 0.807082 29.7004 0.285182 27.7173 0.476632C25.7342 0.668082 23.8843 1.56034 22.5 2.99312C21.1133 1.56819 19.265 0.682832 17.2855 0.495298C15.3061 0.307765 13.3244 0.830276 11.6948 1.96944C10.0651 3.10861 8.89368 4.79018 8.38983 6.71362C7.88598 8.63705 8.08256 10.677 8.94443 12.4688H2.51953C1.89275 12.4688 1.29164 12.7178 0.848439 13.161C0.405238 13.6042 0.15625 14.2053 0.15625 14.8321V22.1368C0.15625 22.7636 0.405238 23.3647 0.848439 23.8079C1.06789 24.0273 1.32842 24.2014 1.61514 24.3202C1.90187 24.4389 2.20918 24.5001 2.51953 24.5001H20.1367V12.4688ZM24.8633 8.81647C24.8633 8.0941 25.0775 7.38796 25.4788 6.78733C25.8801 6.18671 26.4506 5.71858 27.1179 5.44214C27.7853 5.1657 28.5197 5.09337 29.2282 5.2343C29.9366 5.37523 30.5874 5.72308 31.0982 6.23387C31.609 6.74466 31.9569 7.39544 32.0978 8.10393C32.2387 8.81241 32.1664 9.54678 31.8899 10.2142C31.6135 10.8815 31.1454 11.452 30.5448 11.8533C29.9441 12.2546 29.238 12.4688 28.5156 12.4688H24.8633V8.81647ZM12.832 8.81647C12.832 7.8478 13.2168 6.91881 13.9018 6.23387C14.5867 5.54892 15.5157 5.16412 16.4844 5.16412C17.453 5.16412 18.382 5.54892 19.067 6.23387C19.7519 6.91881 20.1367 7.8478 20.1367 8.81647V12.4688H16.4844C15.5157 12.4688 14.5867 12.084 13.9018 11.3991C13.2168 10.7141 12.832 9.78513 12.832 8.81647ZM24.8633 48.5626H39.043C39.6698 48.5626 40.2709 48.3136 40.7141 47.8704C41.1573 47.4272 41.4062 46.8261 41.4062 46.1993V27.9376H24.8633V48.5626ZM3.59375 46.1993C3.59375 46.8261 3.84274 47.4272 4.28594 47.8704C4.72914 48.3136 5.33025 48.5626 5.95703 48.5626H20.1367V27.9376H3.59375V46.1993Z" fill="#484F8C"/>
</svg>
