<?xml version="1.0" encoding="UTF-8" standalone="no"?><!DOCTYPE svg PUBLIC "-//W3C//DTD SVG 1.1//EN" "http://www.w3.org/Graphics/SVG/1.1/DTD/svg11.dtd"><svg width="100%" height="100%" viewBox="0 0 50 50" version="1.1" xmlns="http://www.w3.org/2000/svg" xmlns:xlink="http://www.w3.org/1999/xlink" xml:space="preserve" xmlns:serif="http://www.serif.com/" style="fill-rule:evenodd;clip-rule:evenodd;stroke-linejoin:round;stroke-miterlimit:2;"><g id="ic--baseline-add-reaction.svg"></g><path d="M36.364,19.318l-0,-4.545l-4.546,-0l0,-9.455c-2.871,-1.265 -5.976,-1.915 -9.113,-1.909c-12.546,0 -22.705,10.182 -22.705,22.727c0,12.546 10.159,22.728 22.705,22.728c12.568,-0 22.75,-10.182 22.75,-22.728c-0,-2.386 -0.387,-4.659 -1.069,-6.818l-8.022,0Zm-5.682,-2.273c1.886,0 3.409,1.523 3.409,3.41c-0,1.886 -1.523,3.409 -3.409,3.409c-1.887,-0 -3.409,-1.523 -3.409,-3.409c-0,-1.887 1.522,-3.41 3.409,-3.41m-15.909,0c1.886,0 3.409,1.523 3.409,3.41c-0,1.886 -1.523,3.409 -3.409,3.409c-1.887,-0 -3.409,-1.523 -3.409,-3.409c-0,-1.887 1.522,-3.41 3.409,-3.41m7.954,21.591c-5.295,0 -9.795,-3.318 -11.613,-7.954l23.227,-0c-1.818,4.636 -6.318,7.954 -11.614,7.954m22.728,-32.954l4.545,-0l0,4.545l-4.545,0l-0,4.546l-4.546,-0l0,-4.546l-4.545,0l-0,-4.545l4.545,-0l0,-4.546l4.546,0l-0,4.546Z" style="fill:#484f8c;fill-rule:nonzero;"/></svg>