<svg width="57" height="34" viewBox="0 0 57 34" fill="none" xmlns="http://www.w3.org/2000/svg">
<path d="M1.59389 33.6712C0.893211 33.3007 0.413946 32.757 0.156096 32.0402C-0.0998861 31.3215 -0.0410288 30.6148 0.332667 29.9202L14.6265 1.57916C15.0002 0.884525 15.5496 0.410324 16.2745 0.156551C16.9976 -0.0990733 17.7095 -0.0416509 18.4102 0.32882C19.1109 0.69929 19.5902 1.24296 19.848 1.95982C20.104 2.67853 20.0451 3.3852 19.6714 4.07983L5.37756 32.4208C5.00387 33.1155 4.45547 33.5897 3.73237 33.8434C3.0074 34.0991 2.29457 34.0416 1.59389 33.6712ZM20.0918 33.6712C19.3912 33.3007 18.9128 32.757 18.6568 32.0402C18.399 31.3215 18.4569 30.6148 18.8306 29.9202L33.1245 1.57916C33.4982 0.884525 34.0475 0.410324 34.7725 0.156551C35.4956 -0.0990733 36.2075 -0.0416509 36.9082 0.32882C37.6088 0.69929 38.0872 1.24296 38.3432 1.95982C38.601 2.67853 38.5431 3.3852 38.1694 4.07983L23.8755 32.4208C23.5018 33.1155 22.9525 33.5897 22.2275 33.8434C21.5044 34.0991 20.7925 34.0416 20.0918 33.6712ZM38.5898 33.6712C37.8891 33.3007 37.4108 32.757 37.1548 32.0402C36.8969 31.3215 36.9549 30.6148 37.3286 29.9202L51.6224 1.57916C51.9961 0.884525 52.5455 0.410324 53.2704 0.156551C53.9935 -0.0990733 54.7054 -0.0416509 55.4061 0.32882C56.1068 0.69929 56.5861 1.24296 56.8439 1.95982C57.0999 2.67853 57.041 3.3852 56.6673 4.07983L42.3735 32.4208C41.9998 33.1155 41.4514 33.5897 40.7283 33.8434C40.0033 34.0991 39.2905 34.0416 38.5898 33.6712Z" fill="#484F8C"/>
</svg>
