<svg width="50" height="50" viewBox="0 0 50 50" fill="none" xmlns="http://www.w3.org/2000/svg">
<g clip-path="url(#clip0_195_13)">
<path d="M43.9736 10.9375H13.8672C10.5469 10.9375 7.8125 13.624 7.8125 16.9268V40.8857C7.8125 44.1885 10.5469 46.875 13.8672 46.875H43.9453C47.2656 46.875 50 44.3184 50 41.0156V16.9268C50 13.624 47.2969 10.9375 43.9736 10.9375ZM36.4395 16.9277C37.3267 16.9331 38.1926 17.2012 38.9277 17.6981C39.6628 18.1949 40.2343 18.8984 40.5701 19.7197C40.906 20.541 40.991 21.4434 40.8146 22.3129C40.6382 23.1825 40.2082 23.9804 39.5789 24.6059C38.9496 25.2314 38.1491 25.6566 37.2785 25.8277C36.4078 25.9988 35.506 25.9083 34.6868 25.5675C33.8675 25.2267 33.1675 24.6509 32.6751 23.9128C32.1827 23.1746 31.9199 22.3072 31.9199 21.4199C31.9246 20.2251 32.4031 19.081 33.2504 18.2386C34.0977 17.3962 35.2446 16.9244 36.4395 16.9268V16.9277ZM13.8271 43.8809C12.167 43.8809 10.9111 42.5381 10.9111 40.8867V34.5557L19.7451 26.666C20.6087 25.9064 21.7283 25.5024 22.878 25.5355C24.0277 25.5687 25.122 26.0365 25.9404 26.8447L32.0576 32.9102L21.0225 43.8799L13.8271 43.8809ZM46.875 40.8857C46.8749 41.2793 46.7972 41.669 46.6464 42.0325C46.4955 42.3961 46.2745 42.7263 45.996 43.0044C45.7175 43.2824 45.3869 43.5029 45.0231 43.6531C44.6594 43.8033 44.2695 43.8804 43.876 43.8799H25.293L36.7266 32.5195C37.5379 31.8351 38.5645 31.4583 39.6261 31.4555C40.6876 31.4526 41.7162 31.8238 42.5312 32.5039L46.875 36.1904V40.8857Z" fill="#484F8C"/>
<path d="M37.5 3.125H6.25C4.5924 3.125 3.00269 3.78348 1.83058 4.95558C0.65848 6.12769 0 7.7174 0 9.375L0 34.375C0.00114308 35.7607 0.461952 37.1068 1.31022 38.2025C2.15849 39.2982 3.34629 40.0815 4.6875 40.4297V14.8438C4.6875 12.9789 5.42829 11.1905 6.74691 9.87191C8.06552 8.55329 9.85395 7.8125 11.7188 7.8125H43.5547C43.2065 6.47129 42.4232 5.28349 41.3275 4.43522C40.2318 3.58695 38.8857 3.12614 37.5 3.125Z" fill="#484F8C"/>
</g>
<defs>
<clipPath id="clip0_195_13">
<rect width="50" height="50" fill="white"/>
</clipPath>
</defs>
</svg>
