<svg width="55" height="55" viewBox="0 0 55 55" fill="none" xmlns="http://www.w3.org/2000/svg">
<g clip-path="url(#clip0_181_40)">
<path d="M27.4771 4.58337C14.8271 4.58337 4.58333 14.85 4.58333 27.5C4.58333 40.15 14.8271 50.4167 27.4771 50.4167C40.15 50.4167 50.4167 40.15 50.4167 27.5C50.4167 14.85 40.15 4.58337 27.4771 4.58337ZM19.4792 18.3334C21.3812 18.3334 22.9167 19.8688 22.9167 21.7709C22.9167 23.673 21.3812 25.2084 19.4792 25.2084C17.5771 25.2084 16.0417 23.673 16.0417 21.7709C16.0417 19.8688 17.5771 18.3334 19.4792 18.3334ZM27.5 41.25C22.275 41.25 17.8292 37.4459 16.0417 32.0834H38.9583C37.1708 37.4459 32.725 41.25 27.5 41.25ZM35.5208 25.2084C33.6187 25.2084 32.0833 23.673 32.0833 21.7709C32.0833 19.8688 33.6187 18.3334 35.5208 18.3334C37.4229 18.3334 38.9583 19.8688 38.9583 21.7709C38.9583 23.673 37.4229 25.2084 35.5208 25.2084Z" fill="#484F8C"/>
</g>
<defs>
<clipPath id="clip0_181_40">
<rect width="55" height="55" fill="white"/>
</clipPath>
</defs>
</svg>
