<?xml version="1.0" encoding="UTF-8" standalone="no"?>
<!DOCTYPE svg PUBLIC "-//W3C//DTD SVG 1.1//EN" "http://www.w3.org/Graphics/SVG/1.1/DTD/svg11.dtd">
<svg width="100%" height="100%" viewBox="0 0 50 50" version="1.1" xmlns="http://www.w3.org/2000/svg" xmlns:xlink="http://www.w3.org/1999/xlink" xml:space="preserve" xmlns:serif="http://www.serif.com/" style="fill-rule:evenodd;clip-rule:evenodd;stroke-linejoin:round;stroke-miterlimit:2;">
    <g id="ic--baseline-add-reaction.svg">
    </g>
    <g transform="matrix(2.98151,0,0,2.98151,-11.9261,-10.7782)">
        <path d="M5.58,16.89L11.35,12.82C11.91,12.42 11.91,11.58 11.35,11.19L5.58,7.11C4.91,6.65 4,7.12 4,7.93L4,16.07C4,16.88 4.91,17.35 5.58,16.89M13,7.93L13,16.07C13,16.88 13.91,17.35 14.58,16.89L20.35,12.82C20.91,12.42 20.91,11.58 20.35,11.19L14.58,7.12C13.91,6.65 13,7.12 13,7.93" style="fill:rgb(72,79,140);fill-rule:nonzero;"/>
    </g>
</svg>
