<?xml version="1.0" encoding="UTF-8" standalone="no"?><!DOCTYPE svg PUBLIC "-//W3C//DTD SVG 1.1//EN" "http://www.w3.org/Graphics/SVG/1.1/DTD/svg11.dtd"><svg width="100%" height="100%" viewBox="0 0 1182 189" version="1.1" xmlns="http://www.w3.org/2000/svg" xmlns:xlink="http://www.w3.org/1999/xlink" xml:space="preserve" xmlns:serif="http://www.serif.com/" style="fill-rule:evenodd;clip-rule:evenodd;stroke-linejoin:round;stroke-miterlimit:2;"><path d="M17.161,158.132l-5.447,-1.46c-8.427,-2.258 -13.433,-10.943 -11.17,-19.39l24.236,-90.449l0.002,0.001c-2.964,11.066 -2.617,24.542 1.739,39.099c1.776,6.594 5.176,13.653 9.598,20.79c8.52,13.751 20.834,27.788 32.628,39.328c-2.782,4.071 -42.199,11.677 -51.585,12.081l-0.001,0Z" style="fill:#bf9983;"/><path d="M170.378,89.139l-23.412,87.377l-0.002,0.008c-2.264,8.448 -10.941,13.464 -19.368,11.206l-92.621,-24.818c0.005,-0.001 0.01,-0.002 0.016,-0.003c73.654,-10.452 109.244,-42.537 135.387,-73.77Z" style="fill:#bf9983;"/><path d="M78.491,15.045c7.25,-4.286 14.261,-8.433 20.307,-12.011c5.043,-2.976 11.055,-3.805 16.673,-2.299c5.689,1.525 10.482,5.248 13.361,10.347c3.448,6.124 7.448,13.223 11.585,20.563c-2.548,-0.23 -5.178,-0.239 -7.875,0.004l-0.002,0c-8.819,0.798 -18.68,4.345 -28.613,12.399c-4.576,-11.943 -11.34,-19.944 -18.584,-25.046c-2.225,-1.567 -4.517,-2.88 -6.851,-3.957l-0.001,-0Z" style="fill:#656a8d;"/><path d="M22.891,59.918c0.162,-4.642 0.804,-9.025 1.891,-13.084c3.25,-12.133 10.48,-21.368 20.769,-25.95c10.512,-4.683 24.402,-4.706 36.077,3.517c8.166,5.752 15.47,15.762 19.154,31.718c11.163,-11.978 22.499,-16.994 32.442,-17.893c14.228,-1.282 26.245,5.683 33.003,14.993c6.497,8.943 8.202,20.291 5.195,32.173c0,0 -14.3,15.419 -31.771,27.408c0.099,-0.361 6.372,-20.923 6.453,-21.223c0.239,-0.895 0.028,-1.857 -0.483,-2.58c-0.565,-0.739 -1.446,-1.178 -2.382,-1.191c-33.294,-0.447 -64.506,-8.659 -93.529,-25.044c-0.761,-0.447 -1.743,-0.508 -2.602,-0.151c-0.859,0.357 -1.525,1.087 -1.765,1.985c-0.658,2.455 -7.308,25.14 -8.362,29.429c-10.164,-14.096 -12.989,-27.441 -14.016,-33.613c-0.04,-0.239 -0.061,-0.395 -0.074,-0.495l0,0.001Z" style="fill:#dc6a6a;"/><g><g><path d="M253.999,174.229l-21.563,0l0,-124.074l19.563,0l65.732,86.165l0,-86.165l21.476,0l0,124.074l-18.085,0l-67.124,-87.817l0,87.817Z" style="fill:#dc6a6a;"/><g><path d="M410.144,174.229l-17.998,0l-38.518,-89.73l22.085,0l25.476,60.863l25.302,-60.863l22.085,0l-38.431,89.73Z" style="fill:#dc6a6a;"/><path d="M458.735,153.188l0,-68.689l21.302,0l0,63.037c0,3.536 0.449,5.985 1.348,7.347c0.898,1.362 2.536,2.043 4.913,2.043c1.333,0 2.579,-0.116 3.739,-0.348l0,17.998c-2.319,0.927 -5.883,1.391 -10.695,1.391c-13.738,0 -20.607,-7.593 -20.607,-22.78Zm10.608,-79.209c-3.594,0 -6.623,-1.217 -9.086,-3.652c-2.464,-2.435 -3.695,-5.42 -3.695,-8.956c0,-3.536 1.232,-6.536 3.695,-8.999c2.464,-2.464 5.492,-3.695 9.086,-3.695c3.478,0 6.463,1.232 8.956,3.695c2.493,2.464 3.739,5.463 3.739,8.999c0,3.536 -1.246,6.521 -3.739,8.956c-2.493,2.435 -5.478,3.652 -8.956,3.652Z" style="fill:#dc6a6a;"/><path d="M504.37,146.232l0,-42.344l-11.216,0l0,-19.389l11.216,0l0,-34.344l21.389,0l0,34.344l19.737,0l0,19.389l-19.737,0l0,40.083c0,4.869 0.869,8.304 2.608,10.303c1.739,2 4.608,3 8.608,3c2.898,0 5.391,-0.232 7.478,-0.696l0,19.042c-3.304,0.754 -6.985,1.13 -11.042,1.13c-19.36,0 -29.041,-10.173 -29.041,-30.519Z" style="fill:#dc6a6a;"/><path d="M597.914,82.499c7.014,0 13.1,1.391 18.259,4.173c5.159,2.782 8.608,6.376 10.347,10.782l0,-12.955l21.389,0l0,62.689c0,3.826 0.507,6.536 1.522,8.13c1.014,1.594 2.71,2.391 5.086,2.391c0.348,0 1.826,-0.145 4.434,-0.435l0,17.303c-2.493,0.927 -5.999,1.391 -10.521,1.391c-5.333,0 -9.477,-0.927 -12.434,-2.782c-4,-2.782 -6.434,-6.405 -7.304,-10.868c-6.202,9.39 -16.462,14.086 -30.779,14.086c-12.694,0 -23.389,-4.521 -32.084,-13.564c-8.579,-9.101 -12.868,-20.259 -12.868,-33.475c0,-13.274 4.289,-24.374 12.868,-33.301c8.695,-9.043 19.389,-13.564 32.084,-13.564Zm2.782,74.253c7.767,0 14.259,-2.608 19.476,-7.825c5.333,-5.159 7.999,-11.68 7.999,-19.563c0,-7.883 -2.666,-14.404 -7.999,-19.563c-5.217,-5.217 -11.709,-7.825 -19.476,-7.825c-7.478,0 -13.825,2.608 -19.042,7.825c-4.985,5.159 -7.478,11.68 -7.478,19.563c0,7.883 2.493,14.404 7.478,19.563c5.217,5.217 11.564,7.825 19.042,7.825Z" style="fill:#dc6a6a;"/></g></g><g><path d="M713.194,81.63c14.317,0 26.287,5.159 35.909,15.477l-13.129,13.738c-6.202,-6.55 -13.796,-9.825 -22.78,-9.825c-7.883,0 -14.491,2.666 -19.824,7.999c-5.217,5.391 -7.825,12.115 -7.825,20.172c0,7.999 2.608,14.694 7.825,20.085c5.333,5.333 11.941,7.999 19.824,7.999c9.043,0 16.636,-3.246 22.78,-9.738l13.129,13.651c-9.68,10.376 -21.65,15.564 -35.909,15.564c-13.738,0 -25.331,-4.521 -34.779,-13.564c-9.39,-8.985 -14.086,-20.317 -14.086,-33.997c0,-13.564 4.695,-24.838 14.086,-33.823c9.622,-9.158 21.215,-13.738 34.779,-13.738Z" style="fill:#656a8d;"/><g><path d="M761.611,153.188l0,-68.689l21.302,0l0,63.037c0,3.536 0.449,5.985 1.348,7.347c0.898,1.362 2.536,2.043 4.913,2.043c1.333,0 2.579,-0.116 3.739,-0.348l0,17.998c-2.319,0.927 -5.883,1.391 -10.695,1.391c-13.738,0 -20.607,-7.593 -20.607,-22.78Zm10.608,-79.209c-3.594,0 -6.623,-1.217 -9.086,-3.652c-2.464,-2.435 -3.695,-5.42 -3.695,-8.956c0,-3.536 1.232,-6.536 3.695,-8.999c2.464,-2.464 5.492,-3.695 9.086,-3.695c3.478,0 6.463,1.232 8.956,3.695c2.493,2.464 3.739,5.463 3.739,8.999c0,3.536 -1.246,6.521 -3.739,8.956c-2.493,2.435 -5.478,3.652 -8.956,3.652Z" style="fill:#656a8d;"/><path d="M813.68,163.187c-9.506,-9.043 -14.259,-20.317 -14.259,-33.823c0,-13.506 4.753,-24.78 14.259,-33.823c9.622,-9.158 21.215,-13.738 34.779,-13.738c13.506,0 25.07,4.579 34.692,13.738c9.506,9.043 14.259,20.317 14.259,33.823c0,13.506 -4.753,24.78 -14.259,33.823c-9.622,9.158 -21.186,13.738 -34.692,13.738c-13.564,0 -25.157,-4.579 -34.779,-13.738Zm34.779,-5.739c7.825,0 14.404,-2.666 19.737,-7.999c5.333,-5.507 7.999,-12.202 7.999,-20.085c0,-7.941 -2.666,-14.578 -7.999,-19.911c-5.333,-5.507 -11.912,-8.26 -19.737,-8.26c-7.999,0 -14.665,2.753 -19.998,8.26c-5.217,5.391 -7.825,12.028 -7.825,19.911c0,7.825 2.608,14.52 7.825,20.085c5.333,5.333 11.999,7.999 19.998,7.999Z" style="fill:#656a8d;"/><path d="M932.96,174.229l-21.128,0l0,-89.73l21.128,0l0,12.781c2.145,-4.405 5.623,-7.941 10.434,-10.608c4.811,-2.666 10.318,-4 16.52,-4c10.55,0 18.766,3.203 24.65,9.608c5.883,6.405 8.825,15.201 8.825,26.389l0,28.345c0,3.536 0.42,5.985 1.261,7.347c0.84,1.362 2.42,2.043 4.739,2.043c0.869,0 1.884,-0.116 3.043,-0.348l0,17.998c-2.493,0.696 -5.594,1.043 -9.303,1.043c-13.97,0 -20.954,-7.825 -20.954,-23.476l0,-29.91c0,-6.202 -1.666,-11.086 -4.999,-14.651c-3.333,-3.565 -7.956,-5.347 -13.868,-5.347c-5.97,0 -10.854,1.942 -14.651,5.825c-3.797,3.884 -5.695,8.898 -5.695,15.042l0,51.647Z" style="fill:#656a8d;"/><path d="M1010.07,130.06l0,-0.696c0,-14.086 4.405,-25.534 13.216,-34.344c8.869,-8.695 20.143,-13.042 33.823,-13.042c13.1,0 23.737,4.347 31.91,13.042c8.289,8.637 12.434,19.36 12.434,32.171c0,1.855 -0.116,4.347 -0.348,7.478l-69.819,0c0.348,7.13 2.971,12.839 7.869,17.129c4.898,4.289 11.289,6.434 19.172,6.434c9.274,0 17.361,-3.449 24.258,-10.347l12.781,12.434c-10.202,10.724 -22.78,16.085 -37.735,16.085c-14.086,0 -25.534,-4.231 -34.344,-12.694c-8.811,-8.463 -13.216,-19.679 -13.216,-33.649Zm21.737,-10.347l47.908,0c0,-5.275 -2.261,-9.825 -6.782,-13.651c-4.463,-3.942 -9.738,-5.912 -15.824,-5.912c-6.608,0 -12.347,1.913 -17.216,5.739c-4.869,3.826 -7.564,8.434 -8.086,13.825Z" style="fill:#656a8d;"/><path d="M1107.873,158.405l13.651,-11.564c2.087,3.304 5.246,5.999 9.477,8.086c4.231,2.087 8.985,3.13 14.259,3.13c5.333,0 9.332,-0.913 11.999,-2.739c2.666,-1.826 4,-4.188 4,-7.086c0,-3.014 -1.71,-5.391 -5.13,-7.13c-1.565,-0.927 -4.376,-2.058 -8.434,-3.391c-5.854,-1.855 -9.535,-3.101 -11.042,-3.739c-7.42,-2.666 -12.955,-5.999 -16.607,-9.999c-3.652,-4 -5.478,-9.101 -5.478,-15.303c0,-8.231 3.043,-14.752 9.13,-19.563c6.376,-4.869 13.912,-7.304 22.606,-7.304c12.463,0 22.143,4.405 29.041,13.216l-11.912,12.607c-3.942,-4.985 -9.767,-7.478 -17.476,-7.478c-3.304,0 -5.941,0.739 -7.912,2.217c-1.971,1.478 -2.956,3.405 -2.956,5.782c0,2.493 1.362,4.579 4.087,6.26c1.333,0.812 3.768,1.884 7.304,3.217c0.754,0.174 4.492,1.42 11.216,3.739c8.347,2.956 14.448,6.565 18.302,10.825c3.855,4.26 5.782,9.55 5.782,15.868c0,8.579 -3.174,15.477 -9.521,20.694c-6.347,5.217 -15.462,7.825 -27.345,7.825c-8.869,0 -16.535,-1.609 -22.998,-4.826c-6.463,-3.217 -11.144,-7.666 -14.042,-13.346Z" style="fill:#656a8d;"/></g></g></g></svg>