<?xml version="1.0" encoding="UTF-8" standalone="no"?><!DOCTYPE svg PUBLIC "-//W3C//DTD SVG 1.1//EN" "http://www.w3.org/Graphics/SVG/1.1/DTD/svg11.dtd"><svg width="100%" height="100%" viewBox="0 0 157 34" version="1.1" xmlns="http://www.w3.org/2000/svg" xmlns:xlink="http://www.w3.org/1999/xlink" xml:space="preserve" xmlns:serif="http://www.serif.com/" style="fill-rule:evenodd;clip-rule:evenodd;stroke-linejoin:round;stroke-miterlimit:2;"><path d="M16.847,33.456c-9.298,0 -16.847,-7.495 -16.847,-16.728c0,-9.232 7.549,-16.728 16.847,-16.728c9.298,0 16.847,7.496 16.847,16.728" style="fill:#484f8c;"/><path d="M18.833,20.936c0.201,0.002 0.387,-0.006 0.533,-0.031c0.511,-0.088 0.885,-0.317 1.122,-0.557c0.241,-0.245 0.476,-0.649 0.549,-1.199c0.1,-0.75 -0.15,-2.092 -0.15,-2.092c-0.407,-2.036 0.182,-4.231 1.77,-5.808c2.526,-2.509 6.629,-2.509 9.156,-0c1.235,1.227 1.874,2.827 1.893,4.436c0.001,0.064 0.001,6.244 0.001,11.685c-0,1.434 0.864,3.398 2.166,4.713c0.241,0.235 0.314,0.591 0.186,0.902c-0.128,0.31 -0.432,0.512 -0.77,0.512c-8.221,0.004 -19.475,0.004 -19.525,0.004c-1.62,-0.019 -3.232,-0.654 -4.467,-1.881c-2.527,-2.509 -2.527,-6.583 0,-9.091c1.595,-1.584 3.818,-2.167 5.877,-1.752l1.659,0.159Z" style="fill:#d03200;"/><path d="M42.073,26.307c-1.519,-0 -2.279,-0.216 -2.279,-0.647c0,-0.355 0.2,-0.646 0.598,-0.873c0.722,-0.409 1.142,-0.775 1.261,-1.099c0.118,-0.334 0.178,-1.891 0.178,-4.671c-0,-2.79 -0.086,-4.423 -0.259,-4.897c-0.161,-0.485 -0.463,-0.883 -0.905,-1.196c-0.442,-0.312 -0.663,-0.565 -0.663,-0.759c0,-0.194 0.146,-0.377 0.437,-0.55c0.679,-0.398 1.756,-0.598 3.232,-0.598c0.442,0 0.787,0.151 1.035,0.453c0.086,0.107 0.204,0.344 0.355,0.711c0.162,0.355 0.27,0.533 0.323,0.533c0.205,-0.011 0.523,-0.156 0.954,-0.436c1.487,-1.002 2.834,-1.503 4.041,-1.503l0.549,-0c0.873,-0 1.659,0.215 2.36,0.646c0.7,0.431 1.239,1.078 1.616,1.94c0.388,0.862 0.582,2.742 0.582,5.64c-0,2.888 0.059,4.504 0.178,4.849c0.129,0.334 0.479,0.647 1.05,0.937c0.582,0.291 0.873,0.577 0.873,0.857c0,0.485 -1.53,0.727 -4.59,0.727l-0.485,0c-0.97,0 -1.455,-0.231 -1.455,-0.695c0,-0.097 0.119,-0.328 0.356,-0.695c0.237,-0.377 0.399,-0.792 0.485,-1.244c0.086,-0.453 0.129,-1.94 0.129,-4.461c0,-2.532 -0.156,-4.159 -0.469,-4.881c-0.43,-0.991 -1.147,-1.487 -2.149,-1.487c-0.733,0 -1.444,0.173 -2.134,0.517c-0.678,0.334 -1.174,0.814 -1.486,1.439c-0.302,0.614 -0.453,2.095 -0.453,4.444c0,2.339 0.065,3.756 0.194,4.251c0.129,0.485 0.285,0.878 0.469,1.18l0.598,0.97c-0,0.42 -0.846,0.63 -2.538,0.63l-0.986,-0.032l-1.002,-0Zm23.655,0.339l-0.371,0c-0.507,0 -1.008,-0.469 -1.503,-1.406c-0.248,-0.474 -1.008,-2.333 -2.279,-5.576c-1.272,-3.243 -2.048,-5.113 -2.328,-5.608c-0.28,-0.507 -0.716,-0.954 -1.309,-1.342c-0.592,-0.398 -0.889,-0.7 -0.889,-0.905c0,-0.334 0.237,-0.549 0.711,-0.646c0.474,-0.097 1.557,-0.146 3.249,-0.146c1.692,0 2.538,0.243 2.538,0.727c-0,0.033 -0.06,0.211 -0.178,0.534c-0.119,0.312 -0.178,0.657 -0.178,1.034c-0,1.476 0.84,4.159 2.521,8.049c0.313,0.711 0.534,1.067 0.663,1.067c0.129,-0 0.339,-0.323 0.63,-0.97c1.735,-3.836 2.602,-6.497 2.602,-7.984c0,-0.367 -0.14,-0.754 -0.42,-1.164c-0.28,-0.409 -0.42,-0.619 -0.42,-0.63c-0,-0.463 1.002,-0.695 3.006,-0.695l0.388,-0c1.314,-0 1.972,0.226 1.972,0.679c-0,0.388 -0.286,0.77 -0.857,1.147c-0.571,0.367 -1.007,0.824 -1.309,1.374c-0.14,0.248 -0.857,1.977 -2.15,5.188c-1.293,3.2 -2.165,5.215 -2.618,6.045c-0.452,0.819 -0.943,1.228 -1.471,1.228Zm14.556,-20.962c0,0.474 -0.204,0.915 -0.614,1.325c-0.399,0.399 -0.797,0.598 -1.196,0.598c-0.086,0.021 -0.156,0.032 -0.21,0.032l-0.356,0.033c-0.539,-0 -1.023,-0.178 -1.455,-0.534c-0.42,-0.355 -0.63,-0.813 -0.63,-1.374l0,-0.291c0,-0.56 0.221,-1.029 0.663,-1.406c0.453,-0.388 0.969,-0.581 1.551,-0.581l0.081,-0l0.55,0.064c0.334,0 0.679,0.183 1.034,0.55c0.366,0.355 0.55,0.716 0.55,1.083l0.032,0.145l0,0.356Zm-5.139,7.208c-0.561,-0.269 -0.841,-0.523 -0.841,-0.76c-0,-0.237 0.113,-0.425 0.34,-0.565c0.786,-0.474 2.031,-0.711 3.733,-0.711l0.469,-0c0.581,-0 0.91,0.269 0.985,0.808c0.044,0.291 0.065,2.252 0.065,5.883c-0,3.62 0.076,5.7 0.226,6.238c0.151,0.528 0.513,0.938 1.083,1.229c0.571,0.28 0.857,0.565 0.857,0.856c-0,0.41 -1.336,0.614 -4.008,0.614l-0.485,0.017l-1.972,-0c-0.787,-0 -1.18,-0.194 -1.18,-0.582c0,-0.323 0.237,-0.636 0.711,-0.938c0.485,-0.301 0.819,-0.635 1.002,-1.002c0.205,-0.398 0.308,-1.33 0.308,-2.796l0.015,-0.517l0,-0.501l0.017,-0.76l-0,-0.501l0.016,-0.501c-0,-2.553 -0.087,-4.04 -0.258,-4.46c-0.162,-0.431 -0.523,-0.782 -1.083,-1.051Zm14.846,11.411l2.457,-0.372c0.28,-0 0.42,0.221 0.42,0.663c-0,0.431 -0.415,0.878 -1.244,1.341c-0.83,0.463 -1.703,0.695 -2.619,0.695l-0.323,-0c-0.722,-0 -1.374,-0.189 -1.956,-0.566c-0.581,-0.377 -1.007,-0.84 -1.276,-1.39c-0.464,-0.959 -0.696,-2.774 -0.696,-5.446c0,-2.683 -0.096,-4.359 -0.291,-5.027c-0.183,-0.668 -0.425,-1.126 -0.726,-1.374c-0.561,-0.452 -0.841,-0.7 -0.841,-0.743c-0,-0.28 0.145,-0.517 0.436,-0.711c0.744,-0.496 1.148,-0.776 1.212,-0.841c0.076,-0.075 0.491,-0.959 1.245,-2.65c0.377,-0.841 0.803,-1.261 1.277,-1.261c0.484,0 0.808,0.172 0.97,0.517c0.042,0.086 0.134,0.555 0.274,1.406c0.151,0.852 0.362,1.401 0.631,1.649c0.269,0.237 0.867,0.469 1.794,0.695c0.926,0.215 1.39,0.528 1.39,0.937c-0,0.41 -0.512,0.717 -1.536,0.922c-1.023,0.204 -1.643,0.468 -1.858,0.792c-0.377,0.549 -0.566,2.101 -0.566,4.654c-0,2.554 0.118,4.165 0.355,4.833c0.302,0.851 0.792,1.277 1.471,1.277Zm21.031,2.521c-0.561,-0 -1.072,-0.199 -1.536,-0.598c-0.463,-0.399 -0.695,-0.921 -0.695,-1.568l0,-0.145c0,-0.625 0.237,-1.142 0.711,-1.552c0.485,-0.409 0.975,-0.614 1.471,-0.614l0.291,-0c0.162,0.032 0.28,0.048 0.355,0.048c0.378,0 0.771,0.205 1.18,0.615c0.41,0.409 0.614,0.883 0.614,1.422l0,0.226c0,0.496 -0.198,0.975 -0.597,1.439c-0.388,0.452 -0.835,0.678 -1.342,0.678l-0.371,0.049l-0.081,-0Z" style="fill:#d03200;fill-rule:nonzero;"/><path d="M102.051,18.97l-0.275,0c-1.414,0 -2.597,0.319 -3.547,0.956c-0.939,0.626 -1.408,1.408 -1.408,2.348l-0,0.323c-0,0.551 0.167,1.048 0.502,1.49c0.345,0.432 0.788,0.648 1.327,0.648l0.195,0.032l0.486,0c1.122,0 2.04,-0.458 2.752,-1.376c0.314,-0.399 0.47,-1.22 0.47,-2.461l0,-0.292l0.016,-0.389l0,-0.388c0,-0.594 -0.172,-0.891 -0.518,-0.891Zm-7.87,-5.23c0,-0.799 0.632,-1.512 1.895,-2.138c1.274,-0.637 2.591,-0.955 3.951,-0.955l0.129,-0c1.296,-0 2.332,0.156 3.11,0.469c1.576,0.627 2.477,1.954 2.704,3.984c0.021,0.205 0.032,1.565 0.032,4.081c0,2.504 0.065,3.972 0.195,4.404c0.14,0.432 0.507,0.751 1.101,0.956c0.604,0.205 0.907,0.399 0.907,0.583c-0,0.388 -0.195,0.685 -0.583,0.89c-0.778,0.411 -1.544,0.616 -2.3,0.616c-0.745,-0 -1.301,-0.173 -1.668,-0.519c-0.658,-0.615 -1.009,-0.923 -1.052,-0.923c-0.044,0 -0.654,0.276 -1.83,0.826c-1.177,0.54 -2.208,0.81 -3.093,0.81c-1.328,-0 -2.37,-0.367 -3.125,-1.101c-0.756,-0.734 -1.134,-1.625 -1.134,-2.672l0,-0.405c0,-1.123 0.486,-2.11 1.457,-2.963c0.972,-0.853 2.721,-1.517 5.247,-1.992c0.918,-0.173 1.495,-0.335 1.733,-0.486c0.475,-0.302 0.712,-0.917 0.712,-1.846c0,-0.928 -0.248,-1.641 -0.745,-2.137c-0.496,-0.497 -1.16,-0.745 -1.991,-0.745c-0.832,-0 -1.636,0.485 -2.413,1.457c-0.767,0.961 -1.468,1.441 -2.105,1.441c-0.756,0 -1.134,-0.545 -1.134,-1.635Z" style="fill:#d03200;fill-rule:nonzero;"/><path d="M126.676,23.414c0.087,-0.421 0.13,-1.859 0.13,-4.316c0,-2.456 -0.189,-4.062 -0.566,-4.816c-0.377,-0.754 -1.077,-1.131 -2.101,-1.131c-0.614,-0 -1.25,0.242 -1.907,0.727c-0.657,0.474 -1.094,1.002 -1.31,1.584c-0.215,0.582 -0.323,1.939 -0.323,4.073c0,2.122 0.017,3.432 0.049,3.927c0.043,0.496 0.124,0.884 0.242,1.164l0.21,0.404c0.173,0.334 0.259,0.576 0.259,0.727c-0,0.399 -0.824,0.598 -2.473,0.598c-1.648,0 -2.72,-0.167 -3.216,-0.501l-0.291,-0.307c0,-0.302 0.107,-0.56 0.323,-0.776c0.647,-0.657 1.029,-1.158 1.148,-1.503c0.118,-0.345 0.178,-1.869 0.178,-4.574c-0,-2.715 -0.232,-4.487 -0.696,-5.317l-0.339,-0.437c-0.28,-0.355 -0.42,-0.624 -0.42,-0.808c-0,-0.194 0.199,-0.414 0.598,-0.662c0.41,-0.259 1.04,-0.388 1.891,-0.388c0.862,-0 1.508,0.231 1.939,0.695c0.432,0.452 0.738,0.679 0.921,0.679l0.486,-0.227l1.228,-0.727c1.002,-0.528 2.02,-0.792 3.055,-0.792c1.034,0 2.02,0.318 2.957,0.954c0.938,0.625 1.525,0.937 1.762,0.937l0.55,-0.259l0.597,-0.355c0.507,-0.302 1.051,-0.571 1.633,-0.808c0.56,-0.237 1.304,-0.356 2.231,-0.356c1.767,0 3.016,0.733 3.749,2.198c0.538,1.078 0.808,3.599 0.808,7.564c0,1.703 0.054,2.694 0.162,2.974c0.108,0.27 0.399,0.598 0.873,0.986c0.474,0.388 0.711,0.614 0.711,0.679l-0,0.388l-0.307,0.291c-0.518,0.312 -1.832,0.468 -3.944,0.468c-1.013,0 -1.519,-0.247 -1.519,-0.743c-0,-0.054 0.07,-0.296 0.21,-0.727c0.151,-0.431 0.237,-0.776 0.259,-1.035c0.032,-0.269 0.048,-1.643 0.048,-4.121c-0,-2.478 -0.124,-4.03 -0.372,-4.655c-0.237,-0.636 -0.539,-1.121 -0.905,-1.455c-0.355,-0.344 -0.9,-0.517 -1.633,-0.517c-0.732,0 -1.352,0.2 -1.858,0.598c-0.506,0.399 -0.862,0.846 -1.067,1.342c-0.204,0.485 -0.307,1.961 -0.307,4.428c-0,2.468 0.076,3.895 0.226,4.283c0.151,0.377 0.432,0.749 0.841,1.115c0.42,0.367 0.63,0.609 0.63,0.728c0,0.539 -0.943,0.808 -2.828,0.808l-2.263,-0c-1.132,-0 -1.697,-0.162 -1.697,-0.485c-0,-0.334 0.14,-0.652 0.42,-0.954c0.604,-0.635 0.943,-1.158 1.018,-1.567Zm26.241,-7.484l0,-0.501c0,-0.797 -0.285,-1.513 -0.856,-2.149c-0.571,-0.647 -1.271,-0.97 -2.101,-0.97l-0.307,0c-0.151,0.022 -0.253,0.032 -0.307,0.032c-0.755,0 -1.471,0.431 -2.15,1.293c-0.668,0.862 -1.002,1.784 -1.002,2.764l0,0.21c0,0.345 0.205,0.518 0.615,0.518c0.161,0.032 0.247,0.048 0.258,0.048l0.372,0.016l0.096,0l0.114,-0.016l3.119,-0.178l0.582,-0.064c1.045,-0 1.567,-0.334 1.567,-1.003Zm-6.723,4.284c0,1.228 0.463,2.257 1.39,3.087c0.926,0.829 2.101,1.244 3.524,1.244c0.57,0 1.088,-0.081 1.551,-0.242c0.474,-0.173 0.986,-0.378 1.536,-0.615c0.56,-0.237 0.91,-0.355 1.05,-0.355c0.431,-0 0.647,0.232 0.647,0.695c-0,0.625 -0.798,1.293 -2.393,2.004c-1.034,0.463 -2.144,0.695 -3.329,0.695l-0.355,-0c-2.026,-0 -3.707,-0.614 -5.043,-1.843c-0.722,-0.668 -1.282,-1.519 -1.681,-2.553c-0.398,-1.045 -0.598,-2.166 -0.598,-3.362l0.016,-0.372l-0,-0.371c-0,-1.035 0.237,-2.053 0.712,-3.055c0.484,-1.002 1.061,-1.826 1.728,-2.473c1.412,-1.358 3.087,-2.042 5.027,-2.053c2.931,0 4.881,1.143 5.851,3.427c0.302,0.722 0.453,1.384 0.453,1.988l-0,0.323c-0,0.744 -0.308,1.245 -0.922,1.503c-0.614,0.248 -2.063,0.453 -4.347,0.614c-2.285,0.162 -3.524,0.27 -3.718,0.324c-0.733,0.183 -1.099,0.646 -1.099,1.39Z" style="fill:#484f8c;fill-rule:nonzero;"/></svg>