<?xml version="1.0" encoding="UTF-8" standalone="no"?><!DOCTYPE svg PUBLIC "-//W3C//DTD SVG 1.1//EN" "http://www.w3.org/Graphics/SVG/1.1/DTD/svg11.dtd"><svg width="100%" height="100%" viewBox="0 0 199 183" version="1.1" xmlns="http://www.w3.org/2000/svg" xmlns:xlink="http://www.w3.org/1999/xlink" xml:space="preserve" xmlns:serif="http://www.serif.com/" style="fill-rule:evenodd;clip-rule:evenodd;stroke-linejoin:round;stroke-miterlimit:2;"><path d="M91.48,57.371c3.536,-2.467 8.179,-2.672 11.918,-0.525c2.839,1.604 5.467,3.113 5.467,3.113c0.11,0.064 0.222,0.126 0.336,0.185c0.123,0.063 0.246,0.123 0.37,0.178c3.987,1.818 8.418,2.834 13.084,2.834c17.428,0 31.578,-14.149 31.578,-31.578c-0,-17.428 -14.15,-31.578 -31.578,-31.578c-6.781,0 -13.067,2.141 -18.215,5.785c-3.536,2.468 -8.179,2.672 -11.918,0.525c-2.839,-1.603 -5.467,-3.113 -5.467,-3.113c-0.11,-0.064 -0.222,-0.126 -0.337,-0.185c-0.122,-0.063 -0.245,-0.122 -0.369,-0.177c-3.988,-1.819 -8.418,-2.835 -13.084,-2.835c-17.428,-0 -31.578,14.15 -31.578,31.578c-0,17.429 14.15,31.578 31.578,31.578c6.782,0 13.067,-2.141 18.215,-5.785Zm-11.053,-42.104c-2.191,-0.966 -4.615,-1.5 -7.162,-1.5c-9.83,-0 -17.811,7.981 -17.811,17.811c-0,9.83 7.981,17.811 17.811,17.811c4.066,0 7.815,-1.366 10.815,-3.663l-14.243,-8.179c-3.294,-1.892 -4.433,-6.102 -2.541,-9.397c1.892,-3.294 6.102,-4.433 9.397,-2.541l38.799,22.28c2.192,0.966 4.615,1.5 7.163,1.5c9.83,0 17.811,-7.981 17.811,-17.811c-0,-9.83 -7.981,-17.811 -17.811,-17.811c-4.067,-0 -7.816,1.366 -10.815,3.663l14.242,8.179c3.295,1.892 4.434,6.102 2.542,9.397c-1.892,3.294 -6.103,4.433 -9.397,2.541l-38.8,-22.28Z" style="fill:#0033d5;"/><g><path d="M50.459,106.844c0,5.949 -2.395,11.154 -6.112,14.955c-3.879,3.883 -9.243,6.276 -14.943,6.276c-5.702,0 -10.991,-2.393 -14.792,-6.276c-3.801,-3.801 -6.194,-9.089 -6.194,-14.955c-0,-5.867 2.393,-11.155 6.194,-14.956c3.801,-3.88 9.09,-6.273 14.792,-6.273c5.7,-0 11.064,2.393 14.943,6.273c3.717,3.801 6.112,9.007 6.112,14.956Zm-50.459,-0c0,8.18 3.384,15.533 8.583,20.901c5.285,5.447 12.723,8.748 20.821,8.748c8.176,-0 15.521,-3.301 20.89,-8.748c5.204,-5.368 8.59,-12.721 8.59,-20.901c0,-8.18 -3.386,-15.534 -8.59,-20.899c-5.369,-5.364 -12.714,-8.75 -20.89,-8.75c-8.098,0 -15.536,3.386 -20.821,8.75c-5.199,5.365 -8.583,12.719 -8.583,20.899Z" style="fill:#0033d5;fill-rule:nonzero;"/><path d="M82.343,89.764c0,-1.079 0.428,-2.113 1.191,-2.875c0.762,-0.763 1.796,-1.191 2.875,-1.191l26.481,0c1.078,0 2.112,0.428 2.875,1.191c0.762,0.762 1.191,1.796 1.191,2.875l-0,42.167c-0,1.079 0.428,2.113 1.19,2.875c0.763,0.763 1.797,1.191 2.875,1.191l0.209,-0c1.078,-0 2.112,-0.428 2.875,-1.191c0.762,-0.762 1.191,-1.796 1.191,-2.875l-0,-42.167c-0,-2.246 1.82,-4.066 4.065,-4.066c2.861,0 6.666,0 9.484,0c2.143,0 3.88,-1.737 3.88,-3.88c-0,0 -0,0 -0,0c-0,-1.029 -0.409,-2.015 -1.137,-2.743c-0.727,-0.728 -1.714,-1.136 -2.743,-1.136l-78.653,-0c-2.039,-0 -3.693,1.653 -3.693,3.693c0,-0 0,0 0,0.001c0,1.078 0.429,2.112 1.191,2.874c0.762,0.763 1.797,1.191 2.875,1.191l9.372,0c2.246,0 4.066,1.82 4.066,4.066l-0,42.167c-0,1.079 0.428,2.113 1.191,2.875c0.762,0.763 1.796,1.191 2.874,1.191l0.209,-0c1.079,-0 2.113,-0.428 2.875,-1.191c0.763,-0.762 1.191,-1.796 1.191,-2.875l0,-42.167Z" style="fill:#0033d5;fill-rule:nonzero;"/><path d="M190.059,106.844c-0,5.949 -2.395,11.154 -6.112,14.955c-3.879,3.883 -9.243,6.276 -14.943,6.276c-5.702,0 -10.991,-2.393 -14.792,-6.276c-3.801,-3.801 -6.194,-9.089 -6.194,-14.955c-0,-5.867 2.393,-11.155 6.194,-14.956c3.801,-3.88 9.09,-6.273 14.792,-6.273c5.7,-0 11.064,2.393 14.943,6.273c3.717,3.801 6.112,9.007 6.112,14.956Zm-50.459,-0c-0,8.18 3.384,15.533 8.583,20.901c5.285,5.447 12.723,8.748 20.821,8.748c8.176,-0 15.521,-3.301 20.89,-8.748c5.204,-5.368 8.59,-12.721 8.59,-20.901c0,-8.18 -3.386,-15.534 -8.59,-20.899c-5.369,-5.364 -12.714,-8.75 -20.89,-8.75c-8.098,0 -15.536,3.386 -20.821,8.75c-5.199,5.365 -8.583,12.719 -8.583,20.899Z" style="fill:#0033d5;fill-rule:nonzero;"/></g><g transform="matrix(34.0441,0,0,34.0441,155.937,174.744)"></g><text x="40.017px" y="174.744px" style="font-family:'Dekar';font-size:34.044px;fill:#0033d5;">ui design</text></svg>