
<svg viewBox="0 0 333335 333336">
    <g transform="matrix(1.04763,0,0,1.04763,-5865.43,-4511.92)">
        <path d="M322918,48738.3L322918,278056C322918,302103 303394,321626 279347,321626L50029.8,321626C25982.7,321626 6459.5,302103 6459.5,278056L6459.5,48738.3C6459.5,24691.2 25982.7,5168 50029.8,5168L279347,5168C303394,5168 322918,24691.2 322918,48738.3ZM205297,47974.4L205297,47975.7L170541,47974.4L170541,190383C177619,280854 75190.8,247444 104557,191288C109310,182201 117984,177286 133986,174649L133986,136005C65478.1,146916 58600.9,220507 77572.5,251119C106108,297163 205992,290097 205839,197248L205839,126110C225247,137782 241903,144046 260935,142172L260935,104115C228126,102010 209262,81823.2 205297,47974.4Z"/>
    </g>
</svg>
