<?xml version="1.0" encoding="UTF-8" standalone="no"?><!DOCTYPE svg PUBLIC "-//W3C//DTD SVG 1.1//EN" "http://www.w3.org/Graphics/SVG/1.1/DTD/svg11.dtd"><svg width="100%" height="100%" viewBox="0 0 34 34" version="1.1" xmlns="http://www.w3.org/2000/svg" xmlns:xlink="http://www.w3.org/1999/xlink" xml:space="preserve" xmlns:serif="http://www.serif.com/" style="fill-rule:evenodd;clip-rule:evenodd;stroke-linejoin:round;stroke-miterlimit:2;"><rect x="0" y="-0" width="33.906" height="33.906" style="fill:none;"/><clipPath id="_clip1"><rect x="0" y="-0" width="33.906" height="33.906"/></clipPath><g clip-path="url(#_clip1)"><circle cx="17.183" cy="16.723" r="17.183" style="fill:#ebebeb;"/></g><g><g><path d="M19.125,9.682c1.945,-2.087 3.921,-2.961 5.654,-3.118c2.479,-0.224 4.572,0.99 5.751,2.612c2.204,3.035 1.242,7.661 -2.785,11.465c-2.638,2.634 -8.067,4.567 -12.472,5.614c-0.392,0.093 -0.805,-0.018 -1.098,-0.294c-3.29,-3.108 -7.023,-7.493 -7.99,-11.084c-1.591,-5.318 -0.112,-9.808 3.316,-11.335c1.832,-0.816 4.252,-0.82 6.287,0.613c1.422,1.002 2.696,2.747 3.337,5.527Zm-1.988,3.034c-0.168,-2.849 -0.912,-4.763 -1.975,-5.937c-1.391,-1.535 -3.305,-1.668 -4.688,-1.052c-2.526,1.125 -3.17,4.553 -1.995,8.472c0.003,0.011 0.006,0.023 0.01,0.035c0.825,3.091 3.992,6.766 6.86,9.54c3.872,-0.968 8.451,-2.568 10.712,-4.832c0.008,-0.008 0.017,-0.017 0.026,-0.025c2.977,-2.807 4.133,-6.097 2.507,-8.335c-0.889,-1.225 -2.613,-2.066 -4.585,-1.432c-1.508,0.485 -3.109,1.77 -4.679,4.154c-0.284,0.43 -0.811,0.631 -1.309,0.497c-0.498,-0.133 -0.854,-0.57 -0.884,-1.085Z" style="fill:#656a8d;"/><path d="M9.153,18.335l0.667,-4.789c5.139,1.964 10.405,2.866 15.785,2.814l-1.452,5.42c-2.672,1.489 -6.167,2.601 -9.157,3.311c-2.234,-2.11 -4.273,-4.131 -5.843,-6.756Z" style="fill:#ee6a6a;"/><path d="M20.686,23.353c-0.225,-0.578 0.062,-1.23 0.64,-1.455c0.579,-0.225 1.231,0.062 1.455,0.64l3.726,9.584c0.154,0.395 0.072,0.842 -0.21,1.158c-0.283,0.315 -0.719,0.445 -1.128,0.335l-23.244,-6.228c-0.41,-0.11 -0.724,-0.442 -0.81,-0.857c-0.086,-0.416 0.069,-0.845 0.401,-1.109l8.051,-6.394c0.486,-0.386 1.194,-0.305 1.579,0.181c0.386,0.485 0.305,1.193 -0.181,1.579c0,-0 -6.302,5.006 -6.302,5.006c-0,-0 18.945,5.076 18.945,5.076l-2.922,-7.516Z" style="fill:#656a8d;"/><path d="M15.735,2.686l2.339,-0.786c2.35,-0.789 4.94,0.038 6.398,2.043l1.133,1.557c-0.152,0.004 -0.306,0.014 -0.461,0.028c-0.631,0.057 -1.293,0.198 -1.975,0.445l-0.515,-0.708c-0.881,-1.211 -2.445,-1.71 -3.864,-1.233l-0.87,0.292c-0.384,-0.413 -0.79,-0.763 -1.205,-1.055c-0.319,-0.225 -0.647,-0.419 -0.98,-0.583Z" style="fill:#656a8d;"/><path d="M3.301,26.592c-0.16,0.599 -0.777,0.955 -1.376,0.795c-0.6,-0.161 -0.956,-0.778 -0.795,-1.377l4.56,-17.02c0.161,-0.599 0.778,-0.955 1.377,-0.795c0.599,0.161 0.955,0.778 0.795,1.377l-4.561,17.02Z" style="fill:#656a8d;"/><path d="M26.545,32.82c-0.16,0.599 -0.777,0.956 -1.376,0.795c-0.599,-0.161 -0.956,-0.777 -0.795,-1.377l4.56,-17.02c0.161,-0.599 0.778,-0.955 1.377,-0.794c0.599,0.16 0.956,0.777 0.795,1.376l-4.561,17.02Z" style="fill:#656a8d;"/></g></g></svg>