<?xml version="1.0" encoding="UTF-8" standalone="no"?><!DOCTYPE svg PUBLIC "-//W3C//DTD SVG 1.1//EN" "http://www.w3.org/Graphics/SVG/1.1/DTD/svg11.dtd"><svg width="100%" height="100%" viewBox="0 0 34 34" version="1.1" xmlns="http://www.w3.org/2000/svg" xmlns:xlink="http://www.w3.org/1999/xlink" xml:space="preserve" xmlns:serif="http://www.serif.com/" style="fill-rule:evenodd;clip-rule:evenodd;stroke-linejoin:round;stroke-miterlimit:2;"><rect x="0" y="0" width="33.906" height="33.906" style="fill:none;"/><g><clipPath id="_clip1"><rect x="0" y="0" width="33.906" height="33.906"/></clipPath><g clip-path="url(#_clip1)"><circle cx="17.183" cy="16.723" r="17.183" style="fill:#fff;"/><g><g><path d="M29.795,15.782c0,0 -2.473,9.23 -3.658,13.652c-0.342,1.275 -1.651,2.033 -2.923,1.692c-4.251,-1.139 -13.241,-3.548 -17.491,-4.687c-1.272,-0.341 -2.028,-1.652 -1.686,-2.927l3.658,-13.652l22.1,5.922Z" style="fill:#ffb45e;"/></g><g><path d="M29.671,16.246l-3.534,13.189c-0.342,1.276 -1.652,2.033 -2.923,1.692l-13.98,-3.746c10.821,-2.122 15.289,-6.358 20.437,-11.135Z" style="fill:#656a8d;"/></g><g><path d="M18.88,3.249c0.762,-0.449 1.669,-0.574 2.517,-0.347c0.859,0.23 1.582,0.792 2.017,1.562c2.344,4.164 6.381,11.318 6.381,11.318l-22.1,-5.922c-0,0 7.073,-4.176 11.185,-6.611Z" style="fill:#ffd9ad;"/></g><g><path d="M19.166,11.262c1.685,-1.808 3.396,-2.565 4.897,-2.701c2.148,-0.193 3.961,0.858 4.981,2.263c1.91,2.629 1.077,6.636 -2.412,9.931c-2.285,2.282 -6.986,3.956 -10.802,4.862c-0.341,0.081 -0.698,-0.015 -0.951,-0.255c-2.851,-2.692 -6.084,-6.489 -6.921,-9.6c-1.379,-4.606 -0.097,-8.496 2.872,-9.818c1.587,-0.707 3.683,-0.711 5.445,0.531c1.233,0.868 2.335,2.379 2.891,4.787Z" style="fill:#ee6a6a;"/></g><g><path d="M9.257,18.606c-0.063,-0.128 -0.057,-0.281 -0.021,-0.419c0.122,-0.452 0.556,-2.272 0.736,-2.943c0.036,-0.135 0.136,-0.245 0.266,-0.299c0.13,-0.054 0.278,-0.045 0.393,0.023c4.381,2.473 9.092,3.712 14.117,3.78c0.141,0.001 0.274,0.068 0.359,0.179c0.078,0.11 0.11,0.255 0.073,0.39c-0.179,0.67 -0.688,2.436 -0.809,2.889c-0.037,0.138 -0.096,0.29 -0.22,0.356c-3.546,1.791 -5.368,2.272 -8.451,3.062c-0.238,0.06 -0.482,-0.024 -0.67,-0.18c-2.367,-1.949 -4.387,-4.039 -5.773,-6.838Z" style="fill:#fff;"/></g></g></g></g></svg>