<svg width="47" height="47" viewBox="0 0 47 47" fill="none" xmlns="http://www.w3.org/2000/svg">
<path d="M46.5912 8.52752C46.5678 8.15753 46.421 7.8061 46.1742 7.52946C45.9274 7.25283 45.5949 7.06699 45.23 7.0017C36.2759 5.39513 32.5379 4.23369 24.1822 0.459508C23.9678 0.362615 23.7352 0.3125 23.5 0.3125C23.2648 0.3125 23.0322 0.362615 22.8178 0.459508C14.4621 4.23369 10.7241 5.39513 1.77 7.0017C1.40507 7.06699 1.0726 7.25283 0.82581 7.52946C0.579016 7.8061 0.432166 8.15753 0.408768 8.52752C0.0102325 14.8534 0.860096 20.7475 2.93765 26.0465C4.63896 30.3688 7.15676 34.323 10.3535 37.693C15.8885 43.5655 21.7651 46.1161 22.8862 46.5674C23.2845 46.7286 23.73 46.7286 24.1283 46.5674C25.2494 46.1161 31.126 43.5655 36.661 37.693C39.8525 34.3217 42.3654 30.3676 44.0623 26.0465C46.1399 20.7475 46.9898 14.8534 46.5912 8.52752ZM33.0307 16.3026L21.5612 29.5526C21.4137 29.7234 21.2328 29.8623 21.0297 29.9608C20.8266 30.0592 20.6055 30.1151 20.38 30.125H20.3117C19.8782 30.1251 19.462 29.9553 19.1523 29.6519L14.0594 24.6625C13.904 24.5102 13.7801 24.3289 13.6948 24.1288C13.6096 23.9286 13.5645 23.7137 13.5623 23.4961C13.5578 23.0568 13.7281 22.6337 14.0356 22.3199C14.3431 22.0061 14.7626 21.8273 15.2019 21.8229C15.6412 21.8184 16.0643 21.9886 16.3781 22.2961L20.2082 26.0527L30.5287 14.135C30.671 13.9705 30.8444 13.8356 31.0388 13.7381C31.2333 13.6406 31.445 13.5824 31.6619 13.5667C31.8789 13.5511 32.0968 13.5783 32.3032 13.6468C32.5097 13.7154 32.7006 13.8239 32.8651 13.9662C33.0295 14.1086 33.1644 14.2819 33.2619 14.4763C33.3594 14.6708 33.4176 14.8825 33.4333 15.0995C33.449 15.3164 33.4217 15.5343 33.3532 15.7407C33.2847 15.9472 33.1761 16.1381 33.0338 16.3026H33.0307Z" fill="#484F8C"/>
</svg>
