<svg width="48" height="48" viewBox="0 0 48 48" fill="none" xmlns="http://www.w3.org/2000/svg">
<g clip-path="url(#clip0_181_49)">
<path d="M46 34C46 40.62 40.62 46 34 46V43C38.96 43 43 38.96 43 34H46ZM2 14C2 7.38 7.38 2 14 2V5C9.04 5 5 9.04 5 14H2ZM16.02 8.64L6.82 17.84C0.379998 24.28 0.379998 34.74 6.82 41.18C13.26 47.62 23.72 47.62 30.16 41.18L44.3 27.04C45.28 26.06 45.28 24.48 44.3 23.5C43.32 22.52 41.74 22.52 40.76 23.5L31.92 32.34L30.5 30.92L43.58 17.84C44.56 16.86 44.56 15.28 43.58 14.3C42.6 13.32 41.02 13.32 40.04 14.3L28.38 25.96L26.96 24.54L40.74 10.76C41.72 9.78 41.72 8.2 40.74 7.22C39.76 6.24 38.18 6.24 37.2 7.22L23.42 21L22.04 19.6L33 8.64C33.98 7.66 33.98 6.08 33 5.1C32.02 4.12 30.44 4.12 29.46 5.1L14.22 20.34C16.66 23.48 16.44 28.02 13.56 30.9L12.14 29.48C14.48 27.14 14.48 23.34 12.14 21L11.44 20.3L19.58 12.16C20.56 11.18 20.56 9.6 19.58 8.62C18.58 7.66 17 7.66 16.02 8.64Z" fill="#484F8C"/>
</g>
<defs>
<clipPath id="clip0_181_49">
<rect width="48" height="48" fill="white"/>
</clipPath>
</defs>
</svg>
