<?xml version="1.0" encoding="UTF-8" standalone="no"?>
<!DOCTYPE svg PUBLIC "-//W3C//DTD SVG 1.1//EN" "http://www.w3.org/Graphics/SVG/1.1/DTD/svg11.dtd">
<svg width="100%" height="100%" viewBox="0 0 50 50" version="1.1" xmlns="http://www.w3.org/2000/svg" xmlns:xlink="http://www.w3.org/1999/xlink" xml:space="preserve" xmlns:serif="http://www.serif.com/" style="fill-rule:evenodd;clip-rule:evenodd;stroke-linejoin:round;stroke-miterlimit:2;">
    <g id="ic--baseline-add-reaction.svg">
    </g>
    <g transform="matrix(2.22723,0,0,2.22723,-1.13859,-2.28353)">
        <path d="M2.53,19.65L3.87,20.21L3.87,11.18L1.44,17.04C1.03,18.06 1.52,19.23 2.53,19.65M22.03,15.95L17.07,3.98C16.763,3.25 16.052,2.767 15.26,2.75C15,2.75 14.73,2.79 14.47,2.9L7.1,5.95C6.094,6.371 5.608,7.54 6.02,8.55L10.98,20.52C11.401,21.526 12.57,22.012 13.58,21.6L20.94,18.55C21.952,18.136 22.444,16.962 22.03,15.95M7.88,8.75C7.33,8.75 6.88,8.3 6.88,7.75C6.88,7.2 7.33,6.75 7.88,6.75C8.43,6.75 8.88,7.2 8.88,7.75C8.88,8.3 8.43,8.75 7.88,8.75M5.88,19.75C5.88,20.85 6.78,21.75 7.88,21.75L9.33,21.75L5.88,13.41L5.88,19.75Z" style="fill:rgb(72,79,140);fill-rule:nonzero;"/>
    </g>
</svg>
