<?xml version="1.0" encoding="UTF-8" standalone="no"?><!DOCTYPE svg PUBLIC "-//W3C//DTD SVG 1.1//EN" "http://www.w3.org/Graphics/SVG/1.1/DTD/svg11.dtd"><svg width="100%" height="100%" viewBox="0 0 157 34" version="1.1" xmlns="http://www.w3.org/2000/svg" xmlns:xlink="http://www.w3.org/1999/xlink" xml:space="preserve" xmlns:serif="http://www.serif.com/" style="fill-rule:evenodd;clip-rule:evenodd;stroke-linejoin:round;stroke-miterlimit:2;"><g><g><path d="M17.355,9.352c1.872,-2.009 3.773,-2.85 5.441,-3c2.386,-0.216 4.401,0.952 5.534,2.513c2.122,2.921 1.196,7.372 -2.68,11.033c-2.538,2.536 -7.762,4.396 -12.002,5.403c-0.378,0.09 -0.775,-0.017 -1.057,-0.283c-3.166,-2.991 -6.758,-7.211 -7.689,-10.667c-1.531,-5.117 -0.108,-9.439 3.192,-10.908c1.762,-0.785 4.091,-0.789 6.049,0.59c1.369,0.964 2.595,2.643 3.212,5.319Zm-1.913,2.92c-0.161,-2.742 -0.878,-4.584 -1.901,-5.713c-1.339,-1.478 -3.18,-1.606 -4.511,-1.013c-2.432,1.082 -3.052,4.381 -1.921,8.153c0.004,0.011 0.007,0.022 0.01,0.033c0.794,2.975 3.842,6.512 6.603,9.182c3.725,-0.932 8.133,-2.471 10.308,-4.65c0.008,-0.009 0.016,-0.017 0.025,-0.025c2.865,-2.701 3.978,-5.867 2.413,-8.021c-0.856,-1.179 -2.515,-1.989 -4.413,-1.378c-1.451,0.467 -2.992,1.703 -4.503,3.998c-0.273,0.414 -0.78,0.607 -1.259,0.478c-0.479,-0.128 -0.822,-0.549 -0.851,-1.044Z" style="fill:#656a8d;"/><path d="M7.758,17.679l0.643,-4.609c4.945,1.891 10.012,2.759 15.19,2.709l-1.397,5.216c-2.572,1.432 -5.936,2.503 -8.812,3.186c-2.15,-2.03 -4.113,-3.976 -5.624,-6.502Z" style="fill:#ee6a6a;"/><path d="M18.857,22.509c-0.216,-0.557 0.06,-1.184 0.617,-1.401c0.556,-0.216 1.183,0.06 1.4,0.617l3.586,9.222c0.147,0.38 0.069,0.811 -0.203,1.115c-0.272,0.303 -0.692,0.428 -1.086,0.322l-22.369,-5.994c-0.395,-0.105 -0.696,-0.424 -0.779,-0.825c-0.083,-0.4 0.066,-0.812 0.386,-1.067l7.748,-6.153c0.467,-0.372 1.148,-0.293 1.52,0.174c0.371,0.468 0.293,1.149 -0.175,1.52c0,-0 -6.065,4.818 -6.065,4.818c-0,-0 18.233,4.885 18.233,4.885l-2.813,-7.233Z" style="fill:#656a8d;"/><path d="M14.092,2.619l2.252,-0.756c2.261,-0.759 4.754,0.037 6.157,1.966l1.09,1.499c-0.146,0.004 -0.294,0.012 -0.443,0.026c-0.608,0.055 -1.245,0.191 -1.901,0.429l-0.496,-0.682c-0.847,-1.165 -2.353,-1.645 -3.719,-1.187l-0.836,0.281c-0.37,-0.397 -0.761,-0.733 -1.16,-1.015c-0.308,-0.216 -0.623,-0.403 -0.944,-0.561Z" style="fill:#656a8d;"/><path d="M2.127,25.626c-0.155,0.576 -0.748,0.919 -1.325,0.764c-0.577,-0.154 -0.919,-0.748 -0.765,-1.324l4.389,-16.38c0.154,-0.577 0.748,-0.919 1.325,-0.765c0.577,0.155 0.919,0.748 0.765,1.325l-4.389,16.38Z" style="fill:#656a8d;"/><path d="M24.496,31.619c-0.154,0.577 -0.748,0.92 -1.325,0.765c-0.576,-0.154 -0.919,-0.748 -0.765,-1.325l4.389,-16.379c0.155,-0.577 0.748,-0.92 1.325,-0.765c0.577,0.155 0.92,0.748 0.765,1.325l-4.389,16.379Z" style="fill:#656a8d;"/></g><g><path d="M39.333,26.801l-2.735,-0l0,-15.736l2.481,-0l8.337,10.928l-0,-10.928l2.724,-0l-0,15.736l-2.294,-0l-8.513,-11.138l-0,11.138Z" style="fill:#ee6a6a;fill-rule:nonzero;"/><path d="M59.136,26.801l-2.282,-0l-4.885,-11.381l2.801,0l3.231,7.72l3.208,-7.72l2.801,0l-4.874,11.381Z" style="fill:#ee6a6a;fill-rule:nonzero;"/><path d="M65.299,24.132l-0,-8.712l2.702,0l-0,7.995c-0,0.449 0.057,0.759 0.171,0.932c0.114,0.173 0.321,0.259 0.623,0.259c0.169,0 0.327,-0.015 0.474,-0.044l-0,2.283c-0.294,0.117 -0.746,0.176 -1.357,0.176c-1.742,0 -2.613,-0.963 -2.613,-2.889Zm1.345,-10.046c-0.456,0 -0.84,-0.154 -1.152,-0.463c-0.312,-0.309 -0.469,-0.687 -0.469,-1.136c0,-0.448 0.157,-0.829 0.469,-1.141c0.312,-0.313 0.696,-0.469 1.152,-0.469c0.441,0 0.82,0.156 1.136,0.469c0.316,0.312 0.474,0.693 0.474,1.141c0,0.449 -0.158,0.827 -0.474,1.136c-0.316,0.309 -0.695,0.463 -1.136,0.463Z" style="fill:#ee6a6a;fill-rule:nonzero;"/><path d="M71.087,23.25l-0,-5.37l-1.423,-0l0,-2.46l1.423,0l-0,-4.355l2.712,-0l0,4.355l2.504,0l-0,2.46l-2.504,-0l0,5.083c0,0.618 0.111,1.053 0.331,1.307c0.221,0.253 0.585,0.38 1.092,0.38c0.367,0 0.684,-0.029 0.948,-0.088l0,2.415c-0.419,0.096 -0.886,0.143 -1.4,0.143c-2.456,0 -3.683,-1.29 -3.683,-3.87Z" style="fill:#ee6a6a;fill-rule:nonzero;"/><path d="M82.95,15.167c0.89,-0 1.662,0.176 2.316,0.529c0.654,0.353 1.092,0.809 1.312,1.368l0,-1.644l2.713,0l0,7.951c0,0.485 0.064,0.829 0.193,1.031c0.129,0.202 0.344,0.303 0.645,0.303c0.044,0 0.232,-0.018 0.563,-0.055l-0,2.195c-0.317,0.117 -0.761,0.176 -1.335,0.176c-0.676,0 -1.202,-0.117 -1.577,-0.353c-0.507,-0.353 -0.816,-0.812 -0.926,-1.378c-0.787,1.191 -2.088,1.786 -3.904,1.786c-1.61,0 -2.966,-0.573 -4.069,-1.72c-1.088,-1.154 -1.632,-2.569 -1.632,-4.245c0,-1.684 0.544,-3.092 1.632,-4.224c1.103,-1.147 2.459,-1.72 4.069,-1.72Zm0.353,9.417c0.985,0 1.809,-0.331 2.47,-0.992c0.677,-0.655 1.015,-1.482 1.015,-2.481c-0,-1 -0.338,-1.827 -1.015,-2.482c-0.661,-0.661 -1.485,-0.992 -2.47,-0.992c-0.948,-0 -1.753,0.331 -2.415,0.992c-0.632,0.655 -0.948,1.482 -0.948,2.482c-0,0.999 0.316,1.826 0.948,2.481c0.662,0.661 1.467,0.992 2.415,0.992Z" style="fill:#ee6a6a;fill-rule:nonzero;"/><path d="M97.571,15.057c1.816,-0 3.334,0.654 4.554,1.962l-1.665,1.743c-0.786,-0.831 -1.75,-1.246 -2.889,-1.246c-1,-0 -1.838,0.338 -2.514,1.014c-0.662,0.684 -0.993,1.537 -0.993,2.558c0,1.015 0.331,1.864 0.993,2.548c0.676,0.676 1.514,1.014 2.514,1.014c1.147,0 2.11,-0.411 2.889,-1.235l1.665,1.732c-1.227,1.315 -2.746,1.973 -4.554,1.973c-1.742,0 -3.213,-0.573 -4.411,-1.72c-1.191,-1.139 -1.786,-2.577 -1.786,-4.312c-0,-1.72 0.595,-3.15 1.786,-4.289c1.22,-1.162 2.691,-1.742 4.411,-1.742Z" style="fill:#656a8d;fill-rule:nonzero;"/><path d="M103.712,24.132l-0,-8.712l2.701,0l0,7.995c0,0.449 0.057,0.759 0.171,0.932c0.114,0.173 0.322,0.259 0.623,0.259c0.169,0 0.327,-0.015 0.474,-0.044l0,2.283c-0.294,0.117 -0.746,0.176 -1.356,0.176c-1.742,0 -2.613,-0.963 -2.613,-2.889Zm1.345,-10.046c-0.456,0 -0.84,-0.154 -1.152,-0.463c-0.313,-0.309 -0.469,-0.687 -0.469,-1.136c-0,-0.448 0.156,-0.829 0.469,-1.141c0.312,-0.313 0.696,-0.469 1.152,-0.469c0.441,0 0.82,0.156 1.136,0.469c0.316,0.312 0.474,0.693 0.474,1.141c-0,0.449 -0.158,0.827 -0.474,1.136c-0.316,0.309 -0.695,0.463 -1.136,0.463Z" style="fill:#656a8d;fill-rule:nonzero;"/><path d="M110.315,25.4c-1.205,-1.147 -1.808,-2.577 -1.808,-4.289c-0,-1.713 0.603,-3.143 1.808,-4.29c1.221,-1.162 2.691,-1.742 4.411,-1.742c1.713,-0 3.18,0.58 4.4,1.742c1.206,1.147 1.809,2.577 1.809,4.29c-0,1.712 -0.603,3.142 -1.809,4.289c-1.22,1.162 -2.687,1.742 -4.4,1.742c-1.72,0 -3.19,-0.58 -4.411,-1.742Zm4.411,-0.728c0.993,0 1.827,-0.338 2.503,-1.014c0.677,-0.699 1.015,-1.548 1.015,-2.547c-0,-1.008 -0.338,-1.849 -1.015,-2.526c-0.676,-0.698 -1.51,-1.047 -2.503,-1.047c-1.014,-0 -1.86,0.349 -2.536,1.047c-0.662,0.684 -0.992,1.526 -0.992,2.526c-0,0.992 0.33,1.841 0.992,2.547c0.676,0.676 1.522,1.014 2.536,1.014Z" style="fill:#656a8d;fill-rule:nonzero;"/><path d="M125.443,26.801l-2.679,-0l-0,-11.381l2.679,0l0,1.621c0.272,-0.558 0.713,-1.007 1.323,-1.345c0.611,-0.338 1.309,-0.507 2.096,-0.507c1.338,-0 2.38,0.406 3.126,1.218c0.746,0.813 1.119,1.928 1.119,3.347l0,3.595c0,0.449 0.053,0.759 0.16,0.932c0.107,0.173 0.307,0.259 0.601,0.259c0.11,0 0.239,-0.015 0.386,-0.044l-0,2.283c-0.316,0.088 -0.709,0.132 -1.18,0.132c-1.772,-0 -2.658,-0.993 -2.658,-2.977l0,-3.794c0,-0.786 -0.211,-1.406 -0.634,-1.858c-0.422,-0.452 -1.009,-0.678 -1.758,-0.678c-0.758,-0 -1.377,0.246 -1.859,0.739c-0.481,0.492 -0.722,1.128 -0.722,1.907l0,6.551Z" style="fill:#656a8d;fill-rule:nonzero;"/><path d="M135.223,21.199l-0,-0.088c-0,-1.787 0.558,-3.239 1.676,-4.356c1.125,-1.103 2.555,-1.654 4.289,-1.654c1.662,-0 3.011,0.551 4.047,1.654c1.052,1.095 1.577,2.455 1.577,4.08c0,0.235 -0.014,0.551 -0.044,0.948l-8.855,0c0.045,0.904 0.377,1.629 0.998,2.173c0.622,0.544 1.432,0.816 2.432,0.816c1.176,-0 2.202,-0.438 3.076,-1.313l1.621,1.577c-1.293,1.36 -2.889,2.04 -4.785,2.04c-1.787,0 -3.239,-0.536 -4.356,-1.61c-1.118,-1.073 -1.676,-2.496 -1.676,-4.267Zm2.757,-1.312l6.076,-0c-0,-0.669 -0.287,-1.247 -0.861,-1.732c-0.566,-0.5 -1.235,-0.75 -2.007,-0.75c-0.838,0 -1.565,0.243 -2.183,0.728c-0.617,0.485 -0.959,1.07 -1.025,1.754Z" style="fill:#656a8d;fill-rule:nonzero;"/><path d="M147.627,24.794l1.731,-1.467c0.265,0.419 0.665,0.761 1.202,1.026c0.537,0.264 1.14,0.397 1.809,0.397c0.676,-0 1.183,-0.116 1.521,-0.348c0.338,-0.231 0.508,-0.531 0.508,-0.899c-0,-0.382 -0.217,-0.683 -0.651,-0.904c-0.199,-0.117 -0.555,-0.261 -1.07,-0.43c-0.742,-0.235 -1.209,-0.393 -1.4,-0.474c-0.941,-0.338 -1.643,-0.761 -2.106,-1.268c-0.464,-0.507 -0.695,-1.154 -0.695,-1.941c-0,-1.044 0.386,-1.871 1.158,-2.481c0.808,-0.618 1.764,-0.926 2.867,-0.926c1.58,-0 2.808,0.558 3.683,1.676l-1.511,1.599c-0.5,-0.632 -1.238,-0.949 -2.216,-0.949c-0.419,0 -0.754,0.094 -1.004,0.282c-0.25,0.187 -0.375,0.431 -0.375,0.733c0,0.316 0.173,0.581 0.519,0.794c0.169,0.103 0.477,0.239 0.926,0.408c0.096,0.022 0.57,0.18 1.422,0.474c1.059,0.375 1.833,0.833 2.322,1.373c0.489,0.54 0.733,1.211 0.733,2.012c-0,1.088 -0.402,1.963 -1.207,2.625c-0.805,0.662 -1.961,0.992 -3.469,0.992c-1.124,0 -2.097,-0.204 -2.916,-0.612c-0.82,-0.408 -1.414,-0.972 -1.781,-1.692Z" style="fill:#656a8d;fill-rule:nonzero;"/></g></g></svg>