<?xml version="1.0" encoding="UTF-8" standalone="no"?><!DOCTYPE svg PUBLIC "-//W3C//DTD SVG 1.1//EN" "http://www.w3.org/Graphics/SVG/1.1/DTD/svg11.dtd"><svg width="100%" height="100%" viewBox="0 0 1648 349" version="1.1" xmlns="http://www.w3.org/2000/svg" xmlns:xlink="http://www.w3.org/1999/xlink" xml:space="preserve" xmlns:serif="http://www.serif.com/" style="fill-rule:evenodd;clip-rule:evenodd;stroke-linejoin:round;stroke-miterlimit:2;"><g><g><path d="M410.326,274.531l-28.75,-0l-0,-165.433l26.084,0l87.643,114.887l0,-114.887l28.635,0l0,165.433l-24.113,-0l-89.499,-117.09l0,117.09Z" style="fill:#ee6a6a;fill-rule:nonzero;"/><g><path d="M618.519,274.531l-23.998,-0l-51.357,-119.641l29.446,0l33.968,81.152l33.736,-81.152l29.446,0l-51.241,119.641Z" style="fill:#ee6a6a;fill-rule:nonzero;"/><path d="M683.309,246.475l0,-91.585l28.403,0l-0,84.05c-0,4.714 0.599,7.98 1.797,9.796c1.198,1.816 3.381,2.724 6.55,2.724c1.778,0 3.439,-0.154 4.985,-0.463l-0,23.997c-3.092,1.237 -7.845,1.855 -14.26,1.855c-18.316,0 -27.475,-10.124 -27.475,-30.374Zm14.144,-105.612c-4.792,-0 -8.831,-1.623 -12.115,-4.869c-3.285,-3.246 -4.927,-7.226 -4.927,-11.941c-0,-4.714 1.642,-8.714 4.927,-11.999c3.284,-3.284 7.323,-4.927 12.115,-4.927c4.637,0 8.617,1.643 11.94,4.927c3.324,3.285 4.985,7.285 4.985,11.999c0,4.715 -1.661,8.695 -4.985,11.941c-3.323,3.246 -7.303,4.869 -11.94,4.869Z" style="fill:#ee6a6a;fill-rule:nonzero;"/><path d="M744.155,237.201l-0,-56.458l-14.955,-0l-0,-25.853l14.955,0l-0,-45.792l28.519,0l-0,45.792l26.316,0l-0,25.853l-26.316,-0l-0,53.444c-0,6.492 1.159,11.071 3.478,13.738c2.318,2.666 6.144,3.999 11.477,3.999c3.864,0 7.187,-0.309 9.97,-0.927l-0,25.388c-4.406,1.005 -9.313,1.507 -14.723,1.507c-25.814,0 -38.721,-13.563 -38.721,-40.691Z" style="fill:#ee6a6a;fill-rule:nonzero;"/><path d="M868.88,152.224c9.352,0 17.467,1.855 24.345,5.565c6.879,3.71 11.477,8.501 13.796,14.375l0,-17.274l28.519,0l-0,83.586c-0,5.101 0.676,8.714 2.029,10.84c1.352,2.125 3.613,3.188 6.782,3.188c0.463,-0 2.434,-0.193 5.912,-0.58l-0,23.07c-3.323,1.237 -7.999,1.855 -14.028,1.855c-7.11,0 -12.636,-1.236 -16.578,-3.71c-5.332,-3.709 -8.578,-8.54 -9.738,-14.491c-8.269,12.521 -21.949,18.781 -41.039,18.781c-16.926,-0 -31.185,-6.029 -42.778,-18.085c-11.439,-12.134 -17.158,-27.012 -17.158,-44.633c0,-17.699 5.719,-32.5 17.158,-44.402c11.593,-12.057 25.852,-18.085 42.778,-18.085Zm3.71,99.005c10.356,-0 19.012,-3.478 25.968,-10.434c7.11,-6.879 10.666,-15.573 10.666,-26.084c-0,-10.512 -3.556,-19.206 -10.666,-26.085c-6.956,-6.956 -15.612,-10.434 -25.968,-10.434c-9.97,0 -18.433,3.478 -25.389,10.434c-6.647,6.879 -9.97,15.573 -9.97,26.085c-0,10.511 3.323,19.205 9.97,26.084c6.956,6.956 15.419,10.434 25.389,10.434Z" style="fill:#ee6a6a;fill-rule:nonzero;"/></g></g><g><path d="M1022.59,151.065c19.09,-0 35.049,6.878 47.879,20.635l-17.505,18.317c-8.27,-8.733 -18.395,-13.1 -30.374,-13.1c-10.511,0 -19.322,3.555 -26.432,10.666c-6.956,7.188 -10.434,16.153 -10.434,26.896c-0,10.665 3.478,19.592 10.434,26.78c7.11,7.11 15.921,10.665 26.432,10.665c12.057,0 22.181,-4.328 30.374,-12.984l17.505,18.201c-12.907,13.834 -28.867,20.751 -47.879,20.751c-18.317,0 -33.775,-6.028 -46.372,-18.085c-12.521,-11.979 -18.781,-27.089 -18.781,-45.328c-0,-18.085 6.26,-33.118 18.781,-45.097c12.829,-12.212 28.287,-18.317 46.372,-18.317Z" style="fill:#fff6f0;fill-rule:nonzero;"/><g><path d="M1087.14,246.475l-0,-91.585l28.402,0l0,84.05c0,4.714 0.599,7.98 1.797,9.796c1.198,1.816 3.382,2.724 6.55,2.724c1.778,0 3.44,-0.154 4.985,-0.463l0,23.997c-3.091,1.237 -7.844,1.855 -14.259,1.855c-18.317,0 -27.475,-10.124 -27.475,-30.374Zm14.143,-105.612c-4.792,-0 -8.83,-1.623 -12.115,-4.869c-3.284,-3.246 -4.927,-7.226 -4.927,-11.941c0,-4.714 1.643,-8.714 4.927,-11.999c3.285,-3.284 7.323,-4.927 12.115,-4.927c4.637,0 8.618,1.643 11.941,4.927c3.323,3.285 4.985,7.285 4.985,11.999c-0,4.715 -1.662,8.695 -4.985,11.941c-3.323,3.246 -7.304,4.869 -11.941,4.869Z" style="fill:#fff6f0;fill-rule:nonzero;"/><path d="M1156.57,259.807c-12.675,-12.056 -19.012,-27.089 -19.012,-45.096c-0,-18.008 6.337,-33.041 19.012,-45.097c12.83,-12.212 28.287,-18.317 46.372,-18.317c18.008,-0 33.427,6.105 46.256,18.317c12.675,12.056 19.013,27.089 19.013,45.097c-0,18.007 -6.338,33.04 -19.013,45.096c-12.829,12.212 -28.248,18.317 -46.256,18.317c-18.085,0 -33.542,-6.105 -46.372,-18.317Zm46.372,-7.651c10.434,-0 19.206,-3.555 26.316,-10.666c7.111,-7.342 10.666,-16.268 10.666,-26.779c-0,-10.589 -3.555,-19.438 -10.666,-26.549c-7.11,-7.342 -15.882,-11.013 -26.316,-11.013c-10.665,0 -19.553,3.671 -26.664,11.013c-6.956,7.188 -10.433,16.037 -10.433,26.549c-0,10.433 3.477,19.36 10.433,26.779c7.111,7.111 15.999,10.666 26.664,10.666Z" style="fill:#fff6f0;fill-rule:nonzero;"/><path d="M1315.61,274.531l-28.171,-0l0,-119.641l28.171,0l0,17.042c2.86,-5.874 7.497,-10.588 13.912,-14.143c6.415,-3.555 13.757,-5.333 22.027,-5.333c14.066,-0 25.021,4.27 32.866,12.81c7.844,8.54 11.767,20.269 11.767,35.185l-0,37.793c-0,4.715 0.56,7.98 1.681,9.796c1.12,1.817 3.226,2.725 6.318,2.725c1.159,-0 2.512,-0.155 4.058,-0.464l-0,23.998c-3.324,0.927 -7.459,1.391 -12.405,1.391c-18.626,-0 -27.939,-10.434 -27.939,-31.301l-0,-39.88c-0,-8.27 -2.222,-14.781 -6.666,-19.535c-4.444,-4.753 -10.608,-7.129 -18.491,-7.129c-7.961,-0 -14.472,2.589 -19.534,7.767c-5.063,5.178 -7.594,11.864 -7.594,20.056l0,68.863Z" style="fill:#fff6f0;fill-rule:nonzero;"/><path d="M1418.42,215.638l0,-0.927c0,-18.781 5.874,-34.045 17.622,-45.793c11.825,-11.593 26.857,-17.389 45.097,-17.389c17.466,-0 31.649,5.796 42.546,17.389c11.052,11.516 16.578,25.814 16.578,42.894c0,2.473 -0.154,5.797 -0.464,9.97l-93.092,0c0.464,9.507 3.961,17.119 10.492,22.839c6.531,5.719 15.052,8.578 25.563,8.578c12.366,0 23.147,-4.598 32.344,-13.795l17.042,16.578c-13.602,14.298 -30.374,21.447 -50.314,21.447c-18.78,-0 -34.045,-5.642 -45.792,-16.926c-11.748,-11.284 -17.622,-26.239 -17.622,-44.865Zm28.983,-13.796l63.878,0c-0,-7.033 -3.015,-13.1 -9.043,-18.201c-5.951,-5.255 -12.984,-7.883 -21.099,-7.883c-8.811,-0 -16.462,2.55 -22.955,7.651c-6.492,5.101 -10.085,11.246 -10.781,18.433Z" style="fill:#fff6f0;fill-rule:nonzero;"/><path d="M1548.83,253.431l18.201,-15.419c2.783,4.406 6.995,8 12.637,10.782c5.642,2.782 11.979,4.173 19.012,4.173c7.111,0 12.443,-1.217 15.999,-3.651c3.555,-2.435 5.332,-5.584 5.332,-9.449c0,-4.019 -2.28,-7.187 -6.839,-9.506c-2.087,-1.236 -5.836,-2.744 -11.246,-4.521c-7.806,-2.473 -12.713,-4.135 -14.723,-4.985c-9.893,-3.555 -17.273,-7.999 -22.142,-13.332c-4.87,-5.333 -7.304,-12.134 -7.304,-20.404c-0,-10.975 4.057,-19.669 12.173,-26.084c8.501,-6.492 18.548,-9.738 30.141,-9.738c16.617,-0 29.524,5.873 38.721,17.621l-15.882,16.81c-5.256,-6.647 -13.023,-9.97 -23.302,-9.97c-4.406,-0 -7.922,0.985 -10.55,2.956c-2.628,1.971 -3.942,4.541 -3.942,7.71c0,3.323 1.817,6.105 5.449,8.347c1.778,1.082 5.024,2.511 9.738,4.289c1.005,0.232 5.99,1.893 14.955,4.985c11.13,3.942 19.264,8.753 24.404,14.433c5.139,5.681 7.709,12.733 7.709,21.158c-0,11.438 -4.231,20.635 -12.694,27.591c-8.463,6.956 -20.617,10.434 -36.46,10.434c-11.825,-0 -22.047,-2.145 -30.664,-6.434c-8.617,-4.29 -14.858,-10.222 -18.723,-17.796Z" style="fill:#fff6f0;fill-rule:nonzero;"/></g></g></g><g><g><path d="M303.151,158.007c0,-0 -29.02,108.303 -42.921,160.185c-4.009,14.959 -19.377,23.847 -34.301,19.848c-49.872,-13.363 -155.357,-41.628 -205.229,-54.991c-14.924,-3.999 -23.79,-19.38 -19.782,-34.339l42.922,-160.185l259.311,69.482Z" style="fill:#ffb45e;"/></g><g><path d="M301.693,163.448l-41.467,154.758c-4.009,14.961 -19.377,23.845 -34.3,19.846l-164.031,-43.952c126.976,-24.898 179.392,-74.601 239.798,-130.652Z" style="fill:#c9cde9;"/></g><g><path d="M175.085,10.956c8.931,-5.271 19.578,-6.738 29.527,-4.072c10.076,2.7 18.563,9.294 23.662,18.324c27.51,48.862 74.877,132.798 74.877,132.798l-259.311,-69.482c0,-0 82.99,-49.007 131.245,-77.568Z" style="fill:#ffd9ad;"/></g><g><path d="M178.44,104.971c19.769,-21.213 39.846,-30.096 57.454,-31.689c25.197,-2.271 46.48,10.064 58.448,26.553c22.409,30.847 12.628,77.856 -28.3,116.519c-26.811,26.773 -81.979,46.415 -126.754,57.052c-3.991,0.946 -8.184,-0.178 -11.158,-2.99c-33.443,-31.586 -71.378,-76.148 -81.207,-112.646c-16.173,-54.047 -1.139,-99.685 33.703,-115.201c18.617,-8.293 43.216,-8.334 63.893,6.229c14.462,10.187 27.398,27.915 33.921,56.173Z" style="fill:#ee6a6a;"/></g><g><path d="M62.17,191.141c-0.742,-1.498 -0.675,-3.3 -0.243,-4.916c1.422,-5.307 6.519,-26.656 8.629,-34.529c0.425,-1.59 1.604,-2.882 3.125,-3.515c1.522,-0.632 3.261,-0.524 4.609,0.268c51.399,29.018 106.676,43.562 165.639,44.353c1.658,0.022 3.218,0.8 4.219,2.109c0.905,1.282 1.28,2.985 0.856,4.57c-2.108,7.867 -8.077,28.59 -9.501,33.902c-0.434,1.62 -1.12,3.404 -2.573,4.171c-41.616,21.021 -62.991,26.661 -99.168,35.926c-2.79,0.708 -5.647,-0.276 -7.86,-2.106c-27.774,-22.875 -51.468,-47.393 -67.732,-80.233Z" style="fill:#fff;"/></g></g></svg>