<?xml version="1.0" encoding="UTF-8" standalone="no"?><!DOCTYPE svg PUBLIC "-//W3C//DTD SVG 1.1//EN" "http://www.w3.org/Graphics/SVG/1.1/DTD/svg11.dtd"><svg width="100%" height="100%" viewBox="0 0 1182 189" version="1.1" xmlns="http://www.w3.org/2000/svg" xmlns:xlink="http://www.w3.org/1999/xlink" xml:space="preserve" xmlns:serif="http://www.serif.com/" style="fill-rule:evenodd;clip-rule:evenodd;stroke-linejoin:round;stroke-miterlimit:2;"><path d="M17.161,158.132l-5.447,-1.46c-8.427,-2.258 -13.433,-10.943 -11.17,-19.39l24.236,-90.449l0.002,0.001c-2.964,11.066 -2.617,24.542 1.739,39.099c1.776,6.594 5.176,13.653 9.598,20.79c8.52,13.751 20.834,27.788 32.628,39.328c-2.782,4.071 -42.199,11.677 -51.585,12.081Z" style="fill:#bf9983;"/><path d="M170.378,89.139l-23.412,87.377l-0.002,0.008c-2.264,8.448 -10.941,13.464 -19.368,11.206l-92.621,-24.818c0.005,-0.001 0.01,-0.002 0.016,-0.003c73.654,-10.452 109.244,-42.537 135.387,-73.77Z" style="fill:#bf9983;"/><path d="M78.491,15.045c7.25,-4.286 14.261,-8.433 20.307,-12.011c5.043,-2.976 11.055,-3.805 16.673,-2.299c5.689,1.525 10.482,5.248 13.361,10.347c3.448,6.124 7.448,13.223 11.585,20.563c-2.548,-0.23 -5.178,-0.239 -7.875,0.004l-0.002,0c-8.819,0.798 -18.68,4.345 -28.613,12.399c-4.576,-11.943 -11.34,-19.944 -18.584,-25.046c-2.225,-1.567 -4.517,-2.88 -6.851,-3.957Z" style="fill:#656a8d;"/><path d="M22.891,59.918c0.162,-4.642 0.804,-9.025 1.891,-13.084c3.25,-12.133 10.48,-21.368 20.769,-25.95c10.512,-4.683 24.402,-4.706 36.077,3.517c8.166,5.752 15.47,15.762 19.154,31.718c11.163,-11.978 22.499,-16.994 32.442,-17.893c14.228,-1.282 26.245,5.683 33.003,14.993c6.497,8.943 8.202,20.291 5.195,32.173c0,0 -14.3,15.419 -31.771,27.408c0.099,-0.361 6.372,-20.923 6.453,-21.223c0.239,-0.895 0.028,-1.857 -0.483,-2.58c-0.565,-0.739 -1.446,-1.178 -2.382,-1.191c-33.294,-0.447 -64.506,-8.659 -93.529,-25.044c-0.761,-0.447 -1.743,-0.508 -2.602,-0.151c-0.859,0.357 -1.525,1.087 -1.765,1.985c-0.658,2.455 -7.308,25.14 -8.362,29.429c-10.164,-14.096 -12.989,-27.441 -14.016,-33.613c-0.04,-0.239 -0.061,-0.395 -0.074,-0.495Z" style="fill:#dc6a6a;"/><g transform="matrix(0.310164,0,0,0.310164,-8.925115,-314.16759)"><text x="733.88px" y="1574.64px" style="font-family:'HurmeGeometricSans4-SemiBold', 'Hurme Geometric Sans 4', sans-serif;font-weight:600;font-size:574.112px;fill:#dc6a6a;">N<tspan x="1164.984px 1477.229px 1607.261px 1793.919px " y="1574.64px 1574.64px 1574.64px 1574.64px ">vita</tspan></text><g transform="matrix(574.111639,0,0,574.111639,3850.723511,1574.640334)"></g><text x="2152.979px" y="1574.64px" style="font-family:'HurmeGeometricSans4-SemiBold', 'Hurme Geometric Sans 4', sans-serif;font-weight:600;font-size:574.112px;fill:#656a8d;">c<tspan x="2453.73px 2588.528px 2938.056px 3267.682px 3592.541px " y="1574.64px 1574.64px 1574.64px 1574.64px 1574.64px ">iones</tspan></text></g></svg>