<svg width="294" height="74" viewBox="0 0 294 74" fill="none" xmlns="http://www.w3.org/2000/svg">
<path fill-rule="evenodd" clip-rule="evenodd" d="M33.8939 69.3853C16.8136 69.3853 2.94568 55.6153 2.94568 38.6546C2.94568 21.6949 16.8136 7.9249 33.8939 7.9249C50.9751 7.9249 64.8431 21.6949 64.8431 38.6546" fill="#484F8C"/>
<path fill-rule="evenodd" clip-rule="evenodd" d="M37.5434 46.3852C37.9119 46.3896 38.2534 46.3744 38.5211 46.3279C39.4609 46.166 40.1475 45.7463 40.5828 45.3052C41.0261 44.8552 41.4568 44.1134 41.5911 43.1033C41.7758 41.7254 41.3154 39.2595 41.3154 39.2586C40.5675 35.5186 41.6497 31.4869 44.5665 28.5897C49.2081 23.981 56.7458 23.981 61.3873 28.5897C63.6563 30.8436 64.8304 33.7828 64.8656 36.739C64.8674 36.8562 64.8665 48.2086 64.8665 58.2046C64.8665 60.8396 66.4542 64.4472 68.8457 66.8621C69.2882 67.2943 69.4224 67.9492 69.1873 68.5192C68.9521 69.0891 68.3934 69.4604 67.7734 69.4604C52.671 69.4676 31.9971 69.4676 31.9052 69.4667C28.928 69.4318 25.9678 68.266 23.6989 66.0121C19.0573 61.4033 19.0573 53.9197 23.6989 49.3109C26.6293 46.4013 30.713 45.3303 34.4949 46.0935L37.5434 46.3852Z" fill="#D03200"/>
<path d="M80.2356 56.7625C77.4446 56.7625 76.0492 56.3666 76.0492 55.5748C76.0492 54.9216 76.4153 54.3872 77.1477 53.9715C78.4739 53.2194 79.2459 52.5464 79.4636 51.9526C79.6813 51.339 79.7902 48.4788 79.7902 43.3719C79.7902 38.2453 79.6318 35.2466 79.3151 34.3756C79.0182 33.4849 78.464 32.7525 77.6525 32.1785C76.8409 31.6045 76.4351 31.1393 76.4351 30.7831C76.4351 30.4268 76.7024 30.0903 77.2368 29.7736C78.4838 29.0412 80.4632 28.675 83.1749 28.675C83.9865 28.675 84.6199 28.9521 85.0752 29.5064C85.2335 29.7043 85.4512 30.1398 85.7283 30.8128C86.0253 31.4659 86.2232 31.7925 86.3222 31.7925C86.6982 31.7728 87.2822 31.5055 88.0739 30.9909C90.8055 29.1501 93.2797 28.2297 95.4966 28.2297H95.556H96.5061C98.1094 28.2297 99.5543 28.6255 100.841 29.4173C102.128 30.209 103.117 31.3967 103.81 32.9802C104.523 34.5637 104.879 38.0177 104.879 43.3423C104.879 48.647 104.988 51.6161 105.205 52.2495C105.443 52.8631 106.086 53.4371 107.135 53.9715C108.204 54.506 108.739 55.0305 108.739 55.5452C108.739 56.4359 105.928 56.8812 100.307 56.8812H99.4158C97.6343 56.8812 96.7436 56.4557 96.7436 55.6045C96.7436 55.4264 96.9614 55.0008 97.3968 54.3278C97.8323 53.635 98.1292 52.873 98.2875 52.0416C98.4459 51.2103 98.5251 48.4788 98.5251 43.847C98.5251 39.1954 98.2381 36.2066 97.664 34.8804C96.8723 33.0594 95.556 32.1488 93.7152 32.1488C92.3692 32.1488 91.0628 32.4655 89.796 33.0989C88.549 33.7125 87.6385 34.5934 87.0644 35.7414C86.5102 36.8697 86.2331 39.5913 86.2331 43.9064C86.2331 48.2016 86.3519 50.8045 86.5894 51.715C86.8269 52.6058 87.1139 53.3282 87.4504 53.8825L88.549 55.6639C88.549 56.4359 86.9952 56.8219 83.8875 56.8219L82.0764 56.7625H80.2356ZM123.691 57.386H123.008C122.078 57.386 121.157 56.5249 120.247 54.8029C119.792 53.932 118.396 50.5175 116.06 44.5596C113.725 38.6016 112.3 35.1674 111.785 34.2569C111.27 33.3266 110.469 32.5051 109.38 31.7925C108.291 31.0602 107.747 30.5059 107.747 30.1299C107.747 29.5163 108.182 29.1204 109.053 28.9422C109.924 28.7641 111.914 28.675 115.021 28.675C118.129 28.675 119.683 29.1204 119.683 30.0111C119.683 30.0705 119.574 30.3971 119.356 30.9909C119.138 31.5649 119.03 32.1983 119.03 32.8911C119.03 35.6029 120.573 40.5315 123.661 47.6771C124.235 48.9835 124.641 49.6367 124.879 49.6367C125.116 49.6367 125.502 49.0429 126.037 47.8552C129.223 40.8086 130.817 35.9196 130.817 33.188C130.817 32.515 130.559 31.8024 130.045 31.0503C129.53 30.2981 129.273 29.9121 129.273 29.8923C129.273 29.0412 131.114 28.6156 134.795 28.6156H135.508C137.923 28.6156 139.13 29.0313 139.13 29.8626C139.13 30.5752 138.606 31.2779 137.557 31.9707C136.507 32.6437 135.706 33.4849 135.152 34.4944C134.894 34.9497 133.578 38.1266 131.203 44.0251C128.827 49.9039 127.224 53.6054 126.393 55.1295C125.561 56.6338 124.661 57.386 123.691 57.386ZM150.43 18.8771C150.43 19.748 150.054 20.5595 149.302 21.3117C148.57 22.0441 147.837 22.4103 147.105 22.4103C146.947 22.4499 146.818 22.4696 146.719 22.4696L146.066 22.529C145.076 22.529 144.185 22.2024 143.394 21.5492C142.622 20.896 142.236 20.0548 142.236 19.0255V18.4911C142.236 17.4618 142.642 16.6008 143.453 15.908C144.284 15.1954 145.235 14.8391 146.303 14.8391H146.452L147.461 14.9579C148.075 14.9579 148.708 15.2944 149.362 15.9674C150.035 16.6206 150.371 17.2837 150.371 17.9567L150.43 18.2239V18.8771ZM140.989 32.1191C139.96 31.6243 139.445 31.1591 139.445 30.7237C139.445 30.2882 139.653 29.9418 140.068 29.6845C141.513 28.8136 143.8 28.3781 146.927 28.3781H147.788C148.857 28.3781 149.461 28.873 149.599 29.8626C149.678 30.3971 149.718 33.9996 149.718 40.6701C149.718 47.3208 149.856 51.141 150.134 52.1307C150.411 53.1006 151.074 53.8528 152.123 54.3872C153.172 54.9019 153.696 55.4264 153.696 55.9608C153.696 56.713 151.242 57.0891 146.333 57.0891L145.442 57.1188H141.82C140.375 57.1188 139.653 56.7625 139.653 56.0499C139.653 55.4561 140.088 54.8821 140.959 54.3278C141.85 53.7736 142.463 53.16 142.8 52.487C143.176 51.7546 143.364 50.0425 143.364 47.3505L143.394 46.4004V45.48L143.423 44.0845V43.1641L143.453 42.2437C143.453 37.5526 143.295 34.821 142.978 34.049C142.681 33.2573 142.018 32.614 140.989 32.1191ZM168.263 53.0808L172.776 52.3979C173.29 52.3979 173.548 52.8037 173.548 53.6153C173.548 54.407 172.786 55.2285 171.261 56.0796C169.737 56.9307 168.134 57.3563 166.452 57.3563H165.858C164.532 57.3563 163.334 57.0099 162.265 56.3171C161.196 55.6243 160.414 54.7732 159.92 53.7637C159.068 52.0021 158.643 48.6668 158.643 43.7579C158.643 38.8293 158.465 35.7513 158.108 34.5241C157.772 33.2969 157.327 32.4556 156.772 32.0004C155.743 31.169 155.228 30.7138 155.228 30.6346C155.228 30.12 155.496 29.6845 156.03 29.3282C157.396 28.4177 158.138 27.9031 158.257 27.7843C158.395 27.6457 159.158 26.0226 160.543 22.915C161.236 21.3711 162.018 20.5991 162.889 20.5991C163.779 20.5991 164.373 20.9158 164.67 21.5492C164.749 21.7076 164.918 22.5686 165.175 24.1323C165.452 25.696 165.838 26.7055 166.333 27.1608C166.828 27.5963 167.926 28.0218 169.628 28.4375C171.331 28.8334 172.182 29.4074 172.182 30.1596C172.182 30.9117 171.242 31.4758 169.361 31.8519C167.481 32.228 166.343 32.713 165.947 33.3068C165.254 34.3163 164.908 37.1666 164.908 41.8577C164.908 46.5489 165.125 49.508 165.561 50.7352C166.115 52.299 167.016 53.0808 168.263 53.0808ZM193.518 37.701V36.7806C193.518 35.3158 192.993 33.9996 191.944 32.8317C190.895 31.6441 189.608 31.0503 188.084 31.0503H187.52C187.243 31.0899 187.055 31.1097 186.956 31.1097C185.57 31.1097 184.254 31.9014 183.007 33.4849C181.78 35.0684 181.166 36.7608 181.166 38.562V38.948C181.166 39.5814 181.542 39.8981 182.295 39.8981C182.591 39.9575 182.75 39.9872 182.77 39.9872L183.453 40.0169H183.631L183.838 39.9872L189.569 39.6606L190.638 39.5418C192.558 39.5418 193.518 38.9282 193.518 37.701ZM181.166 45.5691C181.166 47.8256 182.017 49.7159 183.72 51.24C185.422 52.7641 187.58 53.5262 190.192 53.5262C191.241 53.5262 192.191 53.3777 193.043 53.0808C193.914 52.7641 194.854 52.388 195.863 51.9526C196.893 51.5171 197.536 51.2994 197.793 51.2994C198.585 51.2994 198.981 51.7249 198.981 52.5761C198.981 53.7241 197.516 54.9513 194.587 56.2577C192.686 57.1089 190.648 57.5344 188.47 57.5344H187.817C184.096 57.5344 181.008 56.4062 178.554 54.1497C177.227 52.9225 176.198 51.3588 175.466 49.4585C174.733 47.5385 174.367 45.48 174.367 43.2829L174.397 42.6V41.9171C174.397 40.0169 174.832 38.1464 175.703 36.3055C176.594 34.4647 177.653 32.9505 178.88 31.7629C181.473 29.2688 184.551 28.0119 188.114 27.9921C193.498 27.9921 197.081 30.0903 198.862 34.2866C199.416 35.6128 199.693 36.8301 199.693 37.9385V38.5323C199.693 39.8981 199.129 40.8185 198.001 41.2936C196.873 41.7488 194.21 42.1249 190.014 42.4218C185.818 42.7187 183.542 42.9167 183.185 43.0157C181.839 43.3521 181.166 44.2033 181.166 45.5691ZM206.896 57.7126C205.867 57.7126 204.927 57.3464 204.076 56.614C203.225 55.8816 202.799 54.9216 202.799 53.734V53.4668C202.799 52.3188 203.234 51.3687 204.105 50.6165C204.996 49.8643 205.897 49.4882 206.807 49.4882H207.342C207.639 49.5476 207.856 49.5773 207.995 49.5773C208.688 49.5773 209.41 49.9534 210.162 50.7056C210.914 51.4577 211.291 52.3287 211.291 53.3183V53.734C211.291 54.6445 210.924 55.5254 210.192 56.3765C209.479 57.2078 208.658 57.6235 207.728 57.6235L207.045 57.7126H206.896Z" fill="#D03200"/>
<path d="M235.655 51.4478C235.813 50.6759 235.892 48.0334 235.892 43.5204C235.892 39.0074 235.546 36.0581 234.853 34.6725C234.16 33.287 232.874 32.5942 230.993 32.5942C229.865 32.5942 228.697 33.0396 227.49 33.9303C226.282 34.8012 225.481 35.7711 225.085 36.84C224.689 37.9088 224.491 40.4029 224.491 44.322C224.491 48.2214 224.521 50.6264 224.58 51.5369C224.659 52.4474 224.808 53.16 225.026 53.6746L225.411 54.4169C225.728 55.0305 225.887 55.4759 225.887 55.753C225.887 56.4854 224.372 56.8515 221.344 56.8515C218.315 56.8515 216.346 56.5447 215.435 55.9311L214.901 55.367C214.901 54.8128 215.099 54.3377 215.495 53.9419C216.682 52.7344 217.385 51.814 217.603 51.1806C217.821 50.5472 217.929 47.7464 217.929 42.7781C217.929 37.7901 217.504 34.534 216.653 33.0099L216.029 32.2082C215.515 31.555 215.257 31.0602 215.257 30.7237C215.257 30.3674 215.623 29.9616 216.356 29.5064C217.108 29.0313 218.266 28.7938 219.83 28.7938C221.413 28.7938 222.601 29.2193 223.393 30.0705C224.184 30.9018 224.748 31.3175 225.085 31.3175L225.976 30.9018L228.232 29.5657C230.073 28.5958 231.943 28.1109 233.844 28.1109C235.744 28.1109 237.555 28.6948 239.277 29.8626C240.999 31.0107 242.078 31.5847 242.513 31.5847L243.523 31.1097L244.621 30.4565C245.552 29.9022 246.551 29.4074 247.62 28.9719C248.649 28.5365 250.015 28.3187 251.718 28.3187C254.964 28.3187 257.26 29.6647 258.606 32.3567C259.595 34.3361 260.09 38.9678 260.09 46.2519C260.09 49.3794 260.189 51.2004 260.387 51.715C260.585 52.2099 261.12 52.8136 261.991 53.5262C262.861 54.2388 263.297 54.6544 263.297 54.7732V55.4858L262.733 56.0202C261.783 56.5942 259.368 56.8812 255.488 56.8812C253.628 56.8812 252.697 56.426 252.697 55.5155C252.697 55.4165 252.826 54.9711 253.083 54.1794C253.36 53.3876 253.519 52.7542 253.558 52.2792C253.618 51.7843 253.647 49.2606 253.647 44.708C253.647 40.1554 253.42 37.3051 252.965 36.1571C252.529 34.9893 251.975 34.0985 251.302 33.4849C250.649 32.8515 249.649 32.5348 248.303 32.5348C246.957 32.5348 245.819 32.901 244.889 33.6334C243.958 34.3657 243.305 35.1872 242.929 36.0977C242.553 36.9884 242.365 39.7002 242.365 44.233C242.365 48.7658 242.503 51.3884 242.781 52.101C243.058 52.7938 243.572 53.4767 244.325 54.1497C245.096 54.8227 245.482 55.268 245.482 55.4858C245.482 56.4755 243.75 56.9703 240.287 56.9703H236.13C234.052 56.9703 233.012 56.6734 233.012 56.0796C233.012 55.466 233.27 54.8821 233.784 54.3278C234.893 53.16 235.516 52.2 235.655 51.4478ZM283.861 37.701V36.7806C283.861 35.3158 283.336 33.9996 282.287 32.8317C281.238 31.6441 279.951 31.0503 278.427 31.0503H277.863C277.586 31.0899 277.398 31.1097 277.299 31.1097C275.913 31.1097 274.597 31.9014 273.35 33.4849C272.123 35.0684 271.509 36.7608 271.509 38.562V38.948C271.509 39.5814 271.885 39.8981 272.638 39.8981C272.935 39.9575 273.093 39.9872 273.113 39.9872L273.796 40.0169H273.974L274.182 39.9872L279.912 39.6606L280.981 39.5418C282.901 39.5418 283.861 38.9282 283.861 37.701ZM271.509 45.5691C271.509 47.8256 272.36 49.7159 274.063 51.24C275.765 52.7641 277.923 53.5262 280.535 53.5262C281.584 53.5262 282.535 53.3777 283.386 53.0808C284.257 52.7641 285.197 52.388 286.206 51.9526C287.236 51.5171 287.879 51.2994 288.136 51.2994C288.928 51.2994 289.324 51.7249 289.324 52.5761C289.324 53.7241 287.859 54.9513 284.93 56.2577C283.029 57.1089 280.991 57.5344 278.813 57.5344H278.16C274.439 57.5344 271.351 56.4062 268.897 54.1497C267.57 52.9225 266.541 51.3588 265.809 49.4585C265.076 47.5385 264.71 45.48 264.71 43.2829L264.74 42.6V41.9171C264.74 40.0169 265.175 38.1464 266.046 36.3055C266.937 34.4647 267.996 32.9505 269.223 31.7629C271.816 29.2688 274.894 28.0119 278.457 27.9921C283.841 27.9921 287.424 30.0903 289.205 34.2866C289.759 35.6128 290.036 36.8301 290.036 37.9385V38.5323C290.036 39.8981 289.472 40.8185 288.344 41.2936C287.216 41.7488 284.554 42.1249 280.357 42.4218C276.161 42.7187 273.885 42.9167 273.528 43.0157C272.182 43.3521 271.509 44.2033 271.509 45.5691Z" fill="#484F8C"/>
</svg>
