<?xml version="1.0" encoding="UTF-8" standalone="no"?>
<!DOCTYPE svg PUBLIC "-//W3C//DTD SVG 1.1//EN" "http://www.w3.org/Graphics/SVG/1.1/DTD/svg11.dtd">
<svg width="100%" height="100%" viewBox="0 0 1648 349" version="1.1" xmlns="http://www.w3.org/2000/svg" xmlns:xlink="http://www.w3.org/1999/xlink" xml:space="preserve" xmlns:serif="http://www.serif.com/" style="fill-rule:evenodd;clip-rule:evenodd;stroke-linejoin:round;stroke-miterlimit:2;">
    <g transform="matrix(0.413552,0,0,0.413552,59.7612,-376.665)">
        <text x="733.88px" y="1574.64px" style="font-family:'HurmeGeometricSans4-SemiBold', 'Hurme Geometric Sans 4';font-weight:600;font-size:574.112px;fill:rgb(238,106,106);">N<tspan x="1164.98px 1477.23px 1607.26px 1793.92px " y="1574.64px 1574.64px 1574.64px 1574.64px ">vita</tspan></text>
        <g transform="matrix(574.112,0,0,574.112,4074.38,1574.64)">
        </g>
        <text x="2152.98px" y="1574.64px" style="font-family:'HurmeGeometricSans4-SemiBold', 'Hurme Geometric Sans 4';font-weight:600;font-size:574.112px;fill:rgb(255,246,240);">c<tspan x="2453.73px 2588.53px 2938.06px 3267.68px 3592.54px " y="1574.64px 1574.64px 1574.64px 1574.64px 1574.64px ">iones</tspan></text>
    </g>
    <g transform="matrix(1.27551,0.341772,-0.341772,1.27551,-38717.2,-12545.8)">
        <g transform="matrix(1,0,0,1.12987,0.333333,-217.649)">
            <path d="M31032.3,1648.21C31032.3,1648.21 31032.3,1723.36 31032.3,1759.36C31032.3,1769.74 31022.8,1778.16 31011.1,1778.16C30972,1778.16 30889.3,1778.16 30850.2,1778.16C30838.5,1778.16 30829,1769.74 30829,1759.36L30829,1648.21L31032.3,1648.21Z" style="fill:rgb(255,180,94);"/>
        </g>
        <g transform="matrix(1,0,0,1,0.333333,0)">
            <path d="M31032.3,1648.88L31032.3,1770.21C31032.3,1781.94 31022.8,1791.45 31011.1,1791.45L30882.5,1791.45C30970.5,1748.35 30999.1,1701.72 31032.3,1648.88Z" style="fill:rgb(201,205,233);"/>
        </g>
        <g transform="matrix(1,0,0,1.78531,0.333333,-1350.28)">
            <path d="M30909.8,1631.33C30915.3,1628.19 30922.8,1626.42 30930.6,1626.42C30938.5,1626.42 30946,1628.19 30951.5,1631.33C30981.2,1648.33 31032.3,1677.52 31032.3,1677.52L30829,1677.52C30829,1677.52 30880.1,1648.33 30909.8,1631.33Z" style="fill:rgb(255,217,173);"/>
        </g>
        <g transform="matrix(7.10063,-2.22045e-16,-2.22045e-16,6.70052,27480.3,1200.27)">
            <path d="M485.973,64.173C487.424,61.279 489.247,59.722 491.017,59.033C493.55,58.048 496.083,58.772 497.771,60.222C500.931,62.934 501.221,68.352 498.072,73.77C496.049,77.477 490.908,81.235 486.589,83.706C486.204,83.926 485.741,83.926 485.357,83.706C481.04,81.236 475.902,77.481 473.882,73.784C470.724,68.357 471.013,62.935 474.174,60.222C475.863,58.772 478.396,58.048 480.928,59.033C482.699,59.722 484.521,61.279 485.973,64.173Z" style="fill:rgb(238,106,106);"/>
        </g>
        <g transform="matrix(0.760725,2.77556e-17,-2.77556e-17,0.760725,7675.5,970.959)">
            <path d="M30480.6,979.492C30479.5,978.243 30479.1,976.493 30479.1,974.828C30479.1,969.359 30478.5,947.517 30478.5,939.403C30478.5,937.765 30479.3,936.219 30480.6,935.218C30481.9,934.218 30483.6,933.874 30485.1,934.288C30542,948.948 30598.9,948.691 30655.8,934.26C30657.4,933.853 30659.1,934.2 30660.4,935.2C30661.6,936.2 30662.4,937.741 30662.4,939.374C30662.4,947.482 30662,968.946 30662,974.421C30662,976.09 30661.8,977.983 30660.6,979.095C30626,1010.03 30606.9,1020.96 30574.5,1039.19C30572,1040.59 30569,1040.38 30566.4,1039.19C30533.8,1024.35 30504.7,1006.88 30480.6,979.492Z" style="fill:white;"/>
        </g>
    </g>
</svg>
