<?xml version="1.0" encoding="UTF-8" standalone="no"?>
<!DOCTYPE svg PUBLIC "-//W3C//DTD SVG 1.1//EN" "http://www.w3.org/Graphics/SVG/1.1/DTD/svg11.dtd">
<svg width="100%" height="100%" viewBox="0 0 66 85" version="1.1" xmlns="http://www.w3.org/2000/svg" xmlns:xlink="http://www.w3.org/1999/xlink" xml:space="preserve" xmlns:serif="http://www.serif.com/" style="fill-rule:evenodd;clip-rule:evenodd;stroke-linejoin:round;stroke-miterlimit:2;">
    <g transform="matrix(0.971243,0,0,0.971243,-1885.428449,-967.323732)">
        <g>
            <g transform="matrix(0.852451,0,0,0.852451,172.968179,203.745924)">
                <g transform="matrix(0.203942,0,0,0.203942,2096.493421,951.808613)">
                    <path d="M17.161,158.132L11.714,156.672C3.287,154.414 -1.719,145.729 0.544,137.282L24.78,46.833L24.782,46.834C21.818,57.9 22.165,71.376 26.521,85.933C28.297,92.527 31.697,99.586 36.119,106.723C44.639,120.474 56.953,134.511 68.747,146.051C65.965,150.122 26.548,157.728 17.162,158.132L17.161,158.132Z" style="fill:white;"/>
                </g>
                <g transform="matrix(0.203942,0,0,0.203942,2096.493421,951.808613)">
                    <path d="M170.378,89.139L146.966,176.516L146.964,176.524C144.7,184.972 136.023,189.988 127.596,187.73L34.975,162.912C34.98,162.911 34.985,162.91 34.991,162.909C108.645,152.457 144.235,120.372 170.378,89.139Z" style="fill:white;"/>
                </g>
                <g transform="matrix(0.203942,0,0,0.203942,2096.493421,951.808613)">
                    <path d="M78.491,15.045C85.741,10.759 92.752,6.612 98.798,3.034C103.841,0.058 109.853,-0.771 115.471,0.735C121.16,2.26 125.953,5.983 128.832,11.082C132.28,17.206 136.28,24.305 140.417,31.645C137.869,31.415 135.239,31.406 132.542,31.649L132.54,31.649C123.721,32.447 113.86,35.994 103.927,44.048C99.351,32.105 92.587,24.104 85.343,19.002C83.118,17.435 80.826,16.122 78.492,15.045L78.491,15.045Z" style="fill:white;"/>
                </g>
                <g transform="matrix(0.203942,0,0,0.203942,2096.493421,951.808613)">
                    <path d="M22.891,59.918C23.053,55.276 23.695,50.893 24.782,46.834C28.032,34.701 35.262,25.466 45.551,20.884C56.063,16.201 69.953,16.178 81.628,24.401C89.794,30.153 97.098,40.163 100.782,56.119C111.945,44.141 123.281,39.125 133.224,38.226C147.452,36.944 159.469,43.909 166.227,53.219C172.724,62.162 174.429,73.51 171.422,85.392C171.422,85.392 157.122,100.811 139.651,112.8C139.75,112.439 146.023,91.877 146.104,91.577C146.343,90.682 146.132,89.72 145.621,88.997C145.056,88.258 144.175,87.819 143.239,87.806C109.945,87.359 78.733,79.147 49.71,62.762C48.949,62.315 47.967,62.254 47.108,62.611C46.249,62.968 45.583,63.698 45.343,64.596C44.685,67.051 38.035,89.736 36.981,94.025C26.817,79.929 23.992,66.584 22.965,60.412C22.925,60.173 22.904,60.017 22.891,59.917L22.891,59.918Z" style="fill:white;"/>
                </g>
            </g>
            <g transform="matrix(1.141952,0,0,1.141952,-7343.058129,-151.462456)">
                <path d="M8159.897,1004.794C8162.583,1004.794 8164.907,1010.112 8167.954,1011.102C8171.001,1012.092 8176.006,1009.156 8178.179,1010.734C8180.351,1012.313 8179.106,1017.981 8180.989,1020.573C8182.872,1023.164 8188.648,1023.732 8189.477,1026.286C8190.307,1028.84 8185.968,1032.693 8185.968,1035.897C8185.968,1039.1 8190.307,1042.954 8189.477,1045.508C8188.648,1048.062 8182.872,1048.629 8180.989,1051.221C8179.106,1053.813 8180.351,1059.48 8178.179,1061.059C8176.006,1062.637 8171.001,1059.702 8167.954,1060.692C8164.907,1061.682 8162.583,1066.999 8159.897,1066.999C8157.212,1066.999 8154.888,1061.682 8151.841,1060.692C8148.794,1059.702 8143.789,1062.637 8141.616,1061.059C8139.443,1059.48 8140.689,1053.813 8138.806,1051.221C8136.923,1048.629 8131.147,1048.062 8130.318,1045.508C8129.488,1042.954 8133.827,1039.1 8133.827,1035.897C8133.827,1032.693 8129.488,1028.84 8130.318,1026.286C8131.147,1023.732 8136.923,1023.164 8138.806,1020.573C8140.689,1017.981 8139.443,1012.313 8141.616,1010.734C8143.789,1009.156 8148.794,1012.092 8151.841,1011.102C8154.888,1010.112 8157.212,1004.794 8159.897,1004.794ZM8159.897,1013.286C8147.419,1013.286 8137.287,1023.418 8137.287,1035.897C8137.287,1048.376 8147.419,1058.507 8159.897,1058.507C8172.376,1058.507 8182.508,1048.376 8182.508,1035.897C8182.508,1023.418 8172.376,1013.286 8159.897,1013.286Z" style="fill:white;"/>
            </g>
        </g>
        <path d="M1996.028,1060.216C1998.113,1058.701 1997.639,1050.633 1997.639,1050.633L1999.366,1083.364L1975.152,1076.121L1950.937,1083.364L1952.937,1050.633C1952.937,1050.633 1952.19,1058.701 1954.275,1060.216C1956.756,1062.018 1962.472,1058.666 1965.952,1059.796C1969.431,1060.927 1972.085,1066.999 1975.152,1066.999C1978.219,1066.999 1980.872,1060.927 1984.352,1059.796C1987.831,1058.666 1993.547,1062.018 1996.028,1060.216Z" style="fill:white;"/>
    </g>
</svg>
