<?xml version="1.0" encoding="UTF-8" standalone="no"?><!DOCTYPE svg PUBLIC "-//W3C//DTD SVG 1.1//EN" "http://www.w3.org/Graphics/SVG/1.1/DTD/svg11.dtd"><svg width="100%" height="100%" viewBox="0 0 114 89" version="1.1" xmlns="http://www.w3.org/2000/svg" xmlns:xlink="http://www.w3.org/1999/xlink" xml:space="preserve" xmlns:serif="http://www.serif.com/" style="fill-rule:evenodd;clip-rule:evenodd;stroke-linejoin:round;stroke-miterlimit:2;"><path d="M62.644,39.774l-19.222,-0l-9.944,-19.969l-2.486,5.001c-0.364,0.767 -0.546,1.534 -0.546,2.3c0,0.73 0.121,1.424 0.485,2.118l5.215,10.55l-16.372,-0l0,-0.292c2.789,-0 4.123,-1.46 4.851,-2.884c-0,-0 10.791,-21.728 14.538,-29.272c0.401,-0.808 0.356,-1.766 -0.119,-2.533c-0.475,-0.767 -1.313,-1.233 -2.216,-1.233c0,-0 -0,-0 -0,-0l-0,-0.292l19.221,-0l9.944,19.969l2.487,-5.002c0.363,-0.73 0.545,-1.533 0.545,-2.3c0,-0.693 -0.121,-1.423 -0.485,-2.117l-3.638,-7.374c-0.728,-1.424 -2.062,-2.884 -4.851,-2.884l0,-0.292l19.222,-0l9.944,19.969l2.486,-5.002c0.364,-0.73 0.546,-1.533 0.546,-2.3c-0,-0.693 -0.121,-1.423 -0.485,-2.117l-5.215,-10.55l13.097,-0l-18.13,36.506l-11.642,-23.328c0,0 -6.711,13.517 -9.566,19.269c-0.402,0.809 -0.357,1.767 0.118,2.533c0.476,0.767 1.314,1.234 2.216,1.234c0,-0 0.001,-0 0.002,-0l-0,0.292Z" style="fill:#656a8d;"/><g><path d="M3.771,51.682l6.404,-0l0,0.234c-0.597,-0 -1.004,0.044 -1.222,0.132c-0.183,0.082 -0.332,0.214 -0.448,0.397c-0.115,0.184 -0.173,0.391 -0.173,0.621c0,0.286 0.109,0.679 0.326,1.181l0.265,0.632l3.166,7.737l2.21,-6.668c0.285,-0.855 0.427,-1.494 0.427,-1.914c0,-0.313 -0.056,-0.616 -0.168,-0.912c-0.112,-0.295 -0.259,-0.534 -0.443,-0.717c-0.176,-0.177 -0.378,-0.302 -0.606,-0.377c-0.227,-0.075 -0.517,-0.112 -0.87,-0.112l-0,-0.234l6.547,-0l-0,0.234c-0.401,-0 -0.691,0.014 -0.871,0.041c-0.18,0.027 -0.348,0.085 -0.504,0.173c-0.204,0.122 -0.368,0.297 -0.494,0.524c-0.125,0.227 -0.188,0.474 -0.188,0.738c-0,0.245 0.095,0.669 0.285,1.273l2.505,8.074l2.799,-6.873c0.435,-1.052 0.652,-1.866 0.652,-2.443c-0,-0.604 -0.2,-1.032 -0.601,-1.283c-0.244,-0.149 -0.614,-0.224 -1.109,-0.224l-0,-0.234l4.713,-0l0,0.234c-0.454,0.047 -0.799,0.134 -1.033,0.26c-0.234,0.125 -0.467,0.354 -0.697,0.687c-0.34,0.475 -0.764,1.334 -1.273,2.576l-4.184,10.14l-0.418,0l-3.624,-10.843l-3.676,10.843l-0.458,0l-4.551,-10.955l-0.305,-0.743c-0.211,-0.502 -0.387,-0.865 -0.53,-1.089c-0.142,-0.224 -0.316,-0.401 -0.519,-0.53c-0.163,-0.108 -0.34,-0.187 -0.53,-0.234c-0.19,-0.048 -0.458,-0.085 -0.804,-0.112l0,-0.234Z" style="fill:#656a8d;fill-rule:nonzero;"/><path d="M37.471,51.682l0.173,3.36l-0.234,0.01c-0.088,-0.57 -0.234,-1.042 -0.438,-1.415c-0.203,-0.374 -0.499,-0.703 -0.886,-0.988c-0.319,-0.238 -0.695,-0.406 -1.13,-0.504c-0.434,-0.098 -1.011,-0.148 -1.731,-0.148l-2.331,0l-0,6.109l0.611,0c0.617,0 1.082,-0.041 1.395,-0.122c0.312,-0.081 0.566,-0.227 0.763,-0.438c0.19,-0.197 0.331,-0.429 0.423,-0.697c0.091,-0.268 0.168,-0.664 0.229,-1.186l0.234,0.01l-0.041,5.457l-0.234,-0c-0.061,-0.523 -0.151,-0.943 -0.27,-1.262c-0.118,-0.319 -0.283,-0.591 -0.493,-0.815c-0.204,-0.217 -0.469,-0.377 -0.795,-0.478c-0.325,-0.102 -0.739,-0.153 -1.242,-0.153l-0.58,-0l-0,2.331c-0,0.93 0.024,1.607 0.071,2.031c0.048,0.425 0.139,0.779 0.275,1.064c0.231,0.489 0.582,0.847 1.054,1.075c0.472,0.227 1.094,0.341 1.868,0.341c0.815,-0 1.497,-0.104 2.047,-0.311c0.549,-0.207 0.997,-0.528 1.343,-0.962c0.245,-0.292 0.443,-0.625 0.596,-0.998c0.153,-0.373 0.294,-0.865 0.423,-1.476l0.234,0.01l-0.133,4.052l-12.146,0l0,-0.234c0.387,-0.02 0.701,-0.075 0.942,-0.163c0.241,-0.088 0.456,-0.231 0.646,-0.427c0.211,-0.218 0.355,-0.494 0.433,-0.83c0.078,-0.336 0.117,-0.85 0.117,-1.543l0,-7.503c0,-0.693 -0.039,-1.207 -0.117,-1.543c-0.078,-0.336 -0.222,-0.612 -0.433,-0.83c-0.183,-0.196 -0.395,-0.339 -0.636,-0.427c-0.241,-0.088 -0.558,-0.143 -0.952,-0.163l0,-0.234l10.945,-0Z" style="fill:#656a8d;fill-rule:nonzero;"/><path d="M39.517,65.345c0.394,-0.02 0.71,-0.075 0.947,-0.163c0.238,-0.088 0.452,-0.231 0.642,-0.427c0.21,-0.218 0.354,-0.494 0.432,-0.83c0.078,-0.336 0.117,-0.85 0.117,-1.543l0,-7.503c0,-0.747 -0.045,-1.293 -0.137,-1.639c-0.092,-0.347 -0.27,-0.632 -0.534,-0.856c-0.333,-0.278 -0.822,-0.434 -1.467,-0.468l0,-0.234l5.6,-0c1.242,-0 2.033,0.013 2.372,0.041c1.433,0.108 2.647,0.515 3.645,1.221c0.95,0.672 1.69,1.553 2.22,2.642c0.529,1.09 0.794,2.276 0.794,3.559c-0,0.936 -0.151,1.82 -0.453,2.652c-0.302,0.831 -0.721,1.522 -1.258,2.072c-0.753,0.774 -1.693,1.266 -2.82,1.476c-0.841,0.156 -1.7,0.234 -2.576,0.234l-7.524,0l0,-0.234Zm4.368,-13.348l0,10.121c0,0.665 0.038,1.17 0.112,1.517c0.075,0.346 0.214,0.641 0.418,0.885c0.434,0.53 1.14,0.794 2.117,0.794c0.835,0 1.55,-0.137 2.143,-0.412c0.594,-0.275 1.125,-0.721 1.594,-1.339c0.461,-0.597 0.813,-1.281 1.054,-2.051c0.241,-0.771 0.361,-1.59 0.361,-2.459c0,-0.964 -0.146,-1.88 -0.438,-2.749c-0.292,-0.869 -0.709,-1.629 -1.252,-2.281c-0.753,-0.902 -1.653,-1.5 -2.698,-1.791c-0.57,-0.157 -1.297,-0.235 -2.179,-0.235l-1.232,0Z" style="fill:#656a8d;fill-rule:nonzero;"/><path d="M55.614,65.345c0.394,-0.02 0.709,-0.075 0.947,-0.163c0.237,-0.088 0.451,-0.231 0.641,-0.427c0.211,-0.218 0.355,-0.494 0.433,-0.83c0.078,-0.336 0.117,-0.85 0.117,-1.543l0,-7.503c0,-0.747 -0.046,-1.293 -0.137,-1.639c-0.092,-0.347 -0.27,-0.632 -0.535,-0.856c-0.333,-0.278 -0.821,-0.434 -1.466,-0.468l-0,-0.234l5.6,-0c1.242,-0 2.033,0.013 2.372,0.041c1.432,0.108 2.647,0.515 3.645,1.221c0.95,0.672 1.69,1.553 2.219,2.642c0.53,1.09 0.794,2.276 0.794,3.559c0,0.936 -0.151,1.82 -0.453,2.652c-0.302,0.831 -0.721,1.522 -1.257,2.072c-0.753,0.774 -1.694,1.266 -2.82,1.476c-0.842,0.156 -1.701,0.234 -2.576,0.234l-7.524,0l-0,-0.234Zm4.368,-13.348l-0,10.121c-0,0.665 0.037,1.17 0.112,1.517c0.074,0.346 0.214,0.641 0.417,0.885c0.435,0.53 1.14,0.794 2.118,0.794c0.835,0 1.549,-0.137 2.143,-0.412c0.594,-0.275 1.125,-0.721 1.593,-1.339c0.462,-0.597 0.813,-1.281 1.054,-2.051c0.241,-0.771 0.362,-1.59 0.362,-2.459c-0,-0.964 -0.146,-1.88 -0.438,-2.749c-0.292,-0.869 -0.71,-1.629 -1.253,-2.281c-0.753,-0.902 -1.652,-1.5 -2.698,-1.791c-0.57,-0.157 -1.296,-0.235 -2.178,-0.235l-1.232,0Z" style="fill:#656a8d;fill-rule:nonzero;"/><path d="M78.216,51.682l0,0.234c-0.387,0.02 -0.7,0.075 -0.941,0.163c-0.241,0.088 -0.457,0.231 -0.647,0.427c-0.265,0.272 -0.428,0.649 -0.489,1.131c-0.04,0.359 -0.061,0.773 -0.061,1.242l0,7.503c0,0.564 0.027,1.008 0.082,1.334c0.054,0.326 0.142,0.587 0.264,0.784c0.177,0.271 0.404,0.473 0.683,0.606c0.278,0.132 0.648,0.212 1.109,0.239l0,0.234l-6.505,0l-0,-0.234c0.393,-0.02 0.711,-0.076 0.951,-0.168c0.241,-0.092 0.454,-0.232 0.637,-0.422c0.217,-0.218 0.363,-0.493 0.438,-0.825c0.074,-0.333 0.112,-0.849 0.112,-1.548l-0,-7.503c-0,-0.699 -0.038,-1.215 -0.112,-1.548c-0.075,-0.332 -0.221,-0.607 -0.438,-0.825c-0.183,-0.196 -0.397,-0.339 -0.642,-0.427c-0.244,-0.088 -0.56,-0.143 -0.946,-0.163l-0,-0.234l6.505,-0Z" style="fill:#656a8d;fill-rule:nonzero;"/><path d="M81.77,53.525l-0,8.857c-0,0.699 0.039,1.215 0.117,1.548c0.078,0.332 0.222,0.607 0.432,0.825c0.19,0.196 0.406,0.339 0.647,0.427c0.241,0.088 0.555,0.143 0.942,0.163l-0,0.234l-4.694,0l0,-0.234c0.387,-0.02 0.701,-0.075 0.942,-0.163c0.241,-0.088 0.456,-0.231 0.646,-0.427c0.211,-0.218 0.355,-0.494 0.433,-0.83c0.078,-0.336 0.117,-0.85 0.117,-1.543l0,-7.513c0,-0.686 -0.039,-1.197 -0.117,-1.533c-0.078,-0.336 -0.222,-0.612 -0.433,-0.83c-0.183,-0.196 -0.395,-0.339 -0.636,-0.427c-0.241,-0.088 -0.558,-0.143 -0.952,-0.163l0,-0.234l3.92,-0l8.267,10.548l0,-7.351c0,-0.699 -0.039,-1.215 -0.117,-1.548c-0.078,-0.332 -0.222,-0.607 -0.433,-0.825c-0.19,-0.196 -0.405,-0.339 -0.646,-0.427c-0.241,-0.088 -0.555,-0.143 -0.942,-0.163l-0,-0.234l4.694,-0l-0,0.234c-0.679,-0 -1.209,0.197 -1.589,0.59c-0.21,0.218 -0.354,0.494 -0.432,0.83c-0.079,0.336 -0.118,0.847 -0.118,1.533l0,10.71l-0.458,0l-9.59,-12.054Z" style="fill:#656a8d;fill-rule:nonzero;"/><path d="M107.711,51.682l0.123,4.429l-0.235,0.02c-0.468,-1.507 -1.069,-2.628 -1.802,-3.365c-0.733,-0.736 -1.619,-1.105 -2.657,-1.105c-0.808,0 -1.502,0.165 -2.082,0.494c-0.58,0.329 -1.122,0.864 -1.624,1.604c-1.018,1.513 -1.527,3.244 -1.527,5.192c-0,0.93 0.122,1.807 0.366,2.632c0.245,0.825 0.601,1.553 1.069,2.184c0.91,1.222 2.02,1.833 3.33,1.833c0.516,-0 1.001,-0.109 1.456,-0.326c0.454,-0.217 0.828,-0.516 1.12,-0.896c0.4,-0.53 0.6,-1.157 0.6,-1.884c0,-0.672 -0.181,-1.157 -0.544,-1.456c-0.364,-0.298 -0.963,-0.448 -1.797,-0.448l-0,-0.234l6.495,0l0,0.234c-0.597,0.055 -1.016,0.138 -1.257,0.25c-0.241,0.112 -0.419,0.304 -0.535,0.575c-0.129,0.299 -0.193,0.893 -0.193,1.782c-0,0.244 0.013,0.624 0.041,1.14l0.02,0.234c-0.258,-0.095 -0.448,-0.142 -0.57,-0.142c-0.15,-0 -0.34,0.078 -0.57,0.234c-0.591,0.407 -1.276,0.719 -2.057,0.937c-0.781,0.217 -1.605,0.325 -2.474,0.325c-1.195,0 -2.272,-0.203 -3.233,-0.611c-0.96,-0.407 -1.739,-0.99 -2.336,-1.751c-0.448,-0.57 -0.793,-1.249 -1.034,-2.036c-0.241,-0.787 -0.361,-1.622 -0.361,-2.505c-0,-1.214 0.217,-2.345 0.652,-3.39c0.434,-1.045 1.045,-1.907 1.832,-2.586c0.645,-0.55 1.388,-0.974 2.23,-1.273c0.842,-0.298 1.731,-0.448 2.667,-0.448c0.543,0 1.047,0.051 1.512,0.153c0.465,0.102 0.959,0.268 1.482,0.499l0.6,0.275c0.15,0.061 0.285,0.092 0.408,0.092c0.271,-0 0.478,-0.221 0.621,-0.662l0.264,-0Z" style="fill:#656a8d;fill-rule:nonzero;"/></g><g><path d="M12.827,78.28l0,3.655c0,0.692 0.039,1.206 0.117,1.542c0.078,0.336 0.223,0.613 0.433,0.83c0.183,0.19 0.395,0.331 0.636,0.423c0.241,0.091 0.559,0.147 0.952,0.168l0,0.234l-6.505,-0l-0,-0.234c0.393,-0.021 0.711,-0.077 0.952,-0.168c0.24,-0.092 0.453,-0.233 0.636,-0.423c0.217,-0.217 0.363,-0.492 0.438,-0.825c0.074,-0.332 0.112,-0.848 0.112,-1.547l-0,-7.504c-0,-0.583 -0.026,-1.033 -0.077,-1.349c-0.051,-0.315 -0.137,-0.572 -0.259,-0.768c-0.177,-0.272 -0.401,-0.474 -0.672,-0.606c-0.272,-0.133 -0.625,-0.212 -1.059,-0.239l-0.071,-0l-0,-0.235l6.139,0c1.072,0 1.863,0.055 2.372,0.163c0.509,0.109 0.974,0.326 1.395,0.652c0.964,0.733 1.446,1.71 1.446,2.932c-0,1.242 -0.489,2.152 -1.466,2.729c-0.51,0.298 -1.127,0.478 -1.853,0.539c-0.231,0.021 -0.788,0.031 -1.67,0.031l-1.996,-0Zm0,-0.326l0.998,-0c0.672,-0 1.19,-0.049 1.553,-0.148c0.363,-0.098 0.687,-0.28 0.972,-0.544c0.665,-0.604 0.998,-1.409 0.998,-2.413c-0,-0.557 -0.097,-1.068 -0.29,-1.533c-0.194,-0.465 -0.47,-0.843 -0.83,-1.135c-0.414,-0.346 -0.906,-0.55 -1.476,-0.611c-0.157,-0.013 -0.513,-0.02 -1.069,-0.02l-0.856,-0l0,6.404Z" style="fill:#656a8d;fill-rule:nonzero;"/><path d="M20.514,85.132l0,-0.245c0.686,0 1.215,-0.193 1.588,-0.58c0.211,-0.217 0.355,-0.494 0.433,-0.83c0.078,-0.336 0.117,-0.85 0.117,-1.542l0,-7.504c0,-0.719 -0.042,-1.25 -0.127,-1.593c-0.085,-0.343 -0.243,-0.623 -0.473,-0.84c-0.191,-0.177 -0.403,-0.305 -0.637,-0.387c-0.234,-0.081 -0.534,-0.129 -0.901,-0.142l0,-0.235l6.506,0l-0,0.235c-0.373,0.02 -0.679,0.071 -0.916,0.152c-0.238,0.082 -0.448,0.211 -0.632,0.387c-0.23,0.224 -0.386,0.506 -0.468,0.845c-0.081,0.34 -0.122,0.866 -0.122,1.578l-0,5.875c-0,0.903 0.024,1.575 0.071,2.016c0.048,0.441 0.139,0.801 0.275,1.079c0.238,0.489 0.591,0.847 1.059,1.074c0.468,0.227 1.089,0.341 1.863,0.341c0.808,0 1.488,-0.107 2.041,-0.321c0.554,-0.213 1.007,-0.544 1.36,-0.992c0.237,-0.306 0.432,-0.652 0.585,-1.039c0.153,-0.387 0.294,-0.896 0.423,-1.527l0.244,0.02l-0.132,4.175l-12.157,-0Z" style="fill:#656a8d;fill-rule:nonzero;"/><path d="M47.403,85.132l-6.689,-0l-0,-0.234c0.604,-0.055 1.025,-0.157 1.262,-0.306c0.421,-0.265 0.631,-0.631 0.631,-1.099c0,-0.279 -0.095,-0.652 -0.285,-1.12l-0.173,-0.428l-0.977,-2.403l-4.48,0l-0.529,1.405l-0.255,0.631c-0.305,0.747 -0.458,1.334 -0.458,1.762c0,0.251 0.056,0.485 0.168,0.702c0.112,0.218 0.263,0.394 0.453,0.53c0.265,0.183 0.604,0.292 1.018,0.326l0,0.234l-4.561,-0l0,-0.234c0.36,-0.021 0.675,-0.109 0.947,-0.265c0.271,-0.156 0.536,-0.407 0.794,-0.754c0.217,-0.278 0.429,-0.636 0.636,-1.074c0.207,-0.437 0.481,-1.094 0.82,-1.97l3.726,-9.601l0.581,0l4.428,10.701c0.333,0.808 0.598,1.384 0.795,1.731c0.196,0.346 0.41,0.607 0.641,0.784c0.163,0.122 0.35,0.215 0.56,0.28c0.21,0.064 0.526,0.12 0.947,0.168l-0,0.234Zm-6.394,-6.007l-2.138,-5.274l-2.016,5.274l4.154,-0Z" style="fill:#656a8d;fill-rule:nonzero;"/><path d="M50.243,73.077l0,8.858c0,0.699 0.039,1.215 0.117,1.547c0.079,0.333 0.223,0.608 0.433,0.825c0.19,0.197 0.406,0.339 0.647,0.428c0.241,0.088 0.555,0.142 0.941,0.163l0,0.234l-4.693,-0l-0,-0.234c0.387,-0.021 0.701,-0.075 0.942,-0.163c0.241,-0.089 0.456,-0.231 0.646,-0.428c0.211,-0.217 0.355,-0.494 0.433,-0.83c0.078,-0.336 0.117,-0.85 0.117,-1.542l-0,-7.514c-0,-0.685 -0.039,-1.196 -0.117,-1.532c-0.078,-0.336 -0.222,-0.613 -0.433,-0.83c-0.183,-0.197 -0.395,-0.339 -0.636,-0.428c-0.241,-0.088 -0.558,-0.142 -0.952,-0.162l-0,-0.235l3.92,0l8.267,10.548l-0,-7.351c-0,-0.699 -0.039,-1.215 -0.117,-1.547c-0.078,-0.333 -0.223,-0.608 -0.433,-0.825c-0.19,-0.197 -0.406,-0.339 -0.646,-0.428c-0.241,-0.088 -0.555,-0.142 -0.942,-0.162l-0,-0.235l4.693,0l0,0.235c-0.678,-0 -1.208,0.196 -1.588,0.59c-0.21,0.217 -0.355,0.494 -0.433,0.83c-0.078,0.336 -0.117,0.847 -0.117,1.532l0,10.711l-0.458,-0l-9.591,-12.055Z" style="fill:#656a8d;fill-rule:nonzero;"/><path d="M65.994,73.077l-0,8.858c-0,0.699 0.039,1.215 0.117,1.547c0.078,0.333 0.222,0.608 0.433,0.825c0.19,0.197 0.405,0.339 0.646,0.428c0.241,0.088 0.555,0.142 0.942,0.163l-0,0.234l-4.694,-0l0,-0.234c0.387,-0.021 0.701,-0.075 0.942,-0.163c0.241,-0.089 0.456,-0.231 0.647,-0.428c0.21,-0.217 0.354,-0.494 0.432,-0.83c0.078,-0.336 0.117,-0.85 0.117,-1.542l0,-7.514c0,-0.685 -0.039,-1.196 -0.117,-1.532c-0.078,-0.336 -0.222,-0.613 -0.432,-0.83c-0.184,-0.197 -0.396,-0.339 -0.637,-0.428c-0.241,-0.088 -0.558,-0.142 -0.952,-0.162l0,-0.235l3.92,0l8.267,10.548l0,-7.351c0,-0.699 -0.039,-1.215 -0.117,-1.547c-0.078,-0.333 -0.222,-0.608 -0.433,-0.825c-0.19,-0.197 -0.405,-0.339 -0.646,-0.428c-0.241,-0.088 -0.555,-0.142 -0.942,-0.162l0,-0.235l4.694,0l-0,0.235c-0.679,-0 -1.208,0.196 -1.589,0.59c-0.21,0.217 -0.354,0.494 -0.432,0.83c-0.078,0.336 -0.117,0.847 -0.117,1.532l-0,10.711l-0.459,-0l-9.59,-12.055Z" style="fill:#656a8d;fill-rule:nonzero;"/><path d="M90.133,71.234l0.174,3.36l-0.235,0.01c-0.088,-0.57 -0.234,-1.042 -0.437,-1.415c-0.204,-0.373 -0.499,-0.702 -0.886,-0.987c-0.319,-0.238 -0.696,-0.406 -1.13,-0.504c-0.435,-0.099 -1.012,-0.148 -1.731,-0.148l-2.332,-0l0,6.109l0.611,-0c0.618,-0 1.083,-0.041 1.395,-0.122c0.312,-0.082 0.567,-0.228 0.764,-0.438c0.19,-0.197 0.331,-0.43 0.422,-0.698c0.092,-0.268 0.168,-0.663 0.229,-1.186l0.234,0.01l-0.04,5.458l-0.234,-0c-0.062,-0.523 -0.151,-0.944 -0.27,-1.263c-0.119,-0.319 -0.284,-0.59 -0.494,-0.814c-0.204,-0.218 -0.468,-0.377 -0.794,-0.479c-0.326,-0.102 -0.74,-0.153 -1.242,-0.153l-0.581,0l0,2.332c0,0.93 0.024,1.607 0.072,2.031c0.047,0.424 0.139,0.779 0.275,1.064c0.23,0.489 0.582,0.847 1.053,1.074c0.472,0.227 1.095,0.341 1.869,0.341c0.814,0 1.496,-0.103 2.046,-0.31c0.55,-0.207 0.998,-0.528 1.344,-0.963c0.244,-0.291 0.443,-0.624 0.596,-0.997c0.152,-0.374 0.293,-0.866 0.422,-1.477l0.234,0.011l-0.132,4.052l-12.146,-0l-0,-0.234c0.387,-0.021 0.7,-0.075 0.941,-0.163c0.241,-0.089 0.457,-0.231 0.647,-0.428c0.21,-0.217 0.355,-0.494 0.433,-0.83c0.078,-0.336 0.117,-0.85 0.117,-1.542l-0,-7.504c-0,-0.692 -0.039,-1.206 -0.117,-1.542c-0.078,-0.336 -0.223,-0.613 -0.433,-0.83c-0.183,-0.197 -0.395,-0.339 -0.636,-0.428c-0.241,-0.088 -0.559,-0.142 -0.952,-0.162l-0,-0.235l10.944,0Z" style="fill:#656a8d;fill-rule:nonzero;"/><path d="M96.548,78.331l-0,3.604c-0,0.692 0.039,1.206 0.117,1.542c0.078,0.336 0.222,0.613 0.432,0.83c0.184,0.19 0.396,0.331 0.637,0.423c0.241,0.091 0.558,0.147 0.952,0.168l-0,0.234l-6.506,-0l-0,-0.234c0.394,-0.021 0.711,-0.077 0.952,-0.168c0.241,-0.092 0.453,-0.233 0.636,-0.423c0.217,-0.217 0.363,-0.492 0.438,-0.825c0.075,-0.332 0.112,-0.848 0.112,-1.547l-0,-7.504c-0,-0.699 -0.037,-1.215 -0.112,-1.547c-0.075,-0.333 -0.221,-0.608 -0.438,-0.825c-0.183,-0.197 -0.397,-0.339 -0.641,-0.428c-0.245,-0.088 -0.56,-0.142 -0.947,-0.162l-0,-0.235l4.907,0c0.822,0 1.361,0.004 1.619,0.011c1.052,0.047 1.877,0.19 2.474,0.427c0.672,0.272 1.193,0.677 1.563,1.217c0.37,0.539 0.555,1.166 0.555,1.878c-0,1.059 -0.401,1.908 -1.202,2.546c-0.244,0.19 -0.514,0.346 -0.809,0.468c-0.295,0.122 -0.691,0.237 -1.186,0.346c0.407,0.17 0.709,0.346 0.906,0.529c0.156,0.143 0.299,0.321 0.428,0.535c0.129,0.214 0.322,0.592 0.58,1.135c0.604,1.242 1.061,2.15 1.369,2.724c0.309,0.573 0.569,0.989 0.779,1.247c0.17,0.21 0.334,0.356 0.494,0.438c0.16,0.081 0.378,0.135 0.657,0.163l-0,0.234l-3.38,-0c-0.17,-0.374 -0.279,-0.611 -0.326,-0.713l-0.713,-1.619c-0.428,-0.97 -0.859,-1.829 -1.293,-2.576c-0.434,-0.739 -0.831,-1.245 -1.191,-1.517c-0.183,-0.135 -0.38,-0.232 -0.591,-0.29c-0.21,-0.057 -0.468,-0.086 -0.773,-0.086l-0.499,-0Zm-0,-0.224l0.387,-0c0.841,-0 1.444,-0.048 1.807,-0.143c0.363,-0.095 0.704,-0.292 1.023,-0.59c0.713,-0.679 1.069,-1.521 1.069,-2.525c-0,-0.537 -0.104,-1.04 -0.311,-1.512c-0.207,-0.472 -0.493,-0.861 -0.86,-1.166c-0.285,-0.231 -0.624,-0.392 -1.018,-0.484c-0.394,-0.091 -0.954,-0.137 -1.68,-0.137l-0.417,-0l-0,6.557Z" style="fill:#656a8d;fill-rule:nonzero;"/></g></svg>