<?xml version="1.0" encoding="UTF-8" standalone="no"?>
<!DOCTYPE svg PUBLIC "-//W3C//DTD SVG 1.1//EN" "http://www.w3.org/Graphics/SVG/1.1/DTD/svg11.dtd">
<svg width="100%" height="100%" viewBox="0 0 501 238" version="1.1" xmlns="http://www.w3.org/2000/svg" xmlns:xlink="http://www.w3.org/1999/xlink" xml:space="preserve" xmlns:serif="http://www.serif.com/" style="fill-rule:evenodd;clip-rule:evenodd;stroke-linejoin:round;stroke-miterlimit:2;">
    <path d="M232.556,160.571C223.655,160.571 218.473,154.596 218.473,139.07L218.473,84.281L248.062,86.557L249.566,72.454L219.164,73.958L219.164,42.865L210.263,42.865C205.874,67.272 194.839,76.153 180.024,77.656L180.024,85.054L197.684,85.054L197.684,147.28C197.684,164.269 209.633,173.109 224.367,173.109C236.255,173.109 248.794,167.927 253.183,157.604L248.774,152.421C246.579,156.079 240.604,160.571 232.556,160.571ZM161.551,144.252C155.576,158.274 145.964,159.067 136.352,159.067L105.259,159.067C94.935,159.067 90.444,155.287 90.444,146.467L90.444,100.58C90.444,100.58 112.636,100.58 120.053,101.372C125.967,102.084 128.954,103.587 131.149,110.985L133.344,121.369L142.245,121.369L141.453,94.768L142.956,68.796L134.137,68.796L131.149,80.684C129.666,88.793 128.162,89.585 120.053,91.008C109.73,91.78 90.444,91.78 90.444,91.78L90.444,37.033C90.444,34.756 90.444,34.045 94.204,34.045L140.762,34.045C148.931,34.045 153.361,40.67 156.267,53.961L159.255,64.366L167.363,64.366C168.156,34.756 168.867,22.218 168.867,22.218C168.867,22.218 148.931,24.352 137.124,24.352L77.926,24.352L46.833,23.722L46.833,31.83L57.157,34.005C64.615,35.508 66.81,36.992 66.81,43.617C66.81,43.617 67.602,63.614 67.602,96.84C67.602,130.148 66.81,150.145 66.81,150.145C66.81,156.059 64.615,158.254 57.157,159.758L46.833,162.054L46.833,170.102L78.637,169.39L131.942,169.39C143.749,169.39 171.875,170.102 171.875,170.102C172.566,162.765 176.264,130.189 177.057,126.49L169.578,126.49L161.551,144.252ZM284.297,90.967C284.297,81.335 293.177,77.656 302.078,77.656C309.394,77.656 315.349,80.644 316.893,84.261L322.075,99.076L329.412,98.365C329.412,90.967 330.184,81.335 331.667,73.958C325.002,70.97 311.691,69.467 302.79,69.467C282.793,69.467 267.287,78.429 267.287,97.653C267.287,131.673 316.873,124.275 316.873,149.454C316.873,157.563 311.67,164.269 299.071,164.269C287.264,164.269 282.061,158.294 279.866,152.381L273.973,138.298L266.474,138.298C267.287,147.971 267.978,157.563 266.474,166.383C266.474,166.383 282.061,172.357 297.587,172.357C318.356,172.357 335.346,162.054 335.346,142.748C335.346,108.729 284.297,113.87 284.297,90.967ZM413.728,71.763L413.728,79.16L418.991,80.664C424.112,82.087 426.307,84.281 426.307,88.041C426.307,90.236 425.616,90.967 424.824,93.955C422.629,99.868 408.525,134.66 401.21,150.186C393.39,130.365 385.985,110.385 378.997,90.256C378.286,88.773 378.286,88.061 378.286,87.289C378.286,84.281 380.42,81.355 385.622,80.664L392.308,79.16L392.308,71.763L364.955,73.247L342.682,72.454L342.682,79.932L346.482,81.335C351.583,82.839 352.315,83.57 356.013,91.74C370.096,122.832 385.622,163.456 390.886,176.076C379.018,196.785 366.418,202.678 356.806,202.678C350.892,202.678 348.697,199.691 347.966,195.992L344.999,180.486L336.87,181.197C335.386,190.891 333.882,201.194 331.688,209.303C337.52,213.002 344.206,215.278 353.087,215.257C367.129,215.257 387.126,211.559 406.392,167.866L438.927,91.719C441.874,85.765 442.626,85.033 450.023,82.046L453.742,79.12L453.742,71.763L434.538,72.454L413.728,71.763Z" style="fill:white;fill-rule:nonzero;"/>
</svg>
