<?xml version="1.0" encoding="UTF-8" standalone="no"?><!DOCTYPE svg PUBLIC "-//W3C//DTD SVG 1.1//EN" "http://www.w3.org/Graphics/SVG/1.1/DTD/svg11.dtd"><svg width="100%" height="100%" viewBox="0 0 501 238" version="1.1" xmlns="http://www.w3.org/2000/svg" xmlns:xlink="http://www.w3.org/1999/xlink" xml:space="preserve" xmlns:serif="http://www.serif.com/" style="fill-rule:evenodd;clip-rule:evenodd;stroke-linejoin:round;stroke-miterlimit:2;"><path d="M232.556,160.571c-8.901,-0 -14.083,-5.975 -14.083,-21.501l0,-54.789l29.589,2.276l1.504,-14.103l-30.402,1.504l0,-31.093l-8.901,-0c-4.389,24.407 -15.424,33.288 -30.239,34.791l-0,7.398l17.66,-0l-0,62.226c-0,16.989 11.949,25.829 26.683,25.829c11.888,0 24.427,-5.182 28.816,-15.505l-4.409,-5.183c-2.195,3.658 -8.17,8.15 -16.218,8.15Zm-71.005,-16.319c-5.975,14.022 -15.587,14.815 -25.199,14.815l-31.093,-0c-10.324,-0 -14.815,-3.78 -14.815,-12.6l0,-45.887c0,-0 22.192,-0 29.609,0.792c5.914,0.712 8.901,2.215 11.096,9.613l2.195,10.384l8.901,0l-0.792,-26.601l1.503,-25.972l-8.819,-0l-2.988,11.888c-1.483,8.109 -2.987,8.901 -11.096,10.324c-10.323,0.772 -29.609,0.772 -29.609,0.772l0,-54.747c0,-2.277 0,-2.988 3.76,-2.988l46.558,0c8.169,0 12.599,6.625 15.505,19.916l2.988,10.405l8.108,-0c0.793,-29.61 1.504,-42.148 1.504,-42.148c0,-0 -19.936,2.134 -31.743,2.134l-59.198,-0l-31.093,-0.63l-0,8.108l10.324,2.175c7.458,1.503 9.653,2.987 9.653,9.612c-0,-0 0.792,19.997 0.792,53.223c0,33.308 -0.792,53.305 -0.792,53.305c-0,5.914 -2.195,8.109 -9.653,9.613l-10.324,2.296l-0,8.048l31.804,-0.712l53.305,0c11.807,0 39.933,0.712 39.933,0.712c0.691,-7.337 4.389,-39.913 5.182,-43.612l-7.479,0l-8.027,17.762Zm122.746,-53.285c-0,-9.632 8.88,-13.311 17.781,-13.311c7.316,0 13.271,2.988 14.815,6.605l5.182,14.815l7.337,-0.711c-0,-7.398 0.772,-17.03 2.255,-24.407c-6.665,-2.988 -19.976,-4.491 -28.877,-4.491c-19.997,-0 -35.503,8.962 -35.503,28.186c-0,34.02 49.586,26.622 49.586,51.801c-0,8.109 -5.203,14.815 -17.802,14.815c-11.807,0 -17.01,-5.975 -19.205,-11.888l-5.893,-14.083l-7.499,-0c0.813,9.673 1.504,19.265 0,28.085c0,-0 15.587,5.974 31.113,5.974c20.769,0 37.759,-10.303 37.759,-29.609c-0,-34.019 -51.049,-28.878 -51.049,-51.781Zm129.431,-19.204l-0,7.397l5.263,1.504c5.121,1.423 7.316,3.617 7.316,7.377c0,2.195 -0.691,2.926 -1.483,5.914c-2.195,5.913 -16.299,40.705 -23.614,56.231c-7.82,-19.821 -15.225,-39.801 -22.213,-59.93c-0.711,-1.483 -0.711,-2.195 -0.711,-2.967c0,-3.008 2.134,-5.934 7.336,-6.625l6.686,-1.504l0,-7.397l-27.353,1.484l-22.273,-0.793l-0,7.478l3.8,1.403c5.101,1.504 5.833,2.235 9.531,10.405c14.083,31.092 29.609,71.716 34.873,84.336c-11.868,20.709 -24.468,26.602 -34.08,26.602c-5.914,-0 -8.109,-2.987 -8.84,-6.686l-2.967,-15.506l-8.129,0.711c-1.484,9.694 -2.988,19.997 -5.182,28.106c5.832,3.699 12.518,5.975 21.399,5.954c14.042,0 34.039,-3.698 53.305,-47.391l32.535,-76.147c2.947,-5.954 3.699,-6.686 11.096,-9.673l3.719,-2.926l0,-7.357l-19.204,0.691l-20.81,-0.691Z" style="fill:#656a8d;fill-rule:nonzero;"/></svg>