<?xml version="1.0" encoding="UTF-8" standalone="no"?>
<!DOCTYPE svg PUBLIC "-//W3C//DTD SVG 1.1//EN" "http://www.w3.org/Graphics/SVG/1.1/DTD/svg11.dtd">
<svg width="100%" height="100%" viewBox="0 0 2500 2263" version="1.1" xmlns="http://www.w3.org/2000/svg" xmlns:xlink="http://www.w3.org/1999/xlink" xml:space="preserve" xmlns:serif="http://www.serif.com/" style="fill-rule:evenodd;clip-rule:evenodd;stroke-linejoin:round;stroke-miterlimit:2;">
    <g transform="matrix(0.864283,0,0,0.867516,169.542045,149.904959)">
        <path d="M951.033,1839.36C962.692,1819.374 986.009,1796.056 1029.314,1796.056L1039.307,1796.056L1039.307,1954.284C1062.625,1917.642 1095.936,1899.32 1139.241,1899.32C1232.512,1902.652 1279.147,1962.612 1279.147,2084.197C1279.147,2200.786 1225.849,2260.746 1115.923,2262.412C1005.996,2262.412 951.033,2209.114 951.033,2104.184L951.033,1839.36ZM1112.592,2185.796C1162.558,2185.796 1189.207,2150.819 1189.207,2079.201C1185.876,2010.913 1162.558,1977.602 1114.257,1977.602C1065.956,1977.602 1042.638,2010.913 1039.307,2079.201C1037.642,2149.154 1062.625,2185.796 1112.592,2185.796ZM656.229,1796.056L679.547,1796.056L679.547,2262.412L591.272,2262.412L591.272,1852.685C591.272,1839.36 619.587,1796.056 656.229,1796.056ZM1330.779,2079.201C1334.111,1965.943 1389.074,1902.652 1507.328,1902.652L1533.977,1902.652L1533.977,1994.257L1492.338,1994.257C1442.372,1994.257 1420.72,2025.903 1420.72,2077.535L1420.72,2260.746L1330.779,2260.746L1330.779,2079.201ZM1673.884,2170.806C1688.874,2184.131 1708.861,2190.793 1735.51,2190.793C1753.831,2190.793 1770.486,2185.796 1783.811,2175.803C1797.135,2165.809 1805.463,2155.816 1808.794,2145.823L1892.072,2145.823C1878.748,2187.462 1858.761,2215.776 1830.446,2234.097C1802.132,2252.418 1770.486,2260.746 1730.513,2260.746C1703.864,2260.746 1678.881,2255.749 1657.229,2247.422C1635.576,2239.094 1617.255,2225.769 1602.265,2210.779C1587.275,2194.124 1575.616,2175.803 1567.288,2154.151C1558.961,2132.498 1555.63,2107.515 1555.63,2080.866C1555.63,2055.883 1560.626,2030.899 1568.954,2009.247C1577.282,1987.595 1588.941,1967.608 1603.931,1952.618C1618.921,1935.963 1637.242,1924.304 1658.894,1914.31C1680.546,1904.317 1703.864,1900.986 1730.513,1900.986C1758.827,1900.986 1785.476,1905.983 1807.129,1917.642C1828.781,1929.3 1847.102,1944.29 1860.426,1962.612C1873.751,1980.933 1883.744,2002.585 1890.406,2027.568C1897.069,2050.886 1898.734,2077.535 1897.069,2104.184L1648.901,2104.184C1652.232,2135.829 1660.56,2157.482 1673.884,2170.806ZM1780.48,1990.926C1768.821,1979.267 1752.165,1972.605 1728.847,1972.605C1713.857,1972.605 1700.533,1975.936 1690.54,1980.933C1680.546,1985.929 1672.219,1992.592 1667.222,1999.254C1660.56,2007.582 1657.229,2014.244 1653.897,2022.572C1650.566,2030.899 1650.566,2039.227 1648.901,2045.889L1802.132,2045.889C1800.466,2020.906 1792.139,2002.585 1780.48,1990.926ZM774.48,1796.056L862.754,1796.056L862.754,1876.003L774.48,1876.003L774.48,1796.056ZM774.48,1915.976L862.754,1915.976L862.754,2260.746L774.48,2260.746L774.48,1915.976ZM2455.03,1404.65C2485.01,1441.292 2500,1484.597 2498.334,1531.233C2498.334,1579.534 2481.679,1622.838 2455.03,1657.815C2428.381,1694.457 2381.746,1711.113 2325.117,1711.113C2266.822,1711.113 2221.852,1692.791 2195.203,1657.815C2166.889,1624.504 2151.899,1581.199 2151.899,1531.233C2151.899,1482.931 2168.554,1439.627 2195.203,1404.65C2221.852,1366.342 2268.488,1349.687 2325.117,1349.687C2383.411,1349.687 2428.381,1369.674 2455.03,1404.65ZM2385.077,1611.179C2400.067,1591.193 2405.063,1564.544 2405.063,1532.898C2405.063,1501.252 2400.067,1472.938 2385.077,1456.282C2370.087,1439.627 2350.1,1429.634 2325.117,1429.634C2300.133,1429.634 2280.147,1439.627 2265.157,1456.282C2251.832,1472.938 2245.17,1497.921 2245.17,1532.898C2245.17,1566.209 2250.167,1594.524 2265.157,1611.179C2280.147,1627.835 2300.133,1637.828 2325.117,1637.828C2350.1,1637.828 2370.087,1627.835 2385.077,1611.179ZM2125.25,1248.088L2120.253,1571.206C2120.253,1571.206 2123.584,1711.113 1958.694,1711.113C1912.059,1711.113 1858.761,1697.788 1832.112,1666.143C1803.797,1637.828 1792.139,1594.524 1792.139,1544.557C1792.139,1484.597 1805.463,1436.296 1832.112,1404.65C1860.426,1371.339 1895.403,1354.684 1940.373,1354.684C1960.36,1354.684 1980.346,1356.349 1995.336,1366.342C2013.658,1378.001 2025.316,1389.66 2035.31,1404.65L2035.31,1309.714C2035.31,1238.095 2125.25,1248.088 2125.25,1248.088ZM2021.985,1611.179C2035.31,1594.524 2038.641,1569.54 2043.638,1539.56C2043.638,1496.256 2031.979,1462.945 2011.992,1446.289C1998.668,1436.296 1983.678,1431.299 1967.022,1431.299C1940.373,1431.299 1922.052,1441.292 1910.393,1461.279C1898.734,1479.6 1893.738,1502.918 1893.738,1532.898C1893.738,1566.209 1898.734,1591.193 1910.393,1611.179C1920.386,1627.835 1940.373,1637.828 1965.356,1637.828C1990.34,1637.828 2010.326,1627.835 2021.985,1611.179ZM1727.182,1374.67C1757.162,1389.66 1770.486,1419.64 1768.821,1456.282L1768.821,1582.865C1768.821,1604.517 1770.486,1714.444 1575.616,1707.781C1543.971,1706.116 1518.987,1697.788 1499.001,1681.133C1479.014,1662.811 1469.021,1637.828 1469.021,1606.183C1469.021,1566.209 1485.676,1532.898 1517.322,1516.243C1535.643,1506.249 1560.626,1499.587 1595.603,1494.59L1625.583,1492.925C1640.573,1491.259 1653.897,1487.928 1660.56,1486.262C1673.884,1481.266 1680.546,1472.938 1680.546,1461.279C1680.546,1446.289 1675.55,1436.296 1665.556,1431.299C1653.897,1426.302 1642.239,1424.637 1622.252,1424.637C1602.265,1424.637 1587.275,1429.634 1577.282,1439.627C1572.285,1447.955 1567.288,1457.948 1565.623,1469.607L1480.68,1469.607C1484.011,1441.292 1490.673,1417.975 1505.663,1397.988C1528.981,1368.008 1570.62,1353.018 1627.249,1353.018C1665.556,1353.018 1697.202,1359.68 1727.182,1374.67ZM1682.212,1569.54L1683.877,1539.56C1678.881,1541.226 1672.219,1544.557 1667.222,1546.223C1658.894,1546.223 1652.232,1549.554 1642.239,1551.219L1622.252,1556.216C1603.931,1557.881 1588.941,1562.878 1582.278,1567.875C1568.954,1576.203 1562.292,1589.527 1562.292,1606.183C1562.292,1621.173 1565.623,1629.5 1573.951,1637.828C1582.278,1646.156 1592.272,1647.821 1603.931,1647.821C1622.252,1647.821 1640.573,1641.159 1657.229,1631.166C1672.219,1619.507 1682.212,1599.52 1682.212,1569.54ZM1285.809,1429.634C1252.498,1429.634 1232.512,1444.624 1217.522,1474.604C1209.194,1487.928 1207.528,1511.246 1207.528,1536.229C1207.528,1561.213 1212.525,1581.199 1217.522,1596.189C1225.849,1624.504 1249.167,1639.494 1279.147,1639.494C1302.465,1639.494 1317.455,1632.831 1327.448,1622.838C1337.442,1611.179 1342.438,1596.189 1344.104,1579.534L1439.041,1579.534C1435.71,1607.848 1425.716,1632.831 1409.061,1657.815C1379.081,1694.457 1335.776,1714.444 1279.147,1714.444C1222.518,1714.444 1179.214,1697.788 1152.565,1666.143C1124.25,1634.497 1112.592,1594.524 1112.592,1541.226C1112.592,1484.597 1127.582,1439.627 1157.562,1406.316C1187.542,1373.005 1229.181,1358.015 1282.478,1358.015C1327.448,1358.015 1365.756,1364.677 1392.405,1384.664C1420.72,1401.319 1437.375,1436.296 1442.372,1484.597L1347.435,1484.597C1347.435,1471.272 1342.438,1459.614 1335.776,1449.62C1324.117,1436.296 1307.462,1429.634 1285.809,1429.634ZM1087.608,1354.684C1090.939,1354.684 1090.939,1354.684 1092.605,1358.015L1099.267,1358.015L1099.267,1447.955C1094.27,1446.289 1089.274,1446.289 1084.277,1446.289L1074.284,1446.289C1037.642,1446.289 1014.324,1459.614 1002.665,1481.266C994.337,1492.925 992.672,1514.577 992.672,1541.226L992.672,1706.116L902.732,1706.116L902.732,1529.567C902.732,1529.567 889.407,1354.684 1087.608,1354.684ZM761.159,1611.179L859.427,1609.514C856.096,1627.835 846.103,1646.156 829.447,1662.811C801.133,1696.123 757.828,1712.778 702.865,1712.778C657.895,1712.778 617.921,1696.123 582.945,1669.474C546.302,1642.825 529.647,1596.189 529.647,1534.564C529.647,1476.269 547.968,1431.299 577.948,1399.654C607.928,1366.342 647.901,1351.352 697.868,1351.352C727.848,1351.352 756.163,1356.349 777.815,1366.342C799.467,1376.336 819.454,1394.657 834.444,1416.309C849.434,1436.296 856.096,1459.614 861.093,1486.262C862.758,1499.587 862.758,1522.905 862.758,1552.885L616.256,1552.885C616.256,1584.53 629.58,1611.179 651.233,1622.838C664.557,1632.831 679.547,1634.497 699.534,1634.497C719.52,1634.497 737.841,1632.831 749.5,1622.838C754.497,1621.173 759.494,1616.176 761.159,1611.179ZM641.239,1446.289C627.915,1459.614 621.252,1476.269 616.256,1496.256L769.487,1496.256C769.487,1472.938 762.825,1454.617 747.835,1442.958C732.845,1431.299 714.524,1426.302 694.537,1426.302C671.219,1426.302 652.898,1434.63 641.239,1446.289ZM491.339,1704.45L408.061,1704.45L408.061,1499.587C408.061,1479.6 403.065,1437.961 348.101,1437.961C313.125,1437.961 286.476,1462.945 286.476,1499.587L286.476,1704.45L203.198,1704.45L203.198,1499.587C203.198,1479.6 198.201,1437.961 143.238,1437.961C108.261,1437.961 83.278,1462.945 83.278,1499.587L83.278,1704.45L-0,1704.45L-0,1501.252C-0,1416.309 54.963,1351.352 141.572,1351.352C184.877,1351.352 219.853,1368.008 244.837,1399.654C269.82,1369.674 304.797,1351.352 348.101,1351.352C438.041,1351.352 489.674,1412.978 489.674,1501.252L491.339,1704.45ZM2045.299,518.57L2045.299,548.55C2045.299,851.682 1737.171,1096.518 1252.494,1096.518C769.483,1096.518 459.69,851.682 459.69,548.55L459.69,518.57C459.69,233.76 814.453,0.582 1252.494,0.582C1690.536,0.582 2045.299,233.76 2045.299,518.57ZM2016.985,518.57C2016.985,250.416 1675.546,32.228 1255.825,32.228C836.105,32.228 494.666,250.416 494.666,518.57C494.666,786.725 836.105,1004.913 1255.825,1004.913C1675.546,1004.913 2016.985,786.725 2016.985,518.57Z" style="fill:white;"/>
    </g>
    <g transform="matrix(0.864283,0,0,0.867516,169.542045,149.904959)">
        <path d="M1678.88,570.208C1603.93,505.251 1430.712,353.685 1382.411,318.709C1355.762,298.722 1337.441,287.063 1320.785,283.732C1314.123,282.066 1304.13,278.735 1290.805,278.735C1279.146,278.735 1265.822,280.401 1252.497,285.397C1222.517,295.391 1192.537,318.709 1162.557,342.026L1160.892,343.692C1134.243,365.344 1105.928,386.996 1084.276,391.993C1074.283,393.659 1065.955,395.324 1055.962,395.324C1032.644,395.324 1010.992,388.662 1002.664,378.669C1000.998,377.003 1002.664,373.672 1005.995,370.341L1072.617,298.722C1124.249,247.09 1172.551,198.788 1285.808,195.457L1290.805,195.457C1360.758,195.457 1430.712,227.103 1439.04,230.434C1505.662,262.08 1572.284,278.735 1640.572,278.735C1712.191,278.735 1785.475,260.414 1862.091,225.437C1853.763,218.775 1843.77,210.447 1835.442,203.785C1767.154,233.765 1703.863,247.09 1640.572,247.09C1577.281,247.09 1513.99,232.1 1452.364,202.12C1449.033,200.454 1372.417,163.812 1290.805,163.812L1284.143,163.812C1189.206,165.477 1135.908,198.788 1100.932,228.768C1065.955,228.768 1035.975,238.762 1009.326,245.424C986.008,252.086 964.356,257.083 944.369,257.083L919.386,257.083C896.068,257.083 779.479,228.768 687.874,192.126C677.88,198.788 669.553,205.451 659.559,212.113C756.162,252.086 874.416,282.066 911.058,285.397C921.052,285.397 932.711,287.063 944.369,287.063C969.353,287.063 992.671,280.401 1017.654,273.739C1032.644,270.407 1047.634,265.411 1062.624,262.08L1049.299,275.404L982.677,348.689C977.681,353.685 966.022,368.675 972.684,385.331C976.015,391.993 982.677,398.655 991.005,405.317C1007.661,415.311 1035.975,423.639 1062.624,423.639C1072.617,423.639 1082.611,421.973 1090.938,420.307C1119.253,413.645 1149.233,390.327 1179.213,365.344C1204.196,345.357 1239.173,320.374 1265.822,312.046C1274.15,310.381 1282.477,308.715 1290.805,308.715L1297.467,308.715C1315.788,310.381 1332.444,317.043 1364.09,340.361C1419.053,382 1663.89,595.191 1665.555,596.856C1665.555,596.856 1680.545,610.181 1680.545,633.499C1680.545,645.158 1672.218,656.816 1660.559,665.144C1650.565,671.806 1638.906,675.138 1628.913,675.138C1612.257,675.138 1600.599,666.81 1600.599,666.81C1600.599,666.81 1515.655,590.194 1485.675,563.545C1480.679,558.549 1475.682,555.218 1470.685,555.218C1467.354,555.218 1465.689,556.883 1464.023,558.549C1459.026,565.211 1464.023,573.539 1470.685,578.535L1568.953,676.803C1568.953,676.803 1580.612,688.462 1582.277,703.452C1582.277,720.108 1575.615,733.432 1558.96,743.425C1547.301,751.753 1535.642,755.084 1523.983,755.084C1508.993,755.084 1499,748.422 1495.669,746.756L1480.679,733.432C1455.695,708.449 1429.046,681.8 1409.06,666.81C1404.063,663.479 1399.066,658.482 1394.07,658.482C1392.404,658.482 1389.073,658.482 1387.407,661.813C1385.742,663.479 1384.076,668.475 1389.073,676.803C1390.739,680.134 1394.07,681.8 1394.07,681.8L1465.689,761.747C1465.689,761.747 1480.679,780.068 1467.354,795.058L1457.361,805.051C1445.702,815.044 1429.046,816.71 1422.384,816.71L1412.391,816.71C1405.729,815.044 1400.732,813.379 1397.401,810.048C1394.07,805.051 1357.427,770.074 1327.447,745.091C1324.116,741.76 1319.12,738.429 1314.123,738.429C1312.457,738.429 1309.126,740.094 1307.461,741.76C1302.464,748.422 1310.792,758.415 1314.123,761.747L1375.749,828.369C1375.749,828.369 1375.749,830.034 1374.083,833.365C1372.417,836.697 1364.09,843.359 1342.437,846.69L1334.11,846.69C1310.792,846.69 1287.474,835.031 1274.15,828.369C1279.146,816.71 1282.477,803.385 1282.477,790.061C1282.477,740.094 1242.504,700.121 1192.537,700.121L1189.206,700.121C1190.872,676.803 1187.541,633.499 1142.571,615.178C1129.246,610.181 1117.587,606.85 1104.263,606.85C1094.269,606.85 1085.942,608.515 1075.948,611.846C1065.955,593.525 1050.965,580.201 1030.978,573.539C1019.319,570.208 1009.326,568.542 997.667,568.542C979.346,568.542 962.691,573.539 947.701,585.198C933.054,567.163 910.973,556.736 887.741,556.883C867.754,556.883 847.767,565.211 834.443,578.535C816.122,563.545 741.172,516.91 539.639,470.274C529.646,468.609 507.994,461.946 494.669,456.95C493.004,466.943 491.338,478.602 489.673,490.261C489.673,490.261 526.315,498.589 534.643,500.254C739.506,545.224 807.794,593.525 819.453,601.853C816.122,611.846 814.456,621.84 814.456,631.833C814.456,675.138 849.433,708.449 891.072,708.449C896.068,708.449 901.065,708.449 906.062,706.783C912.724,738.429 932.711,761.747 964.356,773.405C974.349,776.737 982.677,778.402 991.005,778.402C996.002,778.402 1002.664,778.402 1009.326,776.737C1014.323,791.727 1027.647,810.048 1057.627,821.707C1067.621,826.703 1077.614,828.369 1087.607,828.369C1095.935,828.369 1104.263,826.703 1110.925,823.372C1124.249,856.683 1157.561,880.001 1194.203,880.001C1219.186,880.001 1242.504,870.008 1259.16,851.687C1274.15,860.014 1304.13,875.004 1335.775,875.004L1347.434,875.004C1379.08,871.673 1392.404,858.349 1399.066,850.021C1400.732,848.355 1400.732,846.69 1402.397,845.024C1409.06,846.69 1417.387,848.355 1427.381,848.355C1444.036,848.355 1460.692,843.359 1477.347,830.034C1494.003,818.375 1505.662,801.72 1505.662,786.73C1510.659,788.395 1517.321,788.395 1522.317,788.395C1538.973,788.395 1557.294,783.399 1573.95,771.74C1605.595,751.753 1610.592,723.439 1610.592,706.783C1615.589,708.449 1622.251,708.449 1627.248,708.449C1643.903,708.449 1660.559,703.452 1675.549,693.459C1695.535,680.134 1707.194,661.813 1708.86,640.161C1710.525,625.171 1705.529,610.181 1698.866,596.856C1752.164,573.539 1872.084,530.234 2015.322,496.923C2015.322,485.264 2013.657,475.271 2010.325,463.612C1838.773,500.254 1710.525,555.218 1678.88,570.208ZM1197.534,848.355C1164.223,848.355 1137.574,821.707 1135.908,788.395C1135.908,785.064 1135.908,778.402 1129.246,778.402C1125.915,778.402 1124.249,780.068 1120.918,781.733C1114.256,788.395 1104.263,795.058 1090.938,795.058C1084.276,795.058 1077.614,793.392 1070.952,790.061C1035.975,775.071 1034.309,751.753 1035.975,741.76C1035.975,738.429 1035.975,736.763 1034.309,735.098L1032.644,733.432L1030.978,733.432C1029.313,733.432 1027.647,733.432 1024.316,736.763C1014.323,743.425 1004.329,746.756 994.336,746.756C989.339,746.756 982.677,745.091 977.681,743.425C931.045,725.104 934.376,681.8 937.707,668.475C937.707,665.144 937.707,663.479 936.042,661.813L932.711,658.482L929.379,661.813C919.386,670.141 907.727,675.138 896.068,675.138C869.419,675.138 847.767,653.485 847.767,626.836C847.767,600.188 869.419,578.535 896.068,578.535C919.386,578.535 941.038,596.856 944.369,620.174L946.035,633.499L952.697,621.84C952.697,620.174 972.684,590.194 1009.326,591.86C1015.988,591.86 1022.651,593.525 1030.978,595.191C1059.293,603.519 1064.289,630.168 1064.289,640.161C1064.289,646.823 1069.286,646.823 1069.286,646.823C1070.952,646.823 1074.283,645.158 1074.283,643.492C1079.279,638.495 1090.938,628.502 1109.259,628.502C1117.587,628.502 1125.915,630.168 1135.908,635.164C1180.878,655.151 1160.892,711.78 1160.892,713.445C1157.561,723.439 1155.895,726.77 1160.892,730.101L1164.223,730.101C1165.888,730.101 1169.22,730.101 1172.551,728.435C1179.213,726.77 1187.541,723.439 1195.868,723.439C1229.18,723.439 1257.494,751.753 1257.494,785.064C1259.16,821.707 1230.845,848.355 1197.534,848.355Z" style="fill:white;fill-rule:nonzero;"/>
    </g>
</svg>
