<?xml version="1.0" encoding="UTF-8" standalone="no"?><!DOCTYPE svg PUBLIC "-//W3C//DTD SVG 1.1//EN" "http://www.w3.org/Graphics/SVG/1.1/DTD/svg11.dtd"><svg width="100%" height="100%" viewBox="0 0 2500 2263" version="1.1" xmlns="http://www.w3.org/2000/svg" xmlns:xlink="http://www.w3.org/1999/xlink" xml:space="preserve" xmlns:serif="http://www.serif.com/" style="fill-rule:evenodd;clip-rule:evenodd;stroke-linejoin:round;stroke-miterlimit:2;"><path d="M951.033,1839.36c11.659,-19.986 34.976,-43.304 78.281,-43.304l9.993,-0l0,158.228c23.318,-36.642 56.629,-54.964 99.934,-54.964c93.271,3.332 139.906,63.292 139.906,184.877c0,116.589 -53.298,176.549 -163.224,178.215c-109.927,-0 -164.89,-53.298 -164.89,-158.228l-0,-264.824Zm161.559,346.436c49.966,0 76.615,-34.977 76.615,-106.595c-3.331,-68.288 -26.649,-101.599 -74.95,-101.599c-48.301,-0 -71.619,33.311 -74.95,101.599c-1.665,69.953 23.318,106.595 73.285,106.595Zm-456.363,-389.74l23.318,-0l-0,466.356l-88.275,-0l0,-409.727c0,-13.325 28.315,-56.629 64.957,-56.629Zm674.55,283.145c3.332,-113.258 58.295,-176.549 176.549,-176.549l26.649,-0l0,91.605l-41.639,0c-49.966,0 -71.618,31.646 -71.618,83.278l-0,183.211l-89.941,0l0,-181.545Zm343.105,91.605c14.99,13.325 34.977,19.987 61.626,19.987c18.321,-0 34.976,-4.997 48.301,-14.99c13.324,-9.994 21.652,-19.987 24.983,-29.98l83.278,-0c-13.324,41.639 -33.311,69.953 -61.626,88.274c-28.314,18.321 -59.96,26.649 -99.933,26.649c-26.649,0 -51.632,-4.997 -73.284,-13.324c-21.653,-8.328 -39.974,-21.653 -54.964,-36.643c-14.99,-16.655 -26.649,-34.976 -34.977,-56.628c-8.327,-21.653 -11.658,-46.636 -11.658,-73.285c-0,-24.983 4.996,-49.967 13.324,-71.619c8.328,-21.652 19.987,-41.639 34.977,-56.629c14.99,-16.655 33.311,-28.314 54.963,-38.308c21.652,-9.993 44.97,-13.324 71.619,-13.324c28.314,0 54.963,4.997 76.616,16.656c21.652,11.658 39.973,26.648 53.297,44.97c13.325,18.321 23.318,39.973 29.98,64.956c6.663,23.318 8.328,49.967 6.663,76.616l-248.168,-0c3.331,31.645 11.659,53.298 24.983,66.622Zm106.596,-179.88c-11.659,-11.659 -28.315,-18.321 -51.633,-18.321c-14.99,-0 -28.314,3.331 -38.307,8.328c-9.994,4.996 -18.321,11.659 -23.318,18.321c-6.662,8.328 -9.993,14.99 -13.325,23.318c-3.331,8.327 -3.331,16.655 -4.996,23.317l153.231,0c-1.666,-24.983 -9.993,-43.304 -21.652,-54.963Zm-1006,-194.87l88.274,-0l0,79.947l-88.274,-0l-0,-79.947Zm-0,119.92l88.274,0l0,344.77l-88.274,0l-0,-344.77Zm1680.55,-511.326c29.98,36.642 44.97,79.947 43.304,126.583c0,48.301 -16.655,91.605 -43.304,126.582c-26.649,36.642 -73.284,53.298 -129.913,53.298c-58.295,-0 -103.265,-18.322 -129.914,-53.298c-28.314,-33.311 -43.304,-76.616 -43.304,-126.582c-0,-48.302 16.655,-91.606 43.304,-126.583c26.649,-38.308 73.285,-54.963 129.914,-54.963c58.294,-0 103.264,19.987 129.913,54.963Zm-69.953,206.529c14.99,-19.986 19.986,-46.635 19.986,-78.281c0,-31.646 -4.996,-59.96 -19.986,-76.616c-14.99,-16.655 -34.977,-26.648 -59.96,-26.648c-24.984,-0 -44.97,9.993 -59.96,26.648c-13.325,16.656 -19.987,41.639 -19.987,76.616c-0,33.311 4.997,61.626 19.987,78.281c14.99,16.656 34.976,26.649 59.96,26.649c24.983,0 44.97,-9.993 59.96,-26.649Zm-259.827,-363.091l-4.997,323.118c0,-0 3.331,139.907 -161.559,139.907c-46.635,-0 -99.933,-13.325 -126.582,-44.97c-28.315,-28.315 -39.973,-71.619 -39.973,-121.586c-0,-59.96 13.324,-108.261 39.973,-139.907c28.314,-33.311 63.291,-49.966 108.261,-49.966c19.987,-0 39.973,1.665 54.963,11.658c18.322,11.659 29.98,23.318 39.974,38.308l-0,-94.936c-0,-71.619 89.94,-61.626 89.94,-61.626Zm-103.265,363.091c13.325,-16.655 16.656,-41.639 21.653,-71.619c-0,-43.304 -11.659,-76.615 -31.646,-93.271c-13.324,-9.993 -28.314,-14.99 -44.97,-14.99c-26.649,0 -44.97,9.993 -56.629,29.98c-11.659,18.321 -16.655,41.639 -16.655,71.619c-0,33.311 4.996,58.295 16.655,78.281c9.993,16.656 29.98,26.649 54.963,26.649c24.984,0 44.97,-9.993 56.629,-26.649Zm-294.803,-236.509c29.98,14.99 43.304,44.97 41.639,81.612l-0,126.583c-0,21.652 1.665,131.579 -193.205,124.916c-31.645,-1.665 -56.629,-9.993 -76.615,-26.648c-19.987,-18.322 -29.98,-43.305 -29.98,-74.95c-0,-39.974 16.655,-73.285 48.301,-89.94c18.321,-9.994 43.304,-16.656 78.281,-21.653l29.98,-1.665c14.99,-1.666 28.314,-4.997 34.977,-6.663c13.324,-4.996 19.986,-13.324 19.986,-24.983c0,-14.99 -4.996,-24.983 -14.99,-29.98c-11.659,-4.997 -23.317,-6.662 -43.304,-6.662c-19.987,-0 -34.977,4.997 -44.97,14.99c-4.997,8.328 -9.994,18.321 -11.659,29.98l-84.943,-0c3.331,-28.315 9.993,-51.632 24.983,-71.619c23.318,-29.98 64.957,-44.97 121.586,-44.97c38.307,-0 69.953,6.662 99.933,21.652Zm-44.97,194.87l1.665,-29.98c-4.996,1.666 -11.658,4.997 -16.655,6.663c-8.328,-0 -14.99,3.331 -24.983,4.996l-19.987,4.997c-18.321,1.665 -33.311,6.662 -39.974,11.659c-13.324,8.328 -19.986,21.652 -19.986,38.308c-0,14.99 3.331,23.317 11.659,31.645c8.327,8.328 18.321,9.993 29.98,9.993c18.321,0 36.642,-6.662 53.298,-16.655c14.99,-11.659 24.983,-31.646 24.983,-61.626Zm-396.403,-139.906c-33.311,-0 -53.297,14.99 -68.287,44.97c-8.328,13.324 -9.994,36.642 -9.994,61.625c0,24.984 4.997,44.97 9.994,59.96c8.327,28.315 31.645,43.305 61.625,43.305c23.318,-0 38.308,-6.663 48.301,-16.656c9.994,-11.659 14.99,-26.649 16.656,-43.304l94.937,-0c-3.331,28.314 -13.325,53.297 -29.98,78.281c-29.98,36.642 -73.285,56.629 -129.914,56.629c-56.629,-0 -99.933,-16.656 -126.582,-48.301c-28.315,-31.646 -39.973,-71.619 -39.973,-124.917c-0,-56.629 14.99,-101.599 44.97,-134.91c29.98,-33.311 71.619,-48.301 124.916,-48.301c44.97,-0 83.278,6.662 109.927,26.649c28.315,16.655 44.97,51.632 49.967,99.933l-94.937,-0c0,-13.325 -4.997,-24.983 -11.659,-34.977c-11.659,-13.324 -28.314,-19.986 -49.967,-19.986Zm-198.201,-74.95c3.331,-0 3.331,-0 4.997,3.331l6.662,-0l0,89.94c-4.997,-1.666 -9.993,-1.666 -14.99,-1.666l-9.993,0c-36.642,0 -59.96,13.325 -71.619,34.977c-8.328,11.659 -9.993,33.311 -9.993,59.96l-0,164.89l-89.94,-0l-0,-176.549c-0,-0 -13.325,-174.883 184.876,-174.883Zm-326.449,256.495l98.268,-1.665c-3.331,18.321 -13.324,36.642 -29.98,53.297c-28.314,33.312 -71.619,49.967 -126.582,49.967c-44.97,0 -84.944,-16.655 -119.92,-43.304c-36.643,-26.649 -53.298,-73.285 -53.298,-134.91c-0,-58.295 18.321,-103.265 48.301,-134.91c29.98,-33.312 69.953,-48.302 119.92,-48.302c29.98,0 58.295,4.997 79.947,14.99c21.652,9.994 41.639,28.315 56.629,49.967c14.99,19.987 21.652,43.305 26.649,69.953c1.665,13.325 1.665,36.643 1.665,66.623l-246.502,-0c-0,31.645 13.324,58.294 34.977,69.953c13.324,9.993 28.314,11.659 48.301,11.659c19.986,0 38.307,-1.666 49.966,-11.659c4.997,-1.665 9.994,-6.662 11.659,-11.659Zm-119.92,-164.89c-13.324,13.325 -19.987,29.98 -24.983,49.967l153.231,-0c0,-23.318 -6.662,-41.639 -21.652,-53.298c-14.99,-11.659 -33.311,-16.656 -53.298,-16.656c-23.318,0 -41.639,8.328 -53.298,19.987Zm-149.9,258.161l-83.278,0l0,-204.863c0,-19.987 -4.996,-61.626 -59.96,-61.626c-34.976,0 -61.625,24.984 -61.625,61.626l-0,204.863l-83.278,0l-0,-204.863c-0,-19.987 -4.997,-61.626 -59.96,-61.626c-34.977,0 -59.96,24.984 -59.96,61.626l-0,204.863l-83.278,0l-0,-203.198c-0,-84.943 54.963,-149.9 141.572,-149.9c43.305,0 78.281,16.656 103.265,48.302c24.983,-29.98 59.96,-48.302 103.264,-48.302c89.94,0 141.573,61.626 141.573,149.9l1.665,203.198Zm1553.96,-1185.88l0,29.98c0,303.132 -308.128,547.968 -792.805,547.968c-483.011,0 -792.804,-244.836 -792.804,-547.968l-0,-29.98c-0,-284.81 354.763,-517.988 792.804,-517.988c438.042,0 792.805,233.178 792.805,517.988Zm-28.314,0c-0,-268.154 -341.439,-486.342 -761.16,-486.342c-419.72,-0 -761.159,218.188 -761.159,486.342c0,268.155 341.439,486.343 761.159,486.343c419.721,-0 761.16,-218.188 761.16,-486.343Z" style="fill:#656a8d;"/><path d="M1678.88,570.208c-74.95,-64.957 -248.168,-216.523 -296.469,-251.499c-26.649,-19.987 -44.97,-31.646 -61.626,-34.977c-6.662,-1.666 -16.655,-4.997 -29.98,-4.997c-11.659,0 -24.983,1.666 -38.308,6.662c-29.98,9.994 -59.96,33.312 -89.94,56.629l-1.665,1.666c-26.649,21.652 -54.964,43.304 -76.616,48.301c-9.993,1.666 -18.321,3.331 -28.314,3.331c-23.318,0 -44.97,-6.662 -53.298,-16.655c-1.666,-1.666 -0,-4.997 3.331,-8.328l66.622,-71.619c51.632,-51.632 99.934,-99.934 213.191,-103.265l4.997,0c69.953,0 139.907,31.646 148.235,34.977c66.622,31.646 133.244,48.301 201.532,48.301c71.619,0 144.903,-18.321 221.519,-53.298c-8.328,-6.662 -18.321,-14.99 -26.649,-21.652c-68.288,29.98 -131.579,43.305 -194.87,43.305c-63.291,-0 -126.582,-14.99 -188.208,-44.97c-3.331,-1.666 -79.947,-38.308 -161.559,-38.308l-6.662,-0c-94.937,1.665 -148.235,34.976 -183.211,64.956c-34.977,0 -64.957,9.994 -91.606,16.656c-23.318,6.662 -44.97,11.659 -64.957,11.659l-24.983,-0c-23.318,-0 -139.907,-28.315 -231.512,-64.957c-9.994,6.662 -18.321,13.325 -28.315,19.987c96.603,39.973 214.857,69.953 251.499,73.284c9.994,0 21.653,1.666 33.311,1.666c24.984,-0 48.302,-6.662 73.285,-13.324c14.99,-3.332 29.98,-8.328 44.97,-11.659l-13.325,13.324l-66.622,73.285c-4.996,4.996 -16.655,19.986 -9.993,36.642c3.331,6.662 9.993,13.324 18.321,19.986c16.656,9.994 44.97,18.322 71.619,18.322c9.993,-0 19.987,-1.666 28.314,-3.332c28.315,-6.662 58.295,-29.98 88.275,-54.963c24.983,-19.987 59.96,-44.97 86.609,-53.298c8.328,-1.665 16.655,-3.331 24.983,-3.331l6.662,0c18.321,1.666 34.977,8.328 66.623,31.646c54.963,41.639 299.8,254.83 301.465,256.495c0,0 14.99,13.325 14.99,36.643c0,11.659 -8.327,23.317 -19.986,31.645c-9.994,6.662 -21.653,9.994 -31.646,9.994c-16.656,-0 -28.314,-8.328 -28.314,-8.328c-0,-0 -84.944,-76.616 -114.924,-103.265c-4.996,-4.996 -9.993,-8.327 -14.99,-8.327c-3.331,-0 -4.996,1.665 -6.662,3.331c-4.997,6.662 -0,14.99 6.662,19.986l98.268,98.268c0,0 11.659,11.659 13.324,26.649c0,16.656 -6.662,29.98 -23.317,39.973c-11.659,8.328 -23.318,11.659 -34.977,11.659c-14.99,0 -24.983,-6.662 -28.314,-8.328l-14.99,-13.324c-24.984,-24.983 -51.633,-51.632 -71.619,-66.622c-4.997,-3.331 -9.994,-8.328 -14.99,-8.328c-1.666,0 -4.997,0 -6.663,3.331c-1.665,1.666 -3.331,6.662 1.666,14.99c1.666,3.331 4.997,4.997 4.997,4.997l71.619,79.947c-0,-0 14.99,18.321 1.665,33.311l-9.993,9.993c-11.659,9.993 -28.315,11.659 -34.977,11.659l-9.993,-0c-6.662,-1.666 -11.659,-3.331 -14.99,-6.662c-3.331,-4.997 -39.974,-39.974 -69.954,-64.957c-3.331,-3.331 -8.327,-6.662 -13.324,-6.662c-1.666,-0 -4.997,1.665 -6.662,3.331c-4.997,6.662 3.331,16.655 6.662,19.987l61.626,66.622c-0,-0 -0,1.665 -1.666,4.996c-1.666,3.332 -9.993,9.994 -31.646,13.325l-8.327,-0c-23.318,-0 -46.636,-11.659 -59.96,-18.321c4.996,-11.659 8.327,-24.984 8.327,-38.308c0,-49.967 -39.973,-89.94 -89.94,-89.94l-3.331,-0c1.666,-23.318 -1.665,-66.622 -46.635,-84.943c-13.325,-4.997 -24.984,-8.328 -38.308,-8.328c-9.994,-0 -18.321,1.665 -28.315,4.996c-9.993,-18.321 -24.983,-31.645 -44.97,-38.307c-11.659,-3.331 -21.652,-4.997 -33.311,-4.997c-18.321,-0 -34.976,4.997 -49.966,16.656c-14.647,-18.035 -36.728,-28.462 -59.96,-28.315c-19.987,0 -39.974,8.328 -53.298,21.652c-18.321,-14.99 -93.271,-61.625 -294.804,-108.261c-9.993,-1.665 -31.645,-8.328 -44.97,-13.324c-1.665,9.993 -3.331,21.652 -4.996,33.311c-0,-0 36.642,8.328 44.97,9.993c204.863,44.97 273.151,93.271 284.81,101.599c-3.331,9.993 -4.997,19.987 -4.997,29.98c0,43.305 34.977,76.616 76.616,76.616c4.996,-0 9.993,-0 14.99,-1.666c6.662,31.646 26.649,54.964 58.294,66.622c9.993,3.332 18.321,4.997 26.649,4.997c4.997,0 11.659,0 18.321,-1.665c4.997,14.99 18.321,33.311 48.301,44.97c9.994,4.996 19.987,6.662 29.98,6.662c8.328,-0 16.656,-1.666 23.318,-4.997c13.324,33.311 46.636,56.629 83.278,56.629c24.983,-0 48.301,-9.993 64.957,-28.314c14.99,8.327 44.97,23.317 76.615,23.317l11.659,0c31.646,-3.331 44.97,-16.655 51.632,-24.983c1.666,-1.666 1.666,-3.331 3.331,-4.997c6.663,1.666 14.99,3.331 24.984,3.331c16.655,0 33.311,-4.996 49.966,-18.321c16.656,-11.659 28.315,-28.314 28.315,-43.304c4.997,1.665 11.659,1.665 16.655,1.665c16.656,0 34.977,-4.996 51.633,-16.655c31.645,-19.987 36.642,-48.301 36.642,-64.957c4.997,1.666 11.659,1.666 16.656,1.666c16.655,-0 33.311,-4.997 48.301,-14.99c19.986,-13.325 31.645,-31.646 33.311,-53.298c1.665,-14.99 -3.331,-29.98 -9.994,-43.305c53.298,-23.317 173.218,-66.622 316.456,-99.933c0,-11.659 -1.665,-21.652 -4.997,-33.311c-171.552,36.642 -299.8,91.606 -331.445,106.596Zm-481.346,278.147c-33.311,0 -59.96,-26.648 -61.626,-59.96c0,-3.331 0,-9.993 -6.662,-9.993c-3.331,0 -4.997,1.666 -8.328,3.331c-6.662,6.662 -16.655,13.325 -29.98,13.325c-6.662,-0 -13.324,-1.666 -19.986,-4.997c-34.977,-14.99 -36.643,-38.308 -34.977,-48.301c0,-3.331 0,-4.997 -1.666,-6.662l-1.665,-1.666l-1.666,0c-1.665,0 -3.331,0 -6.662,3.331c-9.993,6.662 -19.987,9.993 -29.98,9.993c-4.997,0 -11.659,-1.665 -16.655,-3.331c-46.636,-18.321 -43.305,-61.625 -39.974,-74.95c0,-3.331 0,-4.996 -1.665,-6.662l-3.331,-3.331l-3.332,3.331c-9.993,8.328 -21.652,13.325 -33.311,13.325c-26.649,-0 -48.301,-21.653 -48.301,-48.302c0,-26.648 21.652,-48.301 48.301,-48.301c23.318,0 44.97,18.321 48.301,41.639l1.666,13.325l6.662,-11.659c0,-1.666 19.987,-31.646 56.629,-29.98c6.662,-0 13.325,1.665 21.652,3.331c28.315,8.328 33.311,34.977 33.311,44.97c0,6.662 4.997,6.662 4.997,6.662c1.666,0 4.997,-1.665 4.997,-3.331c4.996,-4.997 16.655,-14.99 34.976,-14.99c8.328,-0 16.656,1.666 26.649,6.662c44.97,19.987 24.984,76.616 24.984,78.281c-3.331,9.994 -4.997,13.325 -0,16.656l3.331,-0c1.665,-0 4.997,-0 8.328,-1.666c6.662,-1.665 14.99,-4.996 23.317,-4.996c33.312,-0 61.626,28.314 61.626,61.625c1.666,36.643 -26.649,63.291 -59.96,63.291Z" style="fill:#656a8d;fill-rule:nonzero;"/></svg>