<?xml version="1.0" encoding="UTF-8" standalone="no"?><!DOCTYPE svg PUBLIC "-//W3C//DTD SVG 1.1//EN" "http://www.w3.org/Graphics/SVG/1.1/DTD/svg11.dtd"><svg width="100%" height="100%" viewBox="0 0 665 417" version="1.1" xmlns="http://www.w3.org/2000/svg" xmlns:xlink="http://www.w3.org/1999/xlink" xml:space="preserve" xmlns:serif="http://www.serif.com/" style="fill-rule:evenodd;clip-rule:evenodd;stroke-linejoin:round;stroke-miterlimit:2;"><path d="M335.636,146.942c10.891,-16.321 20.158,-31.496 27.798,-45.523c9.115,-16.733 13.673,-30.405 13.673,-41.017c-0,-4.897 -1.293,-9.931 -3.878,-15.1c-2.584,-5.17 -6.394,-9.863 -11.427,-14.081c-5.034,-4.217 -11.291,-7.618 -18.774,-10.203c-7.482,-2.584 -15.985,-3.877 -25.508,-3.877c-21.766,0 -43.533,3.469 -65.299,10.407c-21.767,6.938 -42.649,16.257 -62.647,27.957c-19.998,11.699 -38.704,25.236 -56.117,40.608c-17.414,15.373 -32.514,31.426 -45.302,48.159c-12.788,16.733 -22.855,33.602 -30.201,50.607c-7.347,17.005 -11.02,32.99 -11.02,47.955c0,10.611 2.041,19.25 6.122,25.916c4.081,6.666 9.183,11.903 15.305,15.712c6.122,3.81 12.652,6.462 19.59,7.959c6.938,1.496 13.128,2.245 18.569,2.245c13.06,-0 24.556,-2.381 34.487,-7.143c9.931,-4.761 18.297,-9.318 25.099,-13.672c6.803,-4.353 11.972,-7.346 15.509,-8.979c3.537,-1.632 5.306,0.817 5.306,7.347c-0,6.53 -2.993,12.175 -8.979,16.937c-5.986,4.761 -12.924,8.638 -20.814,11.631c-7.891,2.993 -15.849,5.238 -23.876,6.734c-8.026,1.497 -14.08,2.245 -18.161,2.245c-13.332,0 -26.868,-2.177 -40.608,-6.53c-13.741,-4.353 -26.12,-10.951 -37.14,-19.794c-11.019,-8.843 -19.998,-19.794 -26.936,-32.854c-6.938,-13.06 -10.407,-28.16 -10.407,-45.302c-0,-14.964 4.013,-30.473 12.04,-46.526c8.026,-16.053 19.181,-31.697 33.466,-46.934c14.284,-15.237 31.289,-29.657 51.015,-43.261c19.726,-13.604 41.221,-25.44 64.484,-35.507c23.263,-10.067 47.954,-18.093 74.074,-24.079c26.12,-5.986 52.648,-8.979 79.585,-8.979c10.339,0 21.222,1.36 32.65,4.081c11.427,2.721 21.902,7.074 31.425,13.06c9.523,5.986 17.413,13.74 23.671,23.263c6.258,9.523 9.387,21.087 9.387,34.691c0,8.979 -2.313,19.658 -6.938,32.038c-4.625,12.379 -10.747,25.643 -18.366,39.792c-0.003,0.006 -0.006,0.011 -0.009,0.017l-50.848,0Zm209.812,0c0.687,-5.903 1.03,-11.759 1.03,-17.567c0,-11.155 -1.292,-21.29 -3.877,-30.405c-2.585,-9.115 -5.85,-16.869 -9.795,-23.263c-3.945,-6.394 -8.231,-11.291 -12.856,-14.692c-4.625,-3.401 -8.843,-5.102 -12.652,-5.102c-3.809,-0 -7.006,-0.748 -9.591,-2.245c-2.585,-1.496 -4.013,-3.129 -4.285,-4.897c-0.272,-1.769 0.884,-3.401 3.469,-4.898c2.585,-1.496 7.142,-2.244 13.672,-2.244c6.53,-0 14.829,2.108 24.896,6.326c10.067,4.217 19.93,10.815 29.589,19.794c9.659,8.978 17.957,20.338 24.895,34.078c6.44,12.753 9.891,27.791 10.354,45.115l-54.849,0Zm-12.502,122.402c-12.438,14.687 -25.205,29.045 -38.3,43.075c-13.332,14.284 -26.46,27.684 -39.384,40.2c-12.924,12.516 -24.487,23.535 -34.69,33.058c-10.203,9.523 -18.57,17.005 -25.1,22.447c-6.53,5.442 -10.203,8.162 -11.019,8.162c-1.361,0 -3.945,-0.544 -7.755,-1.632c-3.809,-1.088 -7.686,-3.537 -11.631,-7.346c-3.945,-3.809 -7.482,-9.319 -10.611,-16.529c-3.129,-7.21 -4.694,-16.801 -4.694,-28.773c0,-5.986 0.885,-12.788 2.653,-20.406c1.769,-7.619 4.217,-15.509 7.346,-23.671c3.129,-8.163 6.598,-16.529 10.407,-25.1c3.559,-8.006 7.236,-15.835 11.032,-23.485l61.936,0c-2.016,3.987 -4.096,8.074 -6.239,12.262c-5.85,11.427 -11.224,22.718 -16.121,33.874c-4.898,11.155 -8.979,21.766 -12.244,31.834c-3.265,10.067 -4.897,18.909 -4.897,26.528c7.618,-6.802 16.393,-15.373 26.324,-25.712c9.931,-10.339 20.202,-21.971 30.813,-34.895c10.611,-12.924 21.018,-26.936 31.222,-42.037c0.417,-0.617 0.832,-1.235 1.246,-1.854l39.706,0Zm-176.867,0c-3.95,4.316 -7.824,8.607 -11.622,12.874c-20.951,23.535 -39.18,44.417 -54.689,62.647c-17.957,21.494 -34.01,41.628 -48.159,60.402c0,5.442 -2.584,8.639 -7.754,9.591c-5.17,0.952 -10.815,0 -16.937,-2.857c-6.122,-2.857 -11.768,-7.55 -16.937,-14.08c-5.17,-6.53 -7.755,-14.557 -7.755,-24.079c0,-9.795 4.558,-22.923 13.673,-39.384c9.114,-16.461 20.542,-34.555 34.282,-54.281c2.496,-3.584 5.029,-7.195 7.597,-10.833l59.489,0c-2.104,2.963 -4.196,5.893 -6.276,8.793c-9.658,13.468 -18.297,25.643 -25.915,36.527c-7.619,10.883 -13.741,19.998 -18.366,27.344c-4.625,7.346 -6.938,12.108 -6.938,14.284c2.721,-2.176 7.346,-6.53 13.876,-13.06c6.53,-6.53 14.148,-14.488 22.855,-23.875c8.707,-9.387 18.298,-19.658 28.773,-30.813c5.968,-6.356 11.914,-12.756 17.838,-19.2l22.965,0Z" style="fill:#656a8d;"/><g><path d="M138.823,196.478l27.582,-0l0,1.564c-5.308,0.283 -7.962,2.341 -7.962,6.174c0,1.893 0.948,5.82 2.844,11.782l8.672,26.473l12.085,-32.009c0.948,-2.461 1.422,-4.448 1.422,-5.961c-0,-4.07 -2.464,-6.223 -7.393,-6.459l-0,-1.564l27.155,-0l0,1.564c-2.322,0.331 -3.957,0.828 -4.905,1.49c-1.516,1.041 -2.275,2.603 -2.275,4.684c0,1.657 0.451,3.999 1.351,7.027l9.383,31.228l11.09,-28.106c1.422,-3.643 2.133,-6.411 2.133,-8.304c-0,-2.554 -0.901,-4.518 -2.702,-5.89c-0.9,-0.757 -2.535,-1.467 -4.905,-2.129l0,-1.564l20.9,-0l-0,1.564c-2.038,-0 -3.862,0.662 -5.474,1.988c-1.042,0.805 -2.026,2.024 -2.95,3.656c-0.924,1.633 -2.026,4.083 -3.305,7.349l-1.493,3.621l-16.848,42.246l-2.488,-0l-15.568,-47.486l-18.767,47.486l-2.417,-0l-14.146,-43.027l-1.706,-5.184c-1.564,-4.685 -3.175,-7.644 -4.834,-8.874c-0.948,-0.758 -2.441,-1.35 -4.479,-1.775l0,-1.564Z" style="fill:#656a8d;"/><path d="M246.378,218.23c-0.19,2.323 -0.284,4.005 -0.284,5.048c-0,4.123 0.604,8.151 1.812,12.084c1.209,3.934 2.856,7.204 4.941,9.81c2.132,2.654 4.774,4.739 7.926,6.256c3.152,1.517 6.457,2.275 9.917,2.275c2.559,-0 4.988,-0.427 7.286,-1.28c2.299,-0.853 4.206,-2.038 5.723,-3.554c1.706,-1.659 3.175,-4.313 4.407,-7.962l1.422,0.498c-1.232,5.545 -3.875,9.727 -7.926,12.547c-4.052,2.819 -9.443,4.229 -16.173,4.229c-5.829,0 -10.829,-0.924 -14.999,-2.772c-4.171,-1.848 -7.701,-4.692 -10.592,-8.531c-4.028,-5.355 -6.042,-11.942 -6.042,-19.762c-0,-10.663 3.815,-19.027 11.445,-25.093c5.544,-4.408 11.871,-6.612 18.98,-6.612c3.791,0 7.298,0.676 10.521,2.026c3.222,1.351 5.947,3.306 8.175,5.865c3.459,3.981 5.189,8.957 5.189,14.928l-41.728,0Zm31.136,-2.772c-0.332,-4.739 -1.208,-8.388 -2.63,-10.947c-1.28,-2.323 -2.986,-4.159 -5.118,-5.51c-2.133,-1.35 -4.408,-2.026 -6.825,-2.026c-4.075,0 -7.642,1.754 -10.698,5.261c-3.057,3.507 -4.87,7.914 -5.439,13.222l30.71,0Z" style="fill:#656a8d;"/><path d="M348.672,259.319c-0.474,-2.367 -0.711,-4.879 -0.711,-7.536c-3.507,2.275 -6.812,3.91 -9.916,4.905c-3.105,0.996 -6.434,1.493 -9.988,1.493c-7.204,0 -13.365,-2.156 -18.483,-6.469c-3.27,-2.748 -5.782,-6.196 -7.535,-10.343c-1.753,-4.147 -2.63,-8.684 -2.63,-13.613c-0,-5.213 0.948,-10.035 2.843,-14.466c1.896,-4.431 4.55,-8.116 7.962,-11.054c5.403,-4.55 11.824,-6.825 19.265,-6.825c3.601,0 6.682,0.522 9.241,1.564c2.559,1.043 5.545,2.939 8.957,5.687l-0,-26.282c-0,-5.147 -0.853,-8.854 -2.559,-11.12c-1.706,-2.268 -4.526,-3.402 -8.46,-3.402l0,-1.706l21.682,-2.772l-0,82.27c-0,5.347 0.853,9.156 2.559,11.428c1.706,2.271 4.526,3.407 8.459,3.407l0,1.777l-20.686,3.057Zm-0.995,-33.127c-0,-6.587 -0.285,-11.528 -0.853,-14.821c-0.569,-3.294 -1.588,-5.984 -3.057,-8.069c-1.28,-1.801 -2.997,-3.246 -5.154,-4.336c-2.156,-1.09 -4.372,-1.635 -6.646,-1.635c-5.071,-0 -9.455,2.369 -13.151,7.109c-2.228,2.843 -3.969,6.231 -5.225,10.165c-1.256,3.933 -1.884,7.985 -1.884,12.156c-0,4.075 0.592,8.068 1.777,11.978c1.185,3.91 2.796,7.263 4.834,10.059c3.554,4.834 7.914,7.251 13.08,7.251c2.464,-0 4.81,-0.616 7.038,-1.849c2.227,-1.232 4.028,-2.938 5.402,-5.118c1.422,-2.275 2.417,-5.083 2.986,-8.424c0.568,-3.341 0.853,-8.163 0.853,-14.466Z" style="fill:#656a8d;"/><path d="M424.948,259.319c-0.474,-2.367 -0.71,-4.879 -0.71,-7.536c-3.507,2.275 -6.813,3.91 -9.917,4.905c-3.104,0.996 -6.433,1.493 -9.988,1.493c-7.203,0 -13.364,-2.156 -18.482,-6.469c-3.27,-2.748 -5.782,-6.196 -7.536,-10.343c-1.753,-4.147 -2.63,-8.684 -2.63,-13.613c0,-5.213 0.948,-10.035 2.844,-14.466c1.895,-4.431 4.549,-8.116 7.961,-11.054c5.403,-4.55 11.824,-6.825 19.265,-6.825c3.602,0 6.682,0.522 9.241,1.564c2.559,1.043 5.545,2.939 8.957,5.687l0,-26.282c0,-5.147 -0.853,-8.854 -2.559,-11.12c-1.706,-2.268 -4.526,-3.402 -8.459,-3.402l-0,-1.706l21.681,-2.772l0,82.27c0,5.347 0.853,9.156 2.559,11.428c1.706,2.271 4.526,3.407 8.46,3.407l-0,1.777l-20.687,3.057Zm-0.995,-33.127c0,-6.587 -0.284,-11.528 -0.853,-14.821c-0.569,-3.294 -1.587,-5.984 -3.057,-8.069c-1.279,-1.801 -2.997,-3.246 -5.153,-4.336c-2.157,-1.09 -4.372,-1.635 -6.647,-1.635c-5.071,-0 -9.455,2.369 -13.151,7.109c-2.228,2.843 -3.969,6.231 -5.225,10.165c-1.256,3.933 -1.884,7.985 -1.884,12.156c0,4.075 0.593,8.068 1.777,11.978c1.185,3.91 2.796,7.263 4.834,10.059c3.555,4.834 7.915,7.251 13.08,7.251c2.465,-0 4.81,-0.616 7.038,-1.849c2.227,-1.232 4.028,-2.938 5.402,-5.118c1.422,-2.275 2.417,-5.083 2.986,-8.424c0.569,-3.341 0.853,-8.163 0.853,-14.466Z" style="fill:#656a8d;"/><path d="M450.326,197.971l20.402,-2.56l0,40.943l0.071,5.384c0,3.211 0.19,5.56 0.569,7.048c0.379,1.487 1.114,2.727 2.204,3.718c1.327,1.275 3.767,2.244 7.322,2.905l-0,1.493l-31.35,-0l0,-1.493c2.844,-0.377 4.882,-0.907 6.114,-1.591c1.232,-0.684 2.227,-1.851 2.986,-3.502c0.521,-1.084 0.888,-2.722 1.101,-4.915c0.214,-2.192 0.32,-5.364 0.32,-9.513l0,-17.47c0,-4.856 -0.118,-8.263 -0.355,-10.22c-0.237,-1.957 -0.758,-3.548 -1.564,-4.774c-0.806,-1.32 -1.777,-2.275 -2.915,-2.864c-1.137,-0.59 -2.772,-0.955 -4.905,-1.097l0,-1.492Zm14.787,-28.08c-1.849,0 -3.377,-0.592 -4.586,-1.777c-1.208,-1.185 -1.812,-2.678 -1.812,-4.478c-0,-1.754 0.616,-3.235 1.848,-4.443c1.232,-1.209 2.749,-1.813 4.55,-1.813c1.8,-0 3.317,0.604 4.549,1.813c1.232,1.208 1.848,2.689 1.848,4.443c0,1.8 -0.604,3.293 -1.812,4.478c-1.209,1.185 -2.737,1.777 -4.585,1.777Z" style="fill:#656a8d;"/><path d="M504.992,195.411c0.664,2.764 0.996,5.337 0.996,7.719l-0,1.143c5.876,-5.908 12.866,-8.862 20.97,-8.862c6.066,0 10.948,1.42 14.644,4.26c3.649,2.793 5.474,6.77 5.474,11.929l-0,30.106c-0,3.218 0.189,5.573 0.568,7.064c0.38,1.491 1.114,2.734 2.204,3.728c1.327,1.278 3.768,2.248 7.322,2.911l0,1.493l-31.349,-0l-0,-1.493c2.843,-0.379 4.881,-0.911 6.113,-1.597c1.232,-0.687 2.228,-1.858 2.986,-3.515c0.521,-1.088 0.889,-2.733 1.102,-4.934c0.213,-2.201 0.32,-5.361 0.32,-9.479l-0,-15.051c-0,-5.16 -0.178,-8.946 -0.533,-11.36c-0.356,-2.414 -1.031,-4.354 -2.026,-5.822c-1.09,-1.657 -2.654,-2.946 -4.692,-3.869c-2.038,-0.923 -4.289,-1.385 -6.753,-1.385c-2.654,0 -5.131,0.521 -7.429,1.562c-2.299,1.041 -4.111,2.461 -5.438,4.259c-1.422,1.894 -2.358,4.036 -2.808,6.426c-0.45,2.39 -0.675,6.355 -0.675,11.893l-0,13.915l0.071,5.254c-0,3.219 0.189,5.574 0.568,7.065c0.379,1.491 1.114,2.733 2.204,3.727c1.327,1.278 3.768,2.248 7.322,2.911l-0,1.493l-31.349,-0l-0,-1.493c2.843,-0.377 4.881,-0.907 6.113,-1.591c1.232,-0.684 2.227,-1.851 2.986,-3.502c0.521,-1.084 0.888,-2.722 1.102,-4.915c0.213,-2.192 0.319,-5.364 0.319,-9.513l0,-17.47c0,-4.856 -0.118,-8.263 -0.355,-10.22c-0.237,-1.957 -0.758,-3.548 -1.564,-4.774c-0.806,-1.32 -1.777,-2.275 -2.914,-2.864c-1.138,-0.59 -2.773,-0.955 -4.905,-1.097l-0,-1.492l19.406,-2.56Z" style="fill:#656a8d;"/><path d="M578.354,262.944l-1.28,0.356c-0.805,-1.327 -1.611,-2.252 -2.416,-2.773c-0.806,-0.521 -1.801,-0.782 -2.986,-0.782c-1.991,0 -3.614,0.758 -4.87,2.275c-1.255,1.516 -1.883,3.483 -1.883,5.9c-0,3.839 1.919,6.99 5.758,9.455c3.838,2.464 8.743,3.696 14.715,3.696c6.35,0 11.48,-1.362 15.39,-4.087c3.91,-2.725 5.865,-6.268 5.865,-10.628c-0,-3.507 -1.304,-6.196 -3.91,-8.068c-2.607,-1.872 -6.327,-2.808 -11.161,-2.808l-11.303,-0c-4.644,-0 -8.388,-1.093 -11.231,-3.28c-2.939,-2.282 -4.408,-5.016 -4.408,-8.202c0,-3.375 1.564,-6.037 4.692,-7.986c1.611,-0.951 4.55,-1.973 8.815,-3.067c-4.123,-1.892 -7.322,-4.387 -9.597,-7.485c-2.275,-3.098 -3.412,-6.516 -3.412,-10.253c-0,-4.778 1.777,-9.035 5.331,-12.771c2.086,-2.223 4.55,-3.95 7.393,-5.18c2.844,-1.23 5.758,-1.845 8.744,-1.845c4.55,0 9.194,1.612 13.933,4.834c2.228,-1.753 4.23,-2.997 6.007,-3.732c1.777,-0.734 3.708,-1.102 5.794,-1.102c2.322,0 4.194,0.498 5.615,1.493c1.707,1.232 2.56,2.749 2.56,4.55c-0,1.09 -0.332,2.002 -0.996,2.737c-0.663,0.734 -1.492,1.102 -2.488,1.102c-1.516,-0 -2.891,-0.806 -4.123,-2.417l-1.635,-2.133c-0.9,-1.137 -2.18,-1.706 -3.838,-1.706c-1.754,-0 -3.602,0.877 -5.545,2.63c3.839,4.692 5.758,9.526 5.758,14.502c-0,6.208 -2.749,11.113 -8.246,14.715c-2.749,1.801 -5.711,3.009 -8.886,3.625c-0.948,0.142 -3.957,0.379 -9.028,0.711c-6.967,0.427 -10.45,2.37 -10.45,5.829c0,3.033 2.962,4.55 8.886,4.55l11.729,-0c4.123,-0 7.607,0.367 10.45,1.102c2.844,0.734 5.332,1.884 7.464,3.447c4.171,3.081 6.256,7.417 6.256,13.009c-0,6.161 -2.417,10.971 -7.251,14.431c-4.976,3.554 -12.274,5.332 -21.895,5.332c-10.331,-0 -17.653,-2.086 -21.966,-6.256c-2.748,-2.701 -4.123,-6.066 -4.123,-10.094c0,-3.176 1.019,-5.865 3.057,-8.069c2.038,-2.204 4.526,-3.305 7.464,-3.305c2.133,-0 3.874,0.639 5.225,1.919c1.351,1.28 2.026,2.962 2.026,5.047l0,0.782Zm-3.128,-47.238c0,5.108 1.078,9.27 3.235,12.487c2.156,3.216 4.917,4.823 8.281,4.823c3.412,0 6.066,-1.596 7.962,-4.788c1.896,-3.193 2.844,-7.627 2.844,-13.303c-0,-5.865 -1.233,-10.547 -3.697,-14.048c-1.801,-2.601 -4.123,-3.902 -6.967,-3.902c-3.412,0 -6.16,1.703 -8.246,5.109c-1.042,1.702 -1.872,3.783 -2.488,6.243c-0.616,2.459 -0.924,4.919 -0.924,7.379Z" style="fill:#656a8d;"/><path d="M625.414,256.902l-0,-20.118l1.137,0c1.327,4.929 2.986,8.862 4.976,11.801c3.649,5.355 7.914,8.032 12.796,8.032c2.985,0 5.568,-0.9 7.748,-2.701c2.37,-1.99 3.555,-4.81 3.555,-8.459c-0,-2.986 -0.853,-5.592 -2.56,-7.82c-0.947,-1.185 -2.144,-2.275 -3.589,-3.27c-1.446,-0.995 -3.875,-2.393 -7.287,-4.194c-5.971,-3.175 -9.952,-5.829 -11.942,-7.962c-2.844,-3.033 -4.266,-6.54 -4.266,-10.521c0,-4.265 1.422,-7.938 4.266,-11.018c3.27,-3.507 7.606,-5.261 13.008,-5.261c2.417,0 4.669,0.427 6.754,1.28l2.417,1.066c0.758,0.285 1.421,0.427 1.99,0.427c0.901,-0 1.754,-0.711 2.559,-2.133l1.422,0l0.782,16.137l-1.493,0c-0.521,-2.275 -1.078,-4.099 -1.67,-5.474c-0.593,-1.374 -1.434,-2.701 -2.524,-3.981c-1.469,-1.8 -3.175,-3.21 -5.118,-4.229c-1.943,-1.019 -3.863,-1.529 -5.758,-1.529c-2.654,0 -4.917,0.96 -6.789,2.879c-1.872,1.92 -2.808,4.277 -2.808,7.074c-0,2.322 0.841,4.419 2.524,6.291c1.682,1.872 4.277,3.59 7.784,5.154l7.535,3.412c4.502,2.038 7.867,4.573 10.094,7.606c2.228,3.033 3.341,6.611 3.341,10.734c0,4.976 -1.611,9.099 -4.834,12.369c-3.696,3.792 -8.435,5.687 -14.217,5.687c-3.128,0 -6.303,-0.616 -9.526,-1.848c-2.085,-0.806 -3.341,-1.268 -3.767,-1.386c-0.427,-0.119 -0.972,-0.178 -1.635,-0.178c-1.659,0 -2.915,0.711 -3.768,2.133l-1.137,-0Z" style="fill:#656a8d;"/></g><g><path d="M579.94,365.832l1.315,0.46c-1.534,4.647 -3.88,8.001 -7.036,10.061c-3.156,2.061 -7.496,3.091 -13.02,3.091c-8.856,0 -15.804,-2.63 -20.846,-7.891c-4.91,-5.173 -7.365,-11.705 -7.365,-19.596c0,-3.858 0.68,-7.672 2.039,-11.442c1.359,-3.77 3.222,-6.992 5.589,-9.666c2.675,-3.069 5.952,-5.414 9.831,-7.036c3.88,-1.622 8.122,-2.434 12.725,-2.434c6.356,0 11.332,1.425 14.927,4.275c2.192,1.753 3.288,3.682 3.288,5.787c-0,1.402 -0.461,2.575 -1.381,3.518c-0.921,0.942 -2.039,1.413 -3.354,1.413c-2.849,0 -4.954,-2.082 -6.313,-6.247c-0.613,-1.929 -1.107,-3.244 -1.479,-3.945c-0.373,-0.702 -0.91,-1.315 -1.611,-1.841c-1.359,-1.009 -3.025,-1.513 -4.998,-1.513c-2.587,0 -4.976,0.724 -7.168,2.17c-1.929,1.272 -3.562,2.861 -4.899,4.768c-1.337,1.907 -2.509,4.307 -3.518,7.2c-1.534,4.428 -2.301,8.768 -2.301,13.02c-0,3.902 0.701,7.716 2.104,11.442c1.403,3.727 3.31,6.839 5.721,9.338c3.77,3.946 8.198,5.918 13.283,5.918c4.209,0 7.694,-1.337 10.456,-4.011c1.403,-1.403 2.74,-3.682 4.011,-6.839Z" style="fill:#656a8d;"/><path d="M589.015,350.51c-0,-7.101 2.63,-13.436 7.891,-19.004c6.4,-6.751 14.05,-10.127 22.949,-10.127c8.9,0 16.528,3.376 22.884,10.127c5.261,5.612 7.891,11.968 7.891,19.07c0,7.014 -2.499,13.261 -7.496,18.741c-6.138,6.752 -13.897,10.127 -23.279,10.127c-9.381,0 -17.163,-3.375 -23.344,-10.127c-2.411,-2.63 -4.263,-5.567 -5.557,-8.811c-1.293,-3.244 -1.939,-6.576 -1.939,-9.996Zm11.968,-0.755c-0,7.619 1.709,14.078 5.129,19.375c3.858,5.912 8.57,8.867 14.138,8.867c2.367,0 4.669,-0.656 6.904,-1.969c2.236,-1.314 4.165,-3.153 5.787,-5.518c1.71,-2.452 3.091,-5.528 4.143,-9.228c1.052,-3.7 1.578,-7.28 1.578,-10.739c0,-3.59 -0.559,-7.214 -1.677,-10.869c-1.118,-3.657 -2.619,-6.799 -4.504,-9.426c-3.595,-4.948 -8.001,-7.422 -13.218,-7.422c-4.953,0 -9.228,2.606 -12.822,7.816c-3.639,5.211 -5.458,11.582 -5.458,19.113Z" style="fill:#656a8d;"/></g></svg>