<?xml version="1.0" encoding="UTF-8" standalone="no"?><!DOCTYPE svg PUBLIC "-//W3C//DTD SVG 1.1//EN" "http://www.w3.org/Graphics/SVG/1.1/DTD/svg11.dtd"><svg width="100%" height="100%" viewBox="0 0 665 417" version="1.1" xmlns="http://www.w3.org/2000/svg" xmlns:xlink="http://www.w3.org/1999/xlink" xml:space="preserve" xmlns:serif="http://www.serif.com/" style="fill-rule:evenodd;clip-rule:evenodd;stroke-linejoin:round;stroke-miterlimit:2;"><g><g><path d="M165.169,417l-44.546,0c0,0 -50.537,-248.105 -65.64,-322.246c-2.452,-12.033 -13.035,-20.679 -25.319,-20.679l-4.836,0c-2.699,0 -5.027,-1.902 -5.566,-4.547c-0.224,-1.1 0.057,-2.243 0.769,-3.113c0.709,-0.869 1.772,-1.374 2.897,-1.374l70.548,0l71.693,351.96Z" style="fill:#656a8d;"/><path d="M261.578,229.58l44.546,0l38.178,187.42l-44.546,0l-38.178,-187.42Z" style="fill:#656a8d;"/><path d="M645.738,69.587c0.222,1.1 -0.059,2.243 -0.769,3.112c-0.711,0.871 -1.774,1.376 -2.899,1.376l-8.19,0c-8.659,0 -16.741,4.338 -21.529,11.554c-39.667,59.798 -219.817,331.372 -219.817,331.372l-89.929,0l233.473,-351.96l104.092,-0c2.7,0 5.029,1.9 5.568,4.547Z" style="fill:#656a8d;"/><path d="M324.671,417l-204.048,0l227.169,-342.453l-102.26,0.002c-0.041,-0.004 -0.083,-0.006 -0.126,-0.009l-48.046,0l-0.241,-0.002c-20.461,-0.128 -37.289,-16.779 -37.606,-37.267c-0.319,-20.57 16.123,-37.271 36.693,-37.271c19.86,0 36.354,15.567 37.754,35.155c0.044,0.593 0.074,1.211 0.087,1.861l0.002,0.022c0.002,0.076 0.004,0.154 0.004,0.232c0.226,14.574 3.725,26.002 12.945,27.769l114.762,0l0.022,0.002l89.96,0l-227.169,342.451l98.343,0c9.163,-1.767 12.307,-13.195 12.082,-27.769c-0.002,-0.078 -0.002,-0.156 -0.002,-0.232l0,-0.024c-0.006,-0.648 0.004,-1.269 0.028,-1.86c0.795,-19.588 16.808,-35.155 36.667,-35.155c20.57,0 37.528,16.701 37.847,37.271c0.319,20.488 -15.993,37.137 -36.452,37.267l-0.239,0.002l-48.046,0c-0.043,0.002 -0.083,0.006 -0.128,0.007Z" style="fill:#40435a;"/></g></g></svg>