<?xml version="1.0" encoding="UTF-8" standalone="no"?><!DOCTYPE svg PUBLIC "-//W3C//DTD SVG 1.1//EN" "http://www.w3.org/Graphics/SVG/1.1/DTD/svg11.dtd"><svg width="100%" height="100%" viewBox="0 0 1041 462" version="1.1" xmlns="http://www.w3.org/2000/svg" xmlns:xlink="http://www.w3.org/1999/xlink" xml:space="preserve" xmlns:serif="http://www.serif.com/" style="fill-rule:evenodd;clip-rule:evenodd;stroke-linejoin:round;stroke-miterlimit:2;"><g><path d="M396.655,300.193l-32.068,0c-0,0 -36.382,-178.607 -47.254,-231.981c-1.765,-8.663 -9.384,-14.887 -18.226,-14.887l-3.482,-0c-1.943,-0 -3.619,-1.369 -4.006,-3.273c-0,-0 -0.001,-0 -0.001,-0c-0.161,-0.792 0.042,-1.615 0.554,-2.241c0.511,-0.626 1.276,-0.989 2.085,-0.989c6.141,-0 50.787,-0 50.787,-0l51.611,253.371Z" style="fill:#656a8d;"/><path d="M466.059,165.272l32.068,-0l27.483,134.921l-32.068,0l-27.483,-134.921Z" style="fill:#656a8d;"/><path d="M742.61,50.095c0.161,0.792 -0.042,1.614 -0.553,2.24c-0.512,0.626 -1.277,0.99 -2.086,0.99c-1.657,-0 -3.763,-0 -5.896,-0c-6.234,-0 -12.053,3.123 -15.499,8.318c-28.556,43.048 -158.244,238.55 -158.244,238.55l-64.739,0l168.075,-253.371l74.935,-0c1.944,-0 3.619,1.368 4.007,3.273c-0,-0 -0,-0 -0,-0Z" style="fill:#656a8d;"/><path d="M511.479,300.193l-146.892,0l163.535,-246.527l-73.615,-0c-0.03,-0.002 -0.061,-0.004 -0.091,-0.006l-34.588,-0l-0.173,-0.001c-14.73,-0.093 -26.844,-12.079 -27.072,-26.829c-0.23,-14.808 11.606,-26.83 26.414,-26.83c14.297,0 26.171,11.207 27.179,25.308c0.032,0.426 0.053,0.872 0.063,1.34l0.001,0.016c0.001,0.055 0.002,0.11 0.003,0.166c0.162,10.493 2.681,18.719 9.318,19.991l82.616,-0l0.016,0.001l64.761,-0l-163.535,246.527l70.795,-0c6.597,-1.272 8.861,-9.498 8.698,-19.991c-0.001,-0.056 -0.001,-0.111 -0.002,-0.166l0,-0.017c-0.004,-0.467 0.003,-0.914 0.021,-1.339c0.572,-14.101 12.099,-25.308 26.396,-25.308c14.807,-0 27.016,12.022 27.245,26.83c0.229,14.75 -11.514,26.736 -26.241,26.829l-0.173,0.001l-34.588,-0c-0.03,0.002 -0.06,0.004 -0.091,0.005Z" style="fill:#656a8d;"/></g><g><path d="M23.003,461.01c0.116,0.463 0.579,0.811 1.043,0.811l1.274,0c0.58,0 0.927,-0.232 1.159,-0.811l20.858,-70.571l0.232,0l20.859,70.571c0.231,0.579 0.579,0.811 1.158,0.811l1.275,0c0.464,0 0.927,-0.348 1.043,-0.811l22.944,-79.957c0.232,-1.159 -0.232,-1.507 -1.275,-1.507l-2.781,0c-0.695,0 -1.274,0.58 -1.39,1.275l-19.352,67.906l-0.232,-0l-20.511,-69.296c-0.231,-0.696 -1.043,-1.043 -1.738,-1.043l-0.232,-0c-0.695,-0 -1.506,0.347 -1.738,1.043l-20.395,69.296l-0.231,-0l-19.468,-67.906c-0.116,-0.695 -0.695,-1.275 -1.391,-1.275l-2.781,0c-1.043,0 -1.506,0.348 -1.275,1.507l22.945,79.957Z" style="fill:#656a8d;fill-rule:nonzero;"/><path d="M106.668,459.156c-0,0.811 0.695,1.506 1.506,1.506l46.468,0c0.811,0 1.507,-0.695 1.507,-1.506l-0,-1.854c-0,-0.811 -0.696,-1.507 -1.507,-1.507l-42.412,0l0,-34.3l36.734,-0c0.811,-0 1.506,-0.695 1.506,-1.507l0,-1.969c0,-0.812 -0.695,-1.507 -1.506,-1.507l-36.734,0l0,-31.983l42.412,0c0.811,0 1.507,-0.695 1.507,-1.506l-0,-1.97c-0,-0.811 -0.696,-1.507 -1.507,-1.507l-46.468,0c-0.811,0 -1.506,0.696 -1.506,1.507l-0,78.103Z" style="fill:#656a8d;fill-rule:nonzero;"/><path d="M171.329,459.156c-0,0.811 0.695,1.506 1.39,1.506l24.567,0c22.481,0 40.79,-18.077 40.79,-40.674c-0,-22.248 -18.309,-40.442 -40.79,-40.442l-24.567,0c-0.695,0 -1.39,0.696 -1.39,1.507l-0,78.103Zm5.446,-3.477l0,-71.15l19.584,0c20.279,0 35.923,15.412 35.923,35.459c-0,20.279 -15.644,35.691 -35.923,35.691l-19.584,0Z" style="fill:#656a8d;fill-rule:nonzero;"/><path d="M252.213,459.156c-0,0.811 0.695,1.506 1.39,1.506l24.567,0c22.481,0 40.79,-18.077 40.79,-40.674c-0,-22.248 -18.309,-40.442 -40.79,-40.442l-24.567,0c-0.695,0 -1.39,0.696 -1.39,1.507l-0,78.103Zm5.446,-3.477l0,-71.15l19.584,0c20.279,0 35.923,15.412 35.923,35.459c-0,20.279 -15.644,35.691 -35.923,35.691l-19.584,0Z" style="fill:#656a8d;fill-rule:nonzero;"/><path d="M333.097,459.156c0,0.811 0.695,1.506 1.506,1.506l2.434,0c0.811,0 1.622,-0.579 1.622,-1.506l0,-78.103c0,-0.811 -0.695,-1.507 -1.506,-1.507l-2.55,0c-0.811,0 -1.506,0.696 -1.506,1.507l0,78.103Z" style="fill:#656a8d;fill-rule:nonzero;"/><path d="M358.591,459.156c-0,0.811 0.695,1.506 1.506,1.506l2.202,0c0.811,0 1.506,-0.695 1.506,-1.506l0,-70.455l0.116,-0c55.043,72.772 55.97,73.12 56.086,73.12l1.506,0c0.927,0 1.854,-0.463 1.854,-1.506l0,-79.262c0,-0.811 -0.695,-1.507 -1.506,-1.507l-2.318,0c-0.811,0 -1.506,0.696 -1.506,1.507l-0,69.76l-0.116,-0l-55.622,-72.425l-1.97,-0c-0.927,-0 -1.738,0.579 -1.738,1.506l-0,79.262Z" style="fill:#656a8d;fill-rule:nonzero;"/><path d="M437.505,420.22c-0,23.292 18.656,41.601 41.948,41.601c15.18,0 25.726,-6.026 27.811,-7.416c0.927,-0.695 1.623,-1.275 1.623,-3.013l-0,-26.884c-0,-0.695 -0.696,-1.391 -1.507,-1.391l-23.755,0c-1.275,0 -1.507,0.464 -1.507,1.391l0,2.317c0,1.043 0.232,1.507 1.507,1.507l19.815,-0l0,21.785c-1.158,0.927 -9.965,6.374 -24.103,6.374c-20.163,-0 -36.038,-16.455 -36.038,-36.503c-0,-20.047 15.875,-36.502 36.038,-36.502c9.502,0 17.962,3.709 24.451,9.734c0.695,0.696 1.275,0.811 1.97,0c0.579,-0.579 1.275,-1.274 1.854,-1.97c0.579,-0.579 0.463,-1.506 -0.116,-2.086c-7.532,-6.836 -16.339,-10.776 -28.043,-10.776c-23.292,-0 -41.948,18.656 -41.948,41.832Z" style="fill:#656a8d;fill-rule:nonzero;"/><path d="M520.243,452.319c1.506,1.391 10.777,9.502 24.566,9.502c13.327,0 25.262,-9.039 25.262,-20.627c0,-13.442 -10.081,-19.004 -25.957,-24.45c-11.704,-3.824 -19.236,-8.112 -19.236,-17.962c0,-6.605 5.331,-15.412 19.584,-15.412c8.922,0 16.686,5.215 17.034,5.447c1.159,0.695 1.854,0.347 2.549,-0.58c0.232,-0.463 0.58,-1.042 0.927,-1.506c0.812,-1.275 0,-2.086 -0.463,-2.433c-0,-0 -8.459,-5.91 -19.931,-5.91c-18.078,-0 -25.03,11.819 -25.03,20.51c-0,13.327 8.922,18.078 22.364,22.829c14.022,4.751 22.481,9.386 22.481,19.699c0,8.459 -8.923,15.528 -19.468,15.528c-11.704,0 -20.279,-7.88 -21.437,-8.923c-0.928,-0.811 -1.739,-0.463 -2.55,0.464l-1.043,1.39c-0.927,1.275 -0.347,1.855 0.348,2.434Z" style="fill:#656a8d;fill-rule:nonzero;"/><path d="M603.56,459.156c0,0.811 0.696,1.506 1.507,1.506l2.433,0c0.812,0 1.623,-0.579 1.623,-1.506l-0,-78.103c-0,-0.811 -0.696,-1.507 -1.507,-1.507l-2.549,0c-0.811,0 -1.507,0.696 -1.507,1.507l0,78.103Z" style="fill:#656a8d;fill-rule:nonzero;"/><path d="M629.054,459.156c-0,0.811 0.695,1.506 1.506,1.506l2.202,0c0.811,0 1.507,-0.695 1.507,-1.506l-0,-70.455l0.115,-0c55.043,72.772 55.97,73.12 56.086,73.12l1.507,0c0.927,0 1.854,-0.463 1.854,-1.506l-0,-79.262c-0,-0.811 -0.695,-1.507 -1.507,-1.507l-2.317,0c-0.811,0 -1.507,0.696 -1.507,1.507l0,69.76l-0.116,-0l-55.622,-72.425l-1.97,-0c-0.927,-0 -1.738,0.579 -1.738,1.506l-0,79.262Z" style="fill:#656a8d;fill-rule:nonzero;"/><path d="M725.466,459.272c-0,0.811 0.695,1.39 1.622,1.39l48.786,0c0.927,0 1.506,-0.695 1.506,-1.506l0,-2.086c0,-0.811 -0.579,-1.506 -1.506,-1.506l-43.223,-0l-0,-0.116l47.163,-72.541l-0,-1.854c-0,-0.811 -0.58,-1.507 -1.507,-1.507l-47.742,0c-0.811,0 -1.507,0.696 -1.507,1.507l0,1.854c0,1.043 0.696,1.738 1.507,1.738l41.948,0l0,0.232l-47.047,72.309l-0,2.086Z" style="fill:#656a8d;fill-rule:nonzero;"/><path d="M791.402,459.156c-0,0.811 0.695,1.506 1.506,1.506l2.434,0c0.811,0 1.622,-0.579 1.622,-1.506l-0,-78.103c-0,-0.811 -0.695,-1.507 -1.507,-1.507l-2.549,0c-0.811,0 -1.506,0.696 -1.506,1.507l-0,78.103Z" style="fill:#656a8d;fill-rule:nonzero;"/><path d="M816.895,459.156c0,0.811 0.695,1.506 1.507,1.506l2.433,0c0.927,0 1.506,-0.695 1.506,-1.506l0,-37.661l52.031,-0l-0,37.661c-0,0.811 0.695,1.506 1.506,1.506l2.433,0c0.927,0 1.507,-0.695 1.507,-1.506l-0,-78.103c-0,-0.811 -0.58,-1.507 -1.507,-1.507l-2.433,0c-0.811,0 -1.506,0.696 -1.506,1.507l-0,35.575l-52.031,-0l0,-35.575c0,-0.811 -0.579,-1.507 -1.506,-1.507l-2.433,0c-0.812,0 -1.507,0.696 -1.507,1.507l0,78.103Z" style="fill:#656a8d;fill-rule:nonzero;"/><path d="M898.822,431.113c0,17.73 11.936,30.708 30.245,30.708c18.425,0 30.476,-12.978 30.476,-30.708l0,-50.06c0,-0.811 -0.695,-1.507 -1.506,-1.507l-2.318,0c-1.159,0 -1.622,0.58 -1.622,1.507l-0,49.596c-0,14.949 -9.502,25.842 -25.03,25.842c-15.412,-0 -24.798,-11.009 -24.798,-25.957l-0,-49.481c-0,-0.811 -0.696,-1.507 -1.507,-1.507l-2.433,0c-0.812,0 -1.507,0.696 -1.507,1.507l0,50.06Z" style="fill:#656a8d;fill-rule:nonzero;"/><path d="M967.075,460.662l3.245,0c0.811,0 1.391,-0.579 1.622,-1.043l9.271,-21.322l44.266,0l9.386,21.322c0.232,0.464 0.811,1.043 1.622,1.043l3.013,0c1.275,0 1.275,-0.695 1.043,-1.39l-35.343,-80.653c-0.348,-0.695 -0.927,-0.811 -1.507,-0.811l-0.347,0c-0.58,0 -1.159,0.348 -1.391,0.811l-35.691,80.653c-0.347,0.927 0,1.39 0.811,1.39Zm16.224,-26.884l20.163,-46.699l0.231,-0l19.816,46.699l-40.21,0Z" style="fill:#656a8d;fill-rule:nonzero;"/></g></svg>