<?xml version="1.0" encoding="UTF-8" standalone="no"?>
<!DOCTYPE svg PUBLIC "-//W3C//DTD SVG 1.1//EN" "http://www.w3.org/Graphics/SVG/1.1/DTD/svg11.dtd">
<svg width="100%" height="100%" viewBox="0 0 665 417" version="1.1" xmlns="http://www.w3.org/2000/svg" xmlns:xlink="http://www.w3.org/1999/xlink" xml:space="preserve" xmlns:serif="http://www.serif.com/" style="fill-rule:evenodd;clip-rule:evenodd;stroke-linejoin:round;stroke-miterlimit:2;">
    <g>
        <g transform="matrix(0.845278,0,0,0.845278,51.444912,32.259569)">
            <path d="M165.169,417L120.623,417C120.623,417 70.086,168.895 54.983,94.754C52.531,82.721 41.948,74.075 29.664,74.075L24.828,74.075C22.129,74.075 19.801,72.173 19.262,69.528C19.038,68.428 19.319,67.285 20.031,66.415C20.74,65.546 21.803,65.041 22.928,65.041L93.476,65.041L165.169,417.001L165.169,417Z" style="fill:white;"/>
            <path d="M261.578,229.58L306.124,229.58L344.302,417L299.756,417L261.578,229.58Z" style="fill:white;"/>
            <path d="M645.738,69.587C645.96,70.687 645.679,71.83 644.969,72.699C644.258,73.57 643.195,74.075 642.07,74.075L633.88,74.075C625.221,74.075 617.139,78.413 612.351,85.629C572.684,145.427 392.534,417.001 392.534,417.001L302.605,417.001L536.078,65.041L640.17,65.041C642.87,65.041 645.199,66.941 645.738,69.588L645.738,69.587Z" style="fill:white;"/>
            <path d="M324.671,417L120.623,417L347.792,74.547L245.532,74.549C245.491,74.545 245.449,74.543 245.406,74.54L197.36,74.54L197.119,74.538C176.658,74.41 159.83,57.759 159.513,37.271C159.194,16.701 175.636,0 196.206,0C216.066,0 232.56,15.567 233.96,35.155C234.004,35.748 234.034,36.366 234.047,37.016L234.049,37.038C234.051,37.114 234.053,37.192 234.053,37.27C234.279,51.844 237.778,63.272 246.998,65.039L361.76,65.039L361.782,65.041L451.742,65.041L224.573,407.492L322.916,407.492C332.079,405.725 335.223,394.297 334.998,379.723C334.996,379.645 334.996,379.567 334.996,379.491L334.996,379.467C334.99,378.819 335,378.198 335.024,377.607C335.819,358.019 351.832,342.452 371.691,342.452C392.261,342.452 409.219,359.153 409.538,379.723C409.857,400.211 393.545,416.86 373.086,416.99L372.847,416.992L324.801,416.992C324.758,416.994 324.718,416.998 324.673,416.999L324.671,417Z" style="fill:rgb(246,230,230);"/>
        </g>
    </g>
</svg>
