<?xml version="1.0" encoding="UTF-8" standalone="no"?><!DOCTYPE svg PUBLIC "-//W3C//DTD SVG 1.1//EN" "http://www.w3.org/Graphics/SVG/1.1/DTD/svg11.dtd"><svg width="100%" height="100%" viewBox="0 0 121 40" version="1.1" xmlns="http://www.w3.org/2000/svg" xmlns:xlink="http://www.w3.org/1999/xlink" xml:space="preserve" xmlns:serif="http://www.serif.com/" style="fill-rule:evenodd;clip-rule:evenodd;stroke-linejoin:round;stroke-miterlimit:2;"><path d="M61.826,21.32c0,0 -4.37,-5.615 1.487,-14.968c0,0 3.05,10.611 -1.487,14.968Z" style="fill:#fff;fill-rule:nonzero;"/><path d="M63.212,7.032c-4.559,7.685 -2.061,12.707 -1.346,13.867c3.463,-3.712 1.886,-11.62 1.346,-13.867Zm-1.386,14.949l-0.02,0c-0.075,0 -0.145,-0.24 -0.191,-0.3c-0.044,-0.058 -4.417,-5.97 1.472,-15.372c0.055,-0.09 0.161,-0.19 0.263,-0.172c0.104,0.014 0.19,0.064 0.219,0.166c0.127,0.44 3.042,11.001 -1.558,15.418c-0.05,0.048 -0.116,0.26 -0.185,0.26Z" style="fill:#030404;fill-rule:nonzero;"/><path d="M63.035,21.837c0,0 -0.918,-6.707 8.562,-12.357c0,0 -2.808,11.723 -8.562,12.357Z" style="fill:#fff;fill-rule:nonzero;"/><path d="M71.168,10.058c-7.606,4.78 -7.921,10.216 -7.884,11.474c4.57,-0.815 7.213,-9.089 7.884,-11.474Zm-8.131,12.047c-0.132,0 -0.247,-0.098 -0.265,-0.231c-0.039,-0.281 -0.833,-6.948 8.69,-12.623c0.092,-0.054 0.208,-0.05 0.295,0.015c0.086,0.063 0.126,0.173 0.101,0.277c-0.115,0.487 -2.92,11.914 -8.792,12.56c-0.01,0.001 -0.02,0.001 -0.029,0.001Z" style="fill:#030404;fill-rule:nonzero;"/><path d="M63.812,23.366c0,0 2.56,-6.266 13.595,-6.415c0,0 -8.297,8.745 -13.595,6.415Z" style="fill:#fff;fill-rule:nonzero;"/><path d="M64.178,23.225c4.367,1.58 10.795,-4.261 12.568,-5.99c-5.203,0.195 -8.344,1.812 -10.08,3.167c-1.496,1.165 -2.225,2.332 -2.489,2.824Zm1.619,0.805c-0.726,0 -1.43,-0.128 -2.093,-0.42c-0.133,-0.058 -0.194,-0.211 -0.14,-0.345c0.107,-0.263 2.756,-6.433 13.84,-6.581c0.106,-0.015 0.205,0.062 0.248,0.16c0.043,0.098 0.022,0.213 -0.051,0.291c-0.302,0.319 -6.61,6.896 -11.805,6.896Z" style="fill:#030404;fill-rule:nonzero;"/><path d="M63.596,24.673c0,0 5.745,-3.58 14.777,2.761c0,0 -11.846,2.231 -14.777,-2.761Z" style="fill:#fff;fill-rule:nonzero;"/><path d="M63.976,24.773c2.613,3.839 11.244,2.866 13.696,2.503c-7.474,-4.987 -12.562,-3.052 -13.696,-2.503Zm8.65,3.435c-3.526,0 -7.645,-0.648 -9.26,-3.401c-0.074,-0.125 -0.034,-0.286 0.088,-0.362c0.24,-0.149 6,-3.601 15.073,2.769c0.088,0.062 0.13,0.17 0.107,0.275c-0.023,0.105 -0.106,0.186 -0.212,0.206c-0.227,0.043 -2.796,0.513 -5.797,0.513Z" style="fill:#030404;fill-rule:nonzero;"/><path d="M59.432,23.931c0,0 -3.659,4.222 -14.203,3.656c0,0 8.152,-7.485 14.203,-3.656Z" style="fill:#fff;fill-rule:nonzero;"/><path d="M45.92,27.35c8.364,0.284 12.15,-2.535 13.076,-3.368c-4.922,-2.778 -11.254,1.88 -13.076,3.368Zm1.237,0.557c-0.62,0 -1.267,-0.018 -1.942,-0.054c-0.107,-0.005 -0.2,-0.075 -0.237,-0.176c-0.036,-0.101 -0.008,-0.214 0.071,-0.287c0.084,-0.077 2.097,-1.912 4.893,-3.306c3.745,-1.865 7.075,-1.997 9.632,-0.38c0.066,0.042 0.11,0.11 0.122,0.188c0.011,0.077 -0.011,0.155 -0.063,0.214c-0.142,0.165 -3.404,3.802 -12.476,3.802Z" style="fill:#030404;fill-rule:nonzero;"/><path d="M59.644,22.497c0,0 -6.707,2.722 -14.157,-5.255c0,0 12.333,-1.066 14.157,5.255Z" style="fill:#fff;fill-rule:nonzero;"/><path d="M46.079,17.475c3.632,3.716 7.034,4.837 9.28,5.117c1.971,0.244 3.412,-0.1 3.952,-0.263c-1.737,-5.032 -10.849,-4.958 -13.231,-4.853Zm10.684,5.719c-2.721,0 -6.989,-0.97 -11.471,-5.769c-0.07,-0.074 -0.091,-0.182 -0.055,-0.278c0.037,-0.095 0.125,-0.161 0.227,-0.17c0.513,-0.043 12.574,-1.01 14.438,5.447c0.038,0.131 -0.03,0.27 -0.157,0.322c-0.028,0.01 -1.157,0.448 -2.982,0.448Z" style="fill:#030404;fill-rule:nonzero;"/><path d="M60.75,21.5c0,0 -6.542,-1.741 -8.095,-12.667c0,0 9.731,7.115 8.095,12.667Z" style="fill:#fff;fill-rule:nonzero;"/><path d="M53.021,9.452c1.475,8.862 6.368,11.251 7.543,11.702c1.011,-4.531 -5.602,-10.163 -7.543,-11.702Zm7.729,12.316c-0.022,0 -0.046,-0.003 -0.069,-0.009c-0.274,-0.073 -6.73,-1.914 -8.29,-12.888c-0.016,-0.106 0.035,-0.211 0.127,-0.267c0.092,-0.056 0.209,-0.05 0.295,0.013c0.404,0.295 9.864,7.291 8.194,12.959c-0.035,0.115 -0.14,0.191 -0.256,0.191Z" style="fill:#030404;fill-rule:nonzero;"/><path d="M61.826,21.32c0,0 0.681,-2.027 0.509,-5.017" style="fill:#fff;fill-rule:nonzero;"/><path d="M61.826,21.587c-0.028,0 -0.056,-0.004 -0.085,-0.014c-0.14,-0.047 -0.215,-0.198 -0.169,-0.338c0.007,-0.02 0.662,-2.02 0.496,-4.916c-0.009,-0.148 0.104,-0.274 0.251,-0.282c0.144,-0.026 0.274,0.104 0.282,0.251c0.173,3.006 -0.493,5.032 -0.522,5.117c-0.037,0.112 -0.141,0.182 -0.253,0.182Z" style="fill:#030404;fill-rule:nonzero;"/><path d="M63.035,21.837c0,0 1.832,-1.031 3.09,-4.371" style="fill:#fff;fill-rule:nonzero;"/><path d="M63.037,22.104c-0.094,0 -0.184,-0.049 -0.232,-0.136c-0.074,-0.128 -0.028,-0.291 0.1,-0.364c0.018,-0.01 1.768,-1.04 2.971,-4.232c0.052,-0.138 0.208,-0.208 0.344,-0.156c0.139,0.051 0.208,0.205 0.156,0.344c-1.278,3.391 -3.13,4.465 -3.208,4.51c-0.041,0.022 -0.086,0.034 -0.13,0.034Z" style="fill:#030404;fill-rule:nonzero;"/><path d="M63.812,23.366c0,0 3.111,-0.016 4.49,-1.999" style="fill:#fff;fill-rule:nonzero;"/><path d="M63.812,23.481c-0.146,0 -0.266,-0.042 -0.267,-0.19c-0.001,-0.148 0.118,-0.23 0.266,-0.231c0.029,0 2.99,-0.022 4.272,-1.865c0.084,-0.123 0.251,-0.143 0.371,-0.057c0.122,0.084 0.151,0.179 0.067,0.3c-1.441,2.074 -4.576,2.043 -4.708,2.043l-0.001,0Z" style="fill:#030404;fill-rule:nonzero;"/><path d="M63.596,24.673c0,0 2.621,1.458 4.279,0.908" style="fill:#fff;fill-rule:nonzero;"/><path d="M67.027,25.971c-1.624,0 -3.467,-1.013 -3.561,-1.064c-0.128,-0.072 -0.175,-0.235 -0.104,-0.365c0.074,-0.129 0.236,-0.173 0.364,-0.104c0.026,0.015 2.541,1.392 4.065,0.888c0.14,-0.051 0.292,0.029 0.337,0.169c0.047,0.14 -0.029,0.292 -0.169,0.338c-0.291,0.097 -0.607,0.138 -0.932,0.138Z" style="fill:#030404;fill-rule:nonzero;"/><path d="M60.75,21.5c0,0 -0.344,-2.443 -2.582,-3.978" style="fill:#fff;fill-rule:nonzero;"/><path d="M60.75,21.767c-0.131,0 -0.245,-0.096 -0.264,-0.229c-0.004,-0.023 -0.361,-2.349 -2.469,-3.796c-0.121,-0.083 -0.153,-0.25 -0.069,-0.371c0.083,-0.123 0.249,-0.153 0.371,-0.07c2.309,1.585 2.681,4.057 2.696,4.162c0.021,0.146 -0.081,0.281 -0.227,0.302c-0.012,0.001 -0.025,0.003 -0.037,0.003Z" style="fill:#030404;fill-rule:nonzero;"/><path d="M59.644,22.497c0,0 -1.938,-1.89 -4.292,-1.545" style="fill:#fff;fill-rule:nonzero;"/><path d="M59.644,22.765c-0.067,0 -0.134,-0.025 -0.186,-0.076c-0.018,-0.018 -1.877,-1.795 -4.067,-1.471c-0.148,0.025 -0.282,-0.08 -0.303,-0.226c-0.022,-0.146 0.08,-0.281 0.225,-0.303c2.459,-0.365 4.435,1.537 4.518,1.618c0.106,0.103 0.108,0.272 0.005,0.378c-0.052,0.053 -0.122,0.081 -0.192,0.081Z" style="fill:#030404;fill-rule:nonzero;"/><path d="M59.432,23.931c0,0 -1.995,-0.482 -4.271,0.761" style="fill:#fff;fill-rule:nonzero;"/><path d="M55.163,24.959c-0.094,0 -0.186,-0.05 -0.235,-0.139c-0.071,-0.13 -0.023,-0.292 0.106,-0.363c2.338,-1.279 4.374,-0.807 4.46,-0.786c0.143,0.035 0.231,0.178 0.197,0.321c-0.034,0.144 -0.178,0.237 -0.322,0.198c-0.019,-0.004 -1.929,-0.44 -4.079,0.736c-0.041,0.022 -0.085,0.033 -0.128,0.033Z" style="fill:#030404;fill-rule:nonzero;"/><path d="M68.624,11.807c-0.028,0 -0.056,-0.004 -0.082,-0.013c-0.14,-0.046 -0.218,-0.196 -0.172,-0.336c0.855,-2.647 0.193,-6.197 -0.062,-7.348c-2.438,1.796 -4.155,5.027 -4.172,5.061c-0.069,0.131 -0.232,0.181 -0.361,0.112c-0.13,-0.069 -0.181,-0.23 -0.112,-0.362c0.078,-0.148 1.946,-3.666 4.666,-5.479c0.073,-0.047 0.162,-0.058 0.243,-0.027c0.082,0.031 0.142,0.098 0.164,0.181c0.051,0.19 1.221,4.69 0.143,8.025c-0.036,0.113 -0.141,0.184 -0.254,0.184Z" style="fill:#030404;fill-rule:nonzero;"/><path d="M73.163,17.624c-0.089,0 -0.177,-0.044 -0.227,-0.126c-0.078,-0.125 -0.04,-0.29 0.086,-0.368c2.585,-1.605 3.907,-5.966 4.261,-7.309c-4.655,0.995 -7.292,5.123 -7.319,5.167c-0.08,0.125 -0.244,0.162 -0.368,0.084c-0.125,-0.078 -0.163,-0.243 -0.085,-0.368c0.118,-0.188 2.94,-4.613 8.087,-5.487c0.086,-0.014 0.177,0.014 0.238,0.079c0.061,0.064 0.086,0.155 0.067,0.241c-0.054,0.245 -1.353,6.03 -4.6,8.046c-0.044,0.027 -0.093,0.04 -0.141,0.04Z" style="fill:#030404;fill-rule:nonzero;"/><path d="M73.514,24.959c-0.049,0 -0.096,-0.001 -0.143,-0.002c-0.148,-0.004 -0.264,-0.223 -0.26,-0.371c0.004,-0.145 0.123,-0.355 0.267,-0.355l0.007,0c2.383,0.75 5.828,-1.796 7.062,-2.554c-4.103,-1.36 -7.09,-0.928 -7.121,-0.926c-0.148,0.028 -0.281,-0.058 -0.301,-0.204c-0.02,-0.146 0.083,-0.269 0.229,-0.289c0.137,-0.019 3.395,-0.434 7.895,1.185c0.095,0.034 0.163,0.122 0.175,0.221c0.013,0.1 -0.032,0.201 -0.117,0.256c-0.188,0.126 -4.578,3.038 -7.693,3.038Z" style="fill:#030404;fill-rule:nonzero;"/><path d="M48.095,25.709c-0.015,0 -0.029,-0.001 -0.044,-0.003c-4.583,-0.777 -7.551,-4.046 -7.675,-4.185c-0.059,-0.065 -0.082,-0.155 -0.061,-0.241c0.02,-0.085 0.082,-0.155 0.164,-0.186c4.091,-1.563 9.244,-0.509 9.461,-0.464c0.145,0.031 0.237,0.172 0.207,0.317c-0.031,0.145 -0.176,0.233 -0.316,0.207c-0.051,-0.01 -4.888,-1.001 -8.774,0.3c0.839,0.816 3.471,3.113 7.082,3.725c0.146,0.025 0.244,0.163 0.219,0.308c-0.022,0.131 -0.135,0.223 -0.263,0.223Z" style="fill:#030404;fill-rule:nonzero;"/><path d="M51.432,17.701c-0.045,0 -0.09,-0.01 -0.132,-0.034c-0.203,-0.115 -4.99,-2.869 -7.086,-7.271c-0.042,-0.087 -0.033,-0.191 0.022,-0.269c0.056,-0.08 0.15,-0.12 0.245,-0.113c0.25,0.026 6.158,0.656 9.656,3.793c0.109,0.099 0.119,0.267 0.02,0.377c-0.098,0.111 -0.267,0.119 -0.377,0.021c-2.797,-2.508 -7.36,-3.371 -8.86,-3.595c2.135,3.998 6.596,6.564 6.643,6.59c0.128,0.073 0.173,0.236 0.1,0.365c-0.049,0.086 -0.139,0.135 -0.232,0.135Z" style="fill:#030404;fill-rule:nonzero;"/><path d="M56.473,12.455c-0.104,0 -0.202,-0.06 -0.245,-0.16c-0.068,-0.155 -1.635,-3.864 0.667,-9.083c0.035,-0.079 0.106,-0.136 0.191,-0.154c0.085,-0.016 0.173,0.007 0.236,0.066c0.123,0.114 3.016,2.851 4.082,7.598c0.032,0.144 -0.059,0.287 -0.203,0.32c-0.146,0.031 -0.287,-0.059 -0.319,-0.203c-0.842,-3.751 -2.911,-6.245 -3.654,-7.046c-1.973,4.802 -0.526,8.252 -0.511,8.288c0.059,0.135 -0.003,0.292 -0.138,0.352c-0.035,0.015 -0.071,0.022 -0.106,0.022Z" style="fill:#030404;fill-rule:nonzero;"/><path d="M64.43,8.481l-0.015,0c-0.148,0 -0.259,-0.172 -0.251,-0.319c0.221,-3.881 -1.381,-6.592 -1.958,-7.427c-1.788,2.373 -3.053,4.883 -3.066,4.909c-0.065,0.133 -0.225,0.181 -0.358,0.115c-0.132,-0.066 -0.185,-0.229 -0.119,-0.361c0.014,-0.028 1.402,-2.797 3.336,-5.29c0.049,-0.064 0.125,-0.104 0.207,-0.104c0.083,-0.021 0.158,0.034 0.21,0.096c0.104,0.126 2.561,3.186 2.281,8.092c-0.008,0.142 -0.126,0.289 -0.267,0.289Z" style="fill:#030404;fill-rule:nonzero;"/><path d="M72.912,11.82c-0.05,0 -0.1,-0.014 -0.144,-0.043c-0.124,-0.079 -0.16,-0.244 -0.081,-0.368c2.572,-4.017 1.669,-6.964 1.324,-7.784c-3.902,2.05 -4.79,4.998 -4.797,5.027c0.004,0.148 -0.109,0.24 -0.257,0.245c-0.129,0.008 -0.268,-0.143 -0.273,-0.29c-0.008,-0.281 1.167,-3.504 5.332,-5.584c0.126,-0.062 0.28,-0.017 0.35,0.105c0.083,0.143 1.988,3.545 -1.229,8.57c-0.051,0.079 -0.137,0.123 -0.225,0.123Z" style="fill:#030404;fill-rule:nonzero;"/><path d="M76.003,20.819c-0.11,0 -0.212,-0.067 -0.251,-0.175c-0.05,-0.138 0.021,-0.292 0.159,-0.343c3.385,-1.238 5.756,-5.141 6.398,-6.302c-4.806,-0.655 -6.534,0.9 -6.552,0.917c-0.108,0.1 -0.275,0.096 -0.377,-0.011c-0.101,-0.107 -0.097,-0.274 0.008,-0.376c0.079,-0.075 1.985,-1.841 7.377,-1.003c0.084,0.013 0.157,0.065 0.196,0.141c0.039,0.076 0.039,0.166 0.002,0.241c-0.107,0.218 -2.698,5.369 -6.869,6.896c-0.031,0.011 -0.061,0.016 -0.091,0.016Z" style="fill:#030404;fill-rule:nonzero;"/><path d="M44.862,20.801c-0.085,0 -0.167,-0.041 -0.219,-0.113c-0.044,-0.046 -0.226,-0.18 -0.402,-0.311c-0.967,-0.717 -3.233,-2.396 -4.927,-5.136c-0.05,-0.079 -0.053,-0.178 -0.011,-0.261c0.041,-0.083 0.124,-0.138 0.217,-0.146c0.223,-0.017 5.51,-0.435 9.037,0.215c0.146,0.027 0.241,0.167 0.214,0.312c-0.027,0.145 -0.167,0.238 -0.311,0.214c-2.875,-0.532 -7.084,-0.326 -8.45,-0.24c1.609,2.432 3.652,3.947 4.55,4.612c0.365,0.27 0.473,0.352 0.53,0.446c0.077,0.126 0.038,0.29 -0.088,0.367c-0.043,0.027 -0.092,0.04 -0.14,0.04Z" style="fill:#030404;fill-rule:nonzero;"/><path d="M50.308,12.068c-0.09,0 -0.178,-0.045 -0.228,-0.127c-0.112,-0.184 -2.735,-4.537 -1.54,-8.848c0.02,-0.074 0.072,-0.136 0.141,-0.17c0.069,-0.033 0.149,-0.035 0.221,-0.005c0.19,0.08 4.689,2.018 7.249,6.104c0.078,0.125 0.041,0.29 -0.085,0.368c-0.126,0.079 -0.29,0.041 -0.368,-0.084c-2.11,-3.369 -5.692,-5.27 -6.72,-5.764c-0.929,3.994 1.532,8.077 1.558,8.119c0.077,0.126 0.038,0.291 -0.088,0.367c-0.044,0.028 -0.092,0.04 -0.14,0.04Z" style="fill:#030404;fill-rule:nonzero;"/><path d="M64.099,16.749c-0.033,0 -0.066,-0.006 -0.098,-0.019c-0.138,-0.054 -0.205,-0.209 -0.151,-0.346l2.057,-5.193c0.055,-0.137 0.21,-0.203 0.346,-0.15c0.139,0.054 0.205,0.209 0.151,0.346l-2.057,5.193c-0.042,0.105 -0.142,0.169 -0.248,0.169Z" style="fill:#030404;fill-rule:nonzero;"/><path d="M66.599,20.123c-0.077,0 -0.152,-0.032 -0.205,-0.097c-0.095,-0.113 -0.079,-0.281 0.034,-0.376l3.955,-3.286c0.112,-0.095 0.281,-0.08 0.376,0.034c0.095,0.114 0.079,0.282 -0.035,0.376l-3.955,3.287c-0.05,0.041 -0.11,0.062 -0.171,0.062Z" style="fill:#030404;fill-rule:nonzero;"/><path d="M68.024,23.934c-0.127,0 -0.238,-0.089 -0.263,-0.217c-0.028,-0.146 0.068,-0.285 0.213,-0.312l4.587,-0.86c0.151,-0.031 0.286,0.069 0.312,0.213c0.027,0.146 -0.068,0.285 -0.213,0.312l-4.587,0.859c-0.017,0.003 -0.034,0.004 -0.05,0.004Z" style="fill:#030404;fill-rule:nonzero;"/><path d="M55.162,22.823l-6.481,-0.014" style="fill:none;fill-rule:nonzero;"/><path d="M55.162,23.09l-6.481,-0.014c-0.148,0 -0.267,-0.12 -0.267,-0.268c0.001,-0.148 0.12,-0.266 0.268,-0.266l0.001,0l6.481,0.013c0.148,0 0.267,0.121 0.267,0.268c-0.001,0.148 -0.12,0.267 -0.268,0.267Z" style="fill:#030404;fill-rule:nonzero;"/><path d="M57.317,19.293l-5.481,-4.621" style="fill:none;fill-rule:nonzero;"/><path d="M57.317,19.561c-0.061,0 -0.122,-0.021 -0.172,-0.063l-5.48,-4.621c-0.113,-0.095 -0.127,-0.264 -0.032,-0.377c0.095,-0.113 0.263,-0.126 0.376,-0.031l5.481,4.621c0.112,0.095 0.127,0.263 0.032,0.377c-0.053,0.063 -0.128,0.095 -0.204,0.095Z" style="fill:#030404;fill-rule:nonzero;"/><path d="M60.263,17.37l-1.629,-6.844" style="fill:none;fill-rule:nonzero;"/><path d="M60.263,17.638c-0.121,0 -0.23,-0.083 -0.259,-0.206l-1.629,-6.844c-0.035,-0.143 0.054,-0.288 0.198,-0.323c0.142,-0.034 0.287,0.055 0.322,0.198l1.629,6.844c0.034,0.143 -0.055,0.287 -0.198,0.323c-0.021,0.005 -0.042,0.007 -0.062,0.007Z" style="fill:#030404;fill-rule:nonzero;"/><path d="M64.058,23.768c-0.137,1.356 -1.349,2.344 -2.705,2.206c-1.356,-0.137 -2.344,-1.348 -2.207,-2.704c0.137,-1.356 1.349,-2.344 2.705,-2.207c1.356,0.137 2.344,1.348 2.207,2.705Z" style="fill:#fff;fill-rule:nonzero;"/><path d="M61.602,21.318c-1.115,0 -2.074,0.847 -2.189,1.979c-0.059,0.585 0.113,1.158 0.484,1.613c0.372,0.456 0.898,0.74 1.483,0.798c0.587,0.062 1.158,-0.113 1.613,-0.484c0.456,-0.372 0.74,-0.898 0.798,-1.484c0.123,-1.206 -0.76,-2.288 -1.967,-2.411c-0.074,-0.007 -0.148,-0.01 -0.223,-0.01Zm0.007,4.937c-0.094,0 -0.188,-0.005 -0.282,-0.015c-0.727,-0.073 -1.382,-0.425 -1.844,-0.991c-0.462,-0.566 -0.676,-1.278 -0.602,-2.006c0.153,-1.5 1.499,-2.603 2.999,-2.446c1.5,0.153 2.596,1.497 2.444,2.998c-0.074,0.727 -0.426,1.382 -0.992,1.844c-0.493,0.402 -1.097,0.616 -1.724,0.616Z" style="fill:#030404;fill-rule:nonzero;"/><path d="M94.344,26.666c-0.431,0 -0.844,-0.008 -1.233,-0.019c-3.718,-0.107 -7.435,-0.625 -11.045,-1.541c-2.291,-0.582 -6.124,-0.725 -7.823,-0.045c-0.136,0.052 -0.292,-0.012 -0.348,-0.149c-0.054,-0.137 0.012,-0.293 0.149,-0.348c2.015,-0.805 6.099,-0.497 8.153,0.025c3.572,0.906 7.249,1.418 10.929,1.524c2.922,0.088 5.083,-0.13 7.017,-0.693c2.93,-0.853 5.542,-2.617 8.067,-4.323c0.557,-0.376 1.114,-0.752 1.673,-1.118c1.577,-1.033 3.439,-2.142 5.468,-2.891c-1.013,-0.078 -2.024,-0.209 -3.024,-0.339c-3.124,-0.405 -6.076,-0.788 -8.833,0.32c-1.14,0.458 -2.19,1.168 -3.205,1.854c-0.562,0.38 -1.145,0.774 -1.742,1.125c-2.853,1.678 -6.237,2.481 -9.548,2.249c-0.809,-0.055 -1.62,-0.172 -2.404,-0.285c-1.017,-0.146 -2.068,-0.298 -3.104,-0.313c-1.227,-0.022 -3.476,0.179 -4.882,1.71c-0.1,0.109 -0.269,0.116 -0.378,0.016c-0.109,-0.1 -0.115,-0.269 -0.017,-0.378c1.147,-1.249 3.015,-1.923 5.285,-1.882c1.069,0.017 2.137,0.17 3.17,0.319c0.776,0.112 1.577,0.227 2.366,0.281c3.194,0.223 6.477,-0.551 9.239,-2.176c0.583,-0.344 1.158,-0.731 1.714,-1.108c1.039,-0.702 2.112,-1.427 3.305,-1.906c2.888,-1.16 6.044,-0.751 9.101,-0.355c1.462,0.19 2.953,0.383 4.421,0.404c1.188,-0.313 2.414,-0.476 3.673,-0.416c0.131,0.007 0.238,0.108 0.252,0.239c0.014,0.13 -0.067,0.251 -0.194,0.286c-1.197,0.331 -2.429,0.437 -3.664,0.427c-2.501,0.673 -4.814,2.027 -6.708,3.266c-0.557,0.365 -1.111,0.74 -1.667,1.115c-2.56,1.729 -5.206,3.517 -8.218,4.393c-2.053,0.598 -4.159,0.733 -5.947,0.733Z" style="fill:#030404;fill-rule:nonzero;"/><path d="M76.513,24.533c-0.08,0 -0.159,-0.035 -0.211,-0.103c-0.091,-0.117 -0.07,-0.285 0.047,-0.375c1.174,-0.913 4.027,-1.292 5.224,-1.333c1.31,-0.043 2.648,-0.021 3.943,0.003c3.189,0.058 6.489,0.119 9.529,-0.868c1.846,-0.598 3.579,-1.58 5.255,-2.531c0.643,-0.364 1.285,-0.728 1.935,-1.073c1.833,-0.972 5.372,-2.557 8.462,-2.245c0.147,0.014 0.253,0.146 0.239,0.292c-0.015,0.146 -0.137,0.248 -0.293,0.239c-3.064,-0.311 -6.726,1.425 -8.158,2.185c-0.646,0.343 -1.283,0.704 -1.922,1.066c-1.699,0.963 -3.457,1.958 -5.354,2.573c-3.125,1.015 -6.47,0.953 -9.704,0.895c-1.288,-0.023 -2.62,-0.047 -3.915,-0.002c-1.41,0.048 -3.946,0.469 -4.914,1.22c-0.05,0.038 -0.106,0.056 -0.164,0.056Z" style="fill:#030404;fill-rule:nonzero;"/><path d="M77.276,24.107c-0.091,0 -0.179,-0.047 -0.229,-0.13c-0.077,-0.127 -0.035,-0.29 0.091,-0.366c0.686,-0.411 2.312,-0.511 2.828,-0.514c1.79,-0.012 3.642,0.067 5.427,0.141c5.287,0.219 10.754,0.445 15.649,-1.532c1.426,-0.576 2.817,-1.348 4.164,-2.094c2.414,-1.337 4.908,-2.72 7.699,-3.035c0.152,-0.011 0.278,0.09 0.295,0.236c0.017,0.146 -0.088,0.279 -0.235,0.295c-2.684,0.303 -5.023,1.599 -7.5,2.971c-1.36,0.754 -2.767,1.533 -4.223,2.121c-5.002,2.021 -10.528,1.791 -15.871,1.571c-1.779,-0.073 -3.626,-0.155 -5.401,-0.14c-0.743,0.004 -2.068,0.146 -2.556,0.437c-0.043,0.026 -0.09,0.039 -0.137,0.039Z" style="fill:#030404;fill-rule:nonzero;"/><path d="M93.705,25.079c-0.347,0 -0.693,-0.01 -1.038,-0.029c-1.179,-0.066 -2.651,-0.207 -4.208,-0.356c-3.799,-0.365 -8.527,-0.816 -11.388,-0.375c-0.149,0.031 -0.283,-0.078 -0.305,-0.223c-0.023,-0.146 0.077,-0.283 0.223,-0.305c2.925,-0.456 7.491,-0.015 11.52,0.371c1.553,0.149 3.02,0.29 4.187,0.355c3.593,0.201 7.274,-0.676 10.387,-2.465c0.997,-0.574 1.96,-1.252 2.891,-1.907c0.896,-0.63 1.822,-1.283 2.787,-1.849c1.91,-1.12 4.894,-2.081 7.251,-1.697c0.146,0.023 0.244,0.161 0.221,0.306c-0.024,0.146 -0.165,0.241 -0.306,0.221c-2.228,-0.36 -5.068,0.56 -6.896,1.63c-0.946,0.555 -1.862,1.202 -2.749,1.826c-0.941,0.662 -1.913,1.347 -2.933,1.933c-2.9,1.669 -6.289,2.565 -9.644,2.565Z" style="fill:#030404;fill-rule:nonzero;"/><path d="M94.642,26.06c-1.418,0 -2.831,-0.178 -4.203,-0.351c-1.714,-0.215 -3.997,-0.477 -6.283,-0.74c-2.31,-0.265 -4.622,-0.53 -6.353,-0.748c-0.146,-0.019 -0.25,-0.153 -0.232,-0.299c0.018,-0.147 0.154,-0.251 0.298,-0.232c1.73,0.218 4.04,0.483 6.347,0.747c2.288,0.262 4.574,0.525 6.29,0.74c1.524,0.192 3.101,0.395 4.654,0.337c5.01,-0.169 9.642,-2.88 13.901,-5.822c1.488,-1.028 3.641,-2.212 5.48,-2.212l0.042,0c0.148,0 0.266,0.088 0.264,0.236c-0.001,0.146 -0.121,0.247 -0.267,0.247c-0.015,-0.003 -0.027,-0.008 -0.04,-0.008c-1.7,0 -3.75,1.164 -5.175,2.148c-4.326,2.988 -9.039,5.776 -14.187,5.95c-0.179,0.005 -0.358,0.007 -0.536,0.007Z" style="fill:#030404;fill-rule:nonzero;"/><path d="M63.531,28.279c0.263,1.568 0.661,3.158 1.422,4.559c1.112,2.043 3.066,3.777 5.505,4.882c2.057,0.932 4.459,1.458 7.343,1.608c3.814,0.194 6.752,-0.422 8.975,-1.895c0.434,-0.288 0.855,-0.62 1.261,-0.94c0.37,-0.292 0.752,-0.593 1.15,-0.867c1.928,-1.324 4.244,-2 6.56,-1.957c-3.169,-0.917 -6.702,-0.235 -9.241,0.42c-0.691,0.178 -1.383,0.37 -2.076,0.562c-3,0.83 -6.102,1.689 -9.246,1.435c-4.724,-0.383 -9.163,-3.423 -11.652,-7.807Zm15.615,11.619c-0.445,0 -0.902,-0.012 -1.372,-0.037c-2.951,-0.153 -5.417,-0.694 -7.536,-1.654c-2.544,-1.153 -4.587,-2.969 -5.752,-5.114c-1.068,-1.963 -1.445,-4.237 -1.715,-6.334c-0.103,-0.237 -0.2,-0.477 -0.292,-0.719c-0.053,-0.138 0.017,-0.292 0.155,-0.344c0.049,-0.018 0.099,-0.022 0.145,-0.013c0.035,-0.024 0.077,-0.041 0.122,-0.046c0.152,-0.022 0.28,0.086 0.298,0.232c0.031,0.245 0.062,0.494 0.093,0.746c2.197,4.977 6.9,8.53 11.936,8.938c3.052,0.249 6.106,-0.599 9.061,-1.417c0.696,-0.193 1.391,-0.385 2.085,-0.565c3.11,-0.8 7.675,-1.637 11.39,0.336c0.116,0.062 0.171,0.201 0.126,0.325c-0.045,0.125 -0.175,0.197 -0.304,0.173c-2.755,-0.551 -5.779,0.072 -8.093,1.661c-0.383,0.264 -0.76,0.56 -1.122,0.846c-0.415,0.327 -0.844,0.666 -1.297,0.966c-2.044,1.355 -4.646,2.02 -7.925,2.02Z" style="fill:#030404;fill-rule:nonzero;"/><path d="M74.909,36.546c-1.525,0 -3.037,-0.198 -4.508,-0.697c-3.67,-1.246 -6.58,-4.343 -7.596,-8.082c-0.038,-0.142 0.046,-0.289 0.188,-0.328c0.145,-0.038 0.29,0.045 0.329,0.188c0.969,3.571 3.748,6.527 7.252,7.716c3.687,1.25 7.705,0.534 11.497,-0.426c0.512,-0.13 1.024,-0.264 1.537,-0.398c3.302,-0.863 6.722,-1.756 10.164,-1.488c0.693,0.055 1.591,0.169 2.388,0.579c0.13,0.068 0.182,0.229 0.115,0.36c-0.067,0.132 -0.231,0.181 -0.36,0.115c-0.711,-0.366 -1.54,-0.47 -2.185,-0.521c-3.358,-0.261 -6.728,0.619 -9.987,1.472c-0.515,0.135 -1.029,0.269 -1.542,0.398c-2.381,0.604 -4.853,1.111 -7.292,1.111Z" style="fill:#030404;fill-rule:nonzero;"/><path d="M75.866,38.137c-1.774,0 -3.646,-0.205 -5.446,-0.823c-3.428,-1.179 -5.951,-3.777 -6.584,-6.781c-0.03,-0.144 0.062,-0.286 0.206,-0.316c0.15,-0.024 0.287,0.063 0.317,0.207c0.593,2.82 2.982,5.267 6.233,6.386c3.216,1.105 6.706,0.841 9.388,0.487c2.006,-0.265 3.608,-0.596 5.043,-1.043c0.91,-0.283 1.84,-0.637 2.739,-0.981c2.673,-1.019 5.435,-2.072 8.261,-1.506c0.144,0.029 0.238,0.17 0.209,0.315c-0.029,0.145 -0.167,0.238 -0.315,0.209c-2.673,-0.539 -5.363,0.49 -7.965,1.481c-0.906,0.346 -1.844,0.704 -2.771,0.992c-1.465,0.455 -3.095,0.793 -5.131,1.063c-1.255,0.165 -2.684,0.311 -4.185,0.311Z" style="fill:#030404;fill-rule:nonzero;"/><path d="M71.422,32.651c-0.067,0 -0.133,-0.002 -0.2,-0.007c-0.718,-0.042 -1.468,-0.299 -2.29,-0.787c-0.514,-0.303 -1.001,-0.661 -1.447,-1.063c-1.118,-1.006 -1.966,-2.275 -2.739,-3.488c-0.418,-0.656 -0.781,-1.255 -0.982,-1.944c-0.041,-0.142 0.041,-0.29 0.182,-0.332c0.144,-0.039 0.291,0.041 0.332,0.181c0.181,0.621 0.524,1.186 0.92,1.807c0.752,1.182 1.575,2.416 2.645,3.377c0.42,0.378 0.878,0.715 1.362,1.001c0.746,0.442 1.417,0.676 2.049,0.713c0.752,0.043 1.458,-0.213 1.885,-0.69c0.455,-0.51 0.542,-1.305 0.198,-1.81c-0.175,-0.258 -0.496,-0.44 -0.841,-0.474c-0.292,-0.025 -0.578,0.057 -0.764,0.239c-0.104,0.103 -0.272,0.104 -0.378,-0.003c-0.103,-0.106 -0.102,-0.275 0.004,-0.378c0.297,-0.292 0.729,-0.435 1.191,-0.39c0.504,0.05 0.964,0.313 1.23,0.705c0.483,0.71 0.379,1.771 -0.243,2.468c-0.495,0.554 -1.275,0.873 -2.115,0.873Z" style="fill:#030404;fill-rule:nonzero;"/><path d="M76.107,33.689c-1.336,0 -2.629,-0.519 -3.463,-1.432c-0.101,-0.109 -0.093,-0.277 0.016,-0.377c0.11,-0.1 0.279,-0.093 0.377,0.017c0.912,0.997 2.452,1.457 3.925,1.178c1.022,-0.195 1.82,-0.711 2.188,-1.417c0.215,-0.413 0.252,-0.932 0.1,-1.389c-0.121,-0.366 -0.355,-0.647 -0.657,-0.792c-0.254,-0.121 -0.624,-0.159 -0.873,0.034c-0.109,0.085 -0.183,0.229 -0.193,0.379c-0.005,0.068 0.001,0.197 0.092,0.288c0.104,0.105 0.104,0.274 -0.001,0.378c-0.105,0.104 -0.274,0.104 -0.378,-0.001c-0.177,-0.178 -0.265,-0.427 -0.248,-0.7c0.02,-0.303 0.17,-0.59 0.4,-0.767c0.377,-0.292 0.94,-0.329 1.43,-0.092c0.434,0.208 0.766,0.601 0.934,1.104c0.196,0.593 0.147,1.267 -0.134,1.804c-0.444,0.853 -1.378,1.472 -2.561,1.697c-0.317,0.06 -0.638,0.089 -0.956,0.089Z" style="fill:#030404;fill-rule:nonzero;"/><path d="M79.819,20.29c-0.665,0 -1.329,-0.088 -1.97,-0.268c-0.142,-0.041 -0.224,-0.188 -0.185,-0.33c0.04,-0.142 0.185,-0.223 0.329,-0.185c2.275,0.644 4.864,0.021 6.602,-1.58c1.735,-1.602 2.563,-4.134 2.107,-6.453c-0.18,-0.913 -0.522,-1.656 -1.017,-2.206c-0.568,-0.629 -1.343,-0.972 -2.084,-0.938c-0.793,0.046 -1.505,0.585 -1.691,1.282c-0.083,0.31 -0.031,0.67 0.136,0.942c0.084,0.136 0.235,0.307 0.476,0.358c0.145,0.03 0.238,0.171 0.209,0.316c-0.029,0.144 -0.17,0.235 -0.316,0.208c-0.334,-0.069 -0.627,-0.282 -0.823,-0.601c-0.242,-0.392 -0.318,-0.914 -0.199,-1.361c0.245,-0.912 1.16,-1.618 2.177,-1.676c0.901,-0.065 1.836,0.365 2.512,1.115c0.56,0.622 0.946,1.449 1.145,2.46c0.492,2.496 -0.399,5.224 -2.269,6.948c-1.38,1.274 -3.263,1.971 -5.138,1.971Z" style="fill:#030404;fill-rule:nonzero;"/><path d="M84.209,18.854c-0.127,0 -0.238,-0.09 -0.263,-0.218c-0.027,-0.145 0.068,-0.285 0.214,-0.311c1.556,-0.291 3.49,-1.569 4.5,-2.973c0.813,-1.133 1.406,-2.439 1.981,-3.704c0.122,-0.269 0.244,-0.538 0.368,-0.806c0.679,-1.462 1.515,-3.125 2.861,-4.36c1.114,-1.02 2.207,-1.045 2.93,-0.884c1.016,0.224 1.79,0.923 2.029,1.499c0.414,0.996 0.272,2.217 -0.372,3.185c-0.671,1.007 -1.808,1.594 -2.884,1.492c-1.217,-0.113 -2.23,-1.173 -2.212,-2.314c0.002,-0.148 0.149,-0.258 0.271,-0.263c0.148,0.002 0.266,0.124 0.263,0.271c-0.014,0.858 0.793,1.687 1.727,1.774c0.883,0.08 1.835,-0.425 2.39,-1.258c0.546,-0.821 0.67,-1.849 0.323,-2.683c-0.181,-0.435 -0.821,-0.998 -1.65,-1.181c-0.598,-0.131 -1.508,-0.109 -2.453,0.757c-1.273,1.168 -2.081,2.776 -2.737,4.192c-0.123,0.266 -0.245,0.534 -0.366,0.801c-0.585,1.288 -1.19,2.62 -2.033,3.795c-1.081,1.504 -3.16,2.873 -4.837,3.185c-0.016,0.004 -0.032,0.005 -0.049,0.005Z" style="fill:#030404;fill-rule:nonzero;"/><path d="M88.964,16.034c1.054,-1.646 3.015,-1.845 4.805,-1.754c-0.077,-0.134 -0.154,-0.269 -0.231,-0.402c-0.667,0.878 -1.118,1.762 -2.26,2.109c-0.831,0.253 -1.666,0.1 -2.409,-0.318c-0.3,-0.169 -0.57,0.292 -0.27,0.461c0.863,0.486 1.859,0.664 2.821,0.372c1.297,-0.393 1.814,-1.347 2.579,-2.355c0.132,-0.173 -0.05,-0.393 -0.23,-0.402c-1.996,-0.101 -4.107,0.209 -5.266,2.02c-0.186,0.29 0.277,0.559 0.461,0.269Z" style="fill:#030404;fill-rule:nonzero;"/><path d="M87.328,10.949c-0.562,-1.362 -0.031,-2.683 0.531,-3.948c-0.163,-0.022 -0.325,-0.043 -0.488,-0.064c0.374,1.282 1.096,2.958 -0.349,3.826c-0.295,0.177 -0.026,0.639 0.269,0.461c1.721,-1.034 1.053,-2.861 0.595,-4.429c-0.059,-0.201 -0.39,-0.284 -0.488,-0.064c-0.617,1.388 -1.201,2.867 -0.586,4.361c0.13,0.313 0.647,0.176 0.516,-0.143Z" style="fill:#030404;fill-rule:nonzero;"/><path d="M92.478,9.14c1.009,-1.51 1.15,-3.182 1.124,-4.952c-0.005,-0.344 -0.539,-0.344 -0.535,0c0.025,1.675 -0.092,3.248 -1.05,4.683c-0.192,0.287 0.271,0.554 0.461,0.269Z" style="fill:#030404;fill-rule:nonzero;"/><path d="M93.525,4.292c-0.877,-0.968 -0.599,-2.647 -0.595,-3.835c-0.152,0.063 -0.304,0.126 -0.456,0.189c0.956,0.847 1.395,2.612 0.632,3.7c-0.198,0.282 0.265,0.55 0.461,0.27c0.902,-1.286 0.415,-3.346 -0.715,-4.348c-0.17,-0.15 -0.455,-0.052 -0.456,0.189c-0.005,1.375 -0.257,3.099 0.751,4.213c0.232,0.255 0.609,-0.124 0.378,-0.378Z" style="fill:#030404;fill-rule:nonzero;"/><path d="M26.4,26.666c-1.79,0 -3.894,-0.135 -5.948,-0.733c-3.011,-0.877 -5.657,-2.664 -8.216,-4.393c-0.556,-0.376 -1.11,-0.75 -1.668,-1.115c-1.893,-1.24 -4.207,-2.594 -6.707,-3.266c-1.236,0.017 -2.468,-0.096 -3.665,-0.427c-0.126,-0.035 -0.208,-0.157 -0.194,-0.286c0.014,-0.131 0.122,-0.232 0.253,-0.239c1.252,-0.059 2.485,0.104 3.672,0.416c1.468,-0.021 2.958,-0.215 4.421,-0.404c3.055,-0.396 6.213,-0.806 9.101,0.355c1.193,0.479 2.267,1.205 3.305,1.907c0.557,0.376 1.131,0.763 1.714,1.107c2.762,1.625 6.041,2.402 9.24,2.176c0.788,-0.055 1.59,-0.169 2.365,-0.281c1.033,-0.148 2.102,-0.302 3.171,-0.319c2.263,-0.022 4.137,0.634 5.284,1.882c0.101,0.109 0.093,0.278 -0.016,0.378c-0.109,0.1 -0.277,0.094 -0.378,-0.016c-1.407,-1.531 -3.665,-1.727 -4.882,-1.71c-1.035,0.016 -2.086,0.167 -3.103,0.313c-0.785,0.113 -1.597,0.229 -2.404,0.285c-3.304,0.228 -6.694,-0.57 -9.547,-2.249c-0.597,-0.351 -1.179,-0.745 -1.742,-1.125c-1.015,-0.686 -2.065,-1.396 -3.205,-1.854c-2.758,-1.108 -5.708,-0.725 -8.833,-0.32c-1,0.13 -2.012,0.261 -3.024,0.339c2.029,0.749 3.892,1.858 5.468,2.891c0.56,0.367 1.117,0.742 1.674,1.119c2.525,1.706 5.136,3.469 8.066,4.322c1.934,0.563 4.098,0.778 7.017,0.693c3.68,-0.106 7.356,-0.618 10.929,-1.524c2.053,-0.523 6.138,-0.83 8.153,-0.025c0.136,0.055 0.203,0.211 0.148,0.348c-0.055,0.137 -0.211,0.202 -0.347,0.149c-1.698,-0.68 -5.531,-0.536 -7.823,0.045c-3.611,0.916 -7.327,1.434 -11.045,1.541c-0.389,0.011 -0.803,0.019 -1.233,0.019Z" style="fill:#030404;fill-rule:nonzero;"/><path d="M44.231,24.533c-0.057,0 -0.115,-0.018 -0.164,-0.056c-0.967,-0.751 -3.504,-1.172 -4.914,-1.22c-1.294,-0.044 -2.626,-0.021 -3.915,0.002c-3.233,0.059 -6.578,0.12 -9.705,-0.895c-1.897,-0.615 -3.654,-1.611 -5.354,-2.573c-0.638,-0.362 -1.275,-0.723 -1.921,-1.066c-1.433,-0.76 -5.087,-2.495 -8.159,-2.185c-0.143,0.012 -0.277,-0.093 -0.292,-0.239c-0.015,-0.147 0.092,-0.278 0.239,-0.292c3.097,-0.309 6.63,1.273 8.462,2.245c0.649,0.344 1.292,0.709 1.933,1.073c1.676,0.949 3.41,1.932 5.255,2.531c3.041,0.986 6.34,0.927 9.53,0.868c1.295,-0.024 2.635,-0.046 3.943,-0.003c1.197,0.041 4.049,0.42 5.224,1.333c0.116,0.09 0.138,0.258 0.047,0.375c-0.053,0.068 -0.132,0.103 -0.211,0.103Z" style="fill:#030404;fill-rule:nonzero;"/><path d="M43.469,24.107c-0.046,0 -0.094,-0.013 -0.136,-0.039c-0.489,-0.292 -1.814,-0.433 -2.556,-0.437c-1.784,-0.01 -3.624,0.067 -5.402,0.14c-5.344,0.22 -10.869,0.449 -15.872,-1.571c-1.456,-0.588 -2.863,-1.367 -4.222,-2.121c-2.477,-1.372 -4.816,-2.668 -7.5,-2.971c-0.147,-0.017 -0.253,-0.149 -0.236,-0.295c0.016,-0.147 0.15,-0.247 0.295,-0.236c2.791,0.315 5.287,1.699 7.699,3.035c1.346,0.746 2.738,1.518 4.164,2.094c4.895,1.977 10.361,1.751 15.649,1.532c1.784,-0.074 3.623,-0.152 5.426,-0.141c0.515,0.003 2.141,0.104 2.828,0.514c0.127,0.075 0.168,0.239 0.092,0.366c-0.05,0.083 -0.139,0.13 -0.229,0.13Z" style="fill:#030404;fill-rule:nonzero;"/><path d="M27.039,25.079c-3.355,0 -6.743,-0.896 -9.644,-2.565c-1.019,-0.586 -1.991,-1.271 -2.933,-1.933c-0.886,-0.624 -1.804,-1.271 -2.75,-1.826c-1.828,-1.071 -4.669,-1.991 -6.896,-1.63c-0.146,0.024 -0.283,-0.075 -0.307,-0.221c-0.023,-0.146 0.076,-0.283 0.221,-0.306c2.358,-0.382 5.341,0.577 7.251,1.697c0.966,0.565 1.892,1.219 2.788,1.849c0.931,0.656 1.893,1.333 2.89,1.907c3.112,1.79 6.802,2.665 10.387,2.465c1.168,-0.065 2.634,-0.206 4.187,-0.355c4.029,-0.386 8.595,-0.826 11.521,-0.371c0.146,0.022 0.245,0.159 0.223,0.305c-0.022,0.146 -0.156,0.251 -0.305,0.223c-2.858,-0.442 -7.588,0.01 -11.387,0.375c-1.558,0.149 -3.029,0.29 -4.208,0.356c-0.346,0.019 -0.692,0.029 -1.039,0.029Z" style="fill:#030404;fill-rule:nonzero;"/><path d="M26.102,26.06c-0.179,0 -0.357,-0.004 -0.536,-0.009c-5.149,-0.174 -9.861,-3.197 -14.187,-6.185c-1.424,-0.984 -3.475,-2.385 -5.176,-2.385l-0.04,0c-0.147,0 -0.266,0.149 -0.268,0.003c-0.001,-0.148 0.117,-0.003 0.265,-0.003l0.042,0c1.839,0 3.993,1.184 5.48,2.212c4.259,2.942 8.891,5.671 13.901,5.84c1.557,0.058 3.13,-0.155 4.654,-0.346c1.716,-0.216 4.001,-0.482 6.289,-0.745c2.307,-0.265 4.617,-0.532 6.347,-0.75c0.15,-0.016 0.28,0.085 0.298,0.231c0.019,0.146 -0.085,0.28 -0.232,0.298c-1.732,0.218 -4.043,0.483 -6.353,0.748c-2.286,0.262 -4.57,0.525 -6.284,0.74c-1.371,0.172 -2.784,0.349 -4.202,0.35Z" style="fill:#030404;fill-rule:nonzero;"/><path d="M28.253,33.668c2.244,0 4.47,0.676 6.335,1.958c0.398,0.274 0.781,0.576 1.151,0.868c0.406,0.32 0.826,0.652 1.26,0.939c2.222,1.474 5.156,2.091 8.975,1.895c2.884,-0.15 5.286,-0.676 7.343,-1.608c2.439,-1.105 4.394,-2.839 5.505,-4.882c0.761,-1.4 1.16,-2.991 1.423,-4.559c-2.491,4.384 -6.929,7.424 -11.652,7.807c-3.142,0.251 -6.247,-0.604 -9.247,-1.435c-0.692,-0.192 -1.384,-0.384 -2.076,-0.562c-2.54,-0.655 -6.072,-1.336 -9.242,-0.42c0.075,-0.001 0.15,-0.001 0.224,-0.001Zm16.376,6.23c-3.279,0 -5.881,-0.665 -7.925,-2.02c-0.453,-0.3 -0.882,-0.638 -1.297,-0.965c-0.363,-0.286 -0.739,-0.583 -1.123,-0.847c-2.314,-1.591 -5.342,-2.213 -8.092,-1.661c-0.132,0.025 -0.26,-0.048 -0.304,-0.173c-0.045,-0.125 0.009,-0.264 0.126,-0.325c3.715,-1.974 8.279,-1.137 11.39,-0.336c0.694,0.179 1.389,0.372 2.084,0.565c2.955,0.818 6.012,1.666 9.062,1.417c5.036,-0.408 9.738,-3.961 11.935,-8.938c0.032,-0.252 0.063,-0.501 0.094,-0.746c0.018,-0.146 0.15,-0.251 0.298,-0.232c0.045,0.005 0.086,0.022 0.121,0.046c0.048,-0.009 0.098,-0.005 0.146,0.013c0.138,0.052 0.208,0.206 0.155,0.344c-0.092,0.242 -0.189,0.482 -0.292,0.719c-0.27,2.098 -0.647,4.373 -1.714,6.334c-1.166,2.145 -3.209,3.961 -5.754,5.114c-2.119,0.959 -4.584,1.501 -7.536,1.654c-0.47,0.025 -0.928,0.037 -1.373,0.037Z" style="fill:#030404;fill-rule:nonzero;"/><path d="M48.867,36.546c-2.439,0 -4.91,-0.508 -7.292,-1.111c-0.512,-0.129 -1.026,-0.263 -1.541,-0.398c-3.259,-0.853 -6.631,-1.734 -9.987,-1.472c-0.644,0.05 -1.473,0.155 -2.186,0.521c-0.131,0.067 -0.292,0.017 -0.36,-0.115c-0.067,-0.131 -0.016,-0.292 0.116,-0.36c0.797,-0.41 1.695,-0.524 2.388,-0.579c3.449,-0.262 6.863,0.625 10.164,1.488c0.513,0.134 1.025,0.268 1.537,0.398c3.792,0.96 7.808,1.677 11.497,0.426c3.505,-1.189 6.283,-4.145 7.252,-7.716c0.038,-0.143 0.186,-0.225 0.328,-0.188c0.143,0.039 0.227,0.186 0.188,0.328c-1.015,3.74 -3.925,6.836 -7.595,8.082c-1.47,0.499 -2.983,0.697 -4.508,0.697Z" style="fill:#030404;fill-rule:nonzero;"/><path d="M47.911,38.137c-1.501,0 -2.93,-0.146 -4.187,-0.311c-2.036,-0.27 -3.667,-0.607 -5.131,-1.063c-0.926,-0.288 -1.864,-0.646 -2.771,-0.992c-2.602,-0.993 -5.293,-2.021 -7.965,-1.481c-0.145,0.028 -0.285,-0.065 -0.314,-0.209c-0.028,-0.145 0.064,-0.287 0.209,-0.316c2.826,-0.564 5.588,0.488 8.26,1.507c0.899,0.344 1.829,0.698 2.739,0.981c1.435,0.447 3.037,0.779 5.042,1.043c2.681,0.355 6.172,0.619 9.388,-0.487c3.251,-1.118 5.64,-3.566 6.235,-6.386c0.03,-0.145 0.175,-0.235 0.316,-0.207c0.144,0.031 0.237,0.172 0.206,0.316c-0.633,3.004 -3.156,5.603 -6.583,6.781c-1.799,0.618 -3.672,0.823 -5.446,0.823Z" style="fill:#030404;fill-rule:nonzero;"/><path d="M52.355,32.651c-0.84,0 -1.62,-0.319 -2.115,-0.873c-0.622,-0.696 -0.727,-1.757 -0.244,-2.468c0.266,-0.392 0.727,-0.656 1.231,-0.705c0.462,-0.048 0.894,0.097 1.191,0.39c0.105,0.104 0.106,0.272 0.003,0.378c-0.104,0.106 -0.273,0.106 -0.378,0.003c-0.184,-0.182 -0.462,-0.265 -0.764,-0.239c-0.343,0.034 -0.666,0.216 -0.841,0.474c-0.343,0.505 -0.256,1.301 0.2,1.81c0.426,0.477 1.132,0.739 1.884,0.69c0.633,-0.038 1.303,-0.271 2.048,-0.713c0.484,-0.287 0.943,-0.624 1.363,-1.002c1.067,-0.96 1.892,-2.195 2.645,-3.376c0.396,-0.622 0.739,-1.187 0.919,-1.806c0.041,-0.142 0.189,-0.223 0.331,-0.182c0.142,0.041 0.224,0.19 0.182,0.331c-0.2,0.688 -0.562,1.288 -0.981,1.945c-0.772,1.213 -1.621,2.482 -2.738,3.487c-0.447,0.402 -0.934,0.76 -1.448,1.063c-0.82,0.488 -1.57,0.745 -2.289,0.787c-0.067,0.004 -0.133,0.007 -0.199,0.007Z" style="fill:#030404;fill-rule:nonzero;"/><path d="M47.669,33.689c-0.318,0 -0.638,-0.029 -0.956,-0.089c-1.185,-0.225 -2.118,-0.844 -2.562,-1.697c-0.281,-0.538 -0.33,-1.213 -0.133,-1.805c0.169,-0.503 0.5,-0.896 0.933,-1.103c0.492,-0.237 1.054,-0.199 1.431,0.092c0.23,0.177 0.38,0.464 0.4,0.767c0.018,0.274 -0.07,0.522 -0.247,0.7c-0.105,0.104 -0.274,0.105 -0.378,0.001c-0.105,-0.104 -0.106,-0.273 -0.001,-0.378c0.091,-0.092 0.097,-0.22 0.093,-0.288c-0.01,-0.149 -0.084,-0.294 -0.193,-0.379c-0.249,-0.193 -0.618,-0.155 -0.874,-0.034c-0.302,0.145 -0.535,0.426 -0.657,0.791c-0.152,0.458 -0.115,0.978 0.1,1.391c0.367,0.707 1.165,1.222 2.188,1.417c1.475,0.278 3.014,-0.181 3.925,-1.178c0.101,-0.11 0.269,-0.117 0.377,-0.017c0.109,0.1 0.117,0.268 0.017,0.377c-0.834,0.913 -2.126,1.432 -3.463,1.432Z" style="fill:#030404;fill-rule:nonzero;"/><path d="M42.138,20.29c-1.876,0 -3.757,-0.698 -5.139,-1.971c-1.869,-1.725 -2.759,-4.453 -2.268,-6.948c0.199,-1.01 0.583,-1.837 1.145,-2.46c0.675,-0.75 1.613,-1.178 2.511,-1.115c1.018,0.059 1.934,0.764 2.178,1.677c0.12,0.447 0.043,0.968 -0.199,1.361c-0.197,0.318 -0.489,0.531 -0.824,0.6c-0.148,0.026 -0.286,-0.063 -0.315,-0.208c-0.03,-0.145 0.063,-0.286 0.208,-0.316c0.242,-0.049 0.392,-0.222 0.476,-0.358c0.168,-0.271 0.221,-0.632 0.137,-0.942c-0.186,-0.697 -0.898,-1.236 -1.692,-1.282c-0.745,-0.04 -1.516,0.309 -2.083,0.938c-0.495,0.55 -0.837,1.292 -1.017,2.206c-0.456,2.318 0.371,4.851 2.107,6.453c1.737,1.602 4.328,2.224 6.601,1.58c0.143,-0.035 0.29,0.043 0.33,0.185c0.04,0.142 -0.043,0.29 -0.185,0.33c-0.641,0.18 -1.306,0.268 -1.97,0.268Z" style="fill:#030404;fill-rule:nonzero;"/><path d="M37.748,18.854c-0.016,0 -0.032,-0.001 -0.049,-0.005c-1.677,-0.312 -3.757,-1.682 -4.837,-3.185c-0.844,-1.175 -1.448,-2.507 -2.033,-3.795c-0.121,-0.267 -0.244,-0.535 -0.367,-0.801c-0.657,-1.415 -1.464,-3.024 -2.738,-4.192c-0.943,-0.865 -1.854,-0.887 -2.452,-0.757c-0.83,0.184 -1.469,0.746 -1.651,1.181c-0.347,0.835 -0.223,1.863 0.323,2.683c0.555,0.834 1.515,1.34 2.389,1.258c0.935,-0.087 1.742,-0.898 1.727,-1.757c-0.002,-0.147 0.115,-0.253 0.263,-0.253l0.004,0c0.146,0 0.265,0.099 0.267,0.245c0.019,1.141 -0.995,2.192 -2.213,2.305c-1.08,0.102 -2.212,-0.49 -2.883,-1.498c-0.644,-0.967 -0.787,-2.19 -0.372,-3.186c0.239,-0.575 1.013,-1.276 2.029,-1.5c0.722,-0.159 1.816,-0.136 2.93,0.884c1.346,1.235 2.183,2.897 2.861,4.36c0.124,0.268 0.246,0.536 0.369,0.805c0.574,1.264 1.167,2.571 1.98,3.704c1.009,1.405 2.944,2.682 4.5,2.973c0.146,0.026 0.241,0.167 0.214,0.311c-0.024,0.128 -0.136,0.218 -0.263,0.218Z" style="fill:#030404;fill-rule:nonzero;"/><path d="M33.454,15.764c-1.159,-1.81 -3.27,-2.121 -5.266,-2.02c-0.18,0.009 -0.362,0.229 -0.231,0.402c0.761,1.002 1.284,1.969 2.58,2.355c0.965,0.287 1.955,0.116 2.821,-0.372c0.3,-0.169 0.031,-0.63 -0.27,-0.461c-0.742,0.418 -1.578,0.571 -2.409,0.318c-1.142,-0.347 -1.593,-1.231 -2.26,-2.109c-0.077,0.134 -0.154,0.268 -0.231,0.402c1.787,-0.091 3.751,0.109 4.804,1.754c0.185,0.29 0.648,0.022 0.462,-0.269Z" style="fill:#030404;fill-rule:nonzero;"/><path d="M35.145,11.091c0.616,-1.493 0.031,-2.972 -0.586,-4.361c-0.098,-0.22 -0.429,-0.139 -0.488,0.064c-0.459,1.569 -1.126,3.396 0.594,4.429c0.296,0.178 0.565,-0.284 0.27,-0.461c-1.437,-0.864 -0.722,-2.549 -0.349,-3.826c-0.163,0.022 -0.325,0.043 -0.488,0.064c0.562,1.264 1.093,2.588 0.531,3.948c-0.13,0.318 0.386,0.457 0.516,0.143Z" style="fill:#030404;fill-rule:nonzero;"/><path d="M29.94,8.87c-0.958,-1.435 -1.075,-3.008 -1.05,-4.683c0.005,-0.344 -0.529,-0.344 -0.535,0c-0.026,1.771 0.114,3.441 1.124,4.952c0.19,0.285 0.653,0.017 0.461,-0.269Z" style="fill:#030404;fill-rule:nonzero;"/><path d="M28.809,4.67c1.01,-1.114 0.758,-2.838 0.752,-4.213c-0.001,-0.241 -0.287,-0.339 -0.456,-0.189c-1.13,1.002 -1.618,3.062 -0.715,4.348c0.196,0.279 0.659,0.013 0.461,-0.27c-0.763,-1.087 -0.324,-2.852 0.632,-3.7c-0.152,-0.063 -0.304,-0.126 -0.456,-0.189c0.004,1.187 0.281,2.866 -0.595,3.835c-0.231,0.254 0.146,0.634 0.377,0.378Z" style="fill:#030404;fill-rule:nonzero;"/></svg>